<svg width="99" height="48" viewBox="0 0 99 48" fill="none" xmlns="http://www.w3.org/2000/svg">
<path d="M1.43466 19V4.45455H7.00284C8.05398 4.45455 8.92756 4.62026 9.62358 4.9517C10.3243 5.27841 10.8475 5.72585 11.1932 6.29403C11.5436 6.86222 11.7188 7.50616 11.7188 8.22585C11.7188 8.81771 11.6051 9.32434 11.3778 9.74574C11.1506 10.1624 10.8452 10.5009 10.4616 10.7614C10.0781 11.0218 9.64962 11.2088 9.17614 11.3224V11.4645C9.69224 11.4929 10.187 11.6515 10.6605 11.9403C11.1387 12.2244 11.5294 12.6269 11.8324 13.1477C12.1354 13.6686 12.2869 14.2983 12.2869 15.0369C12.2869 15.7898 12.1046 16.4669 11.7401 17.0682C11.3755 17.6648 10.8262 18.1359 10.0923 18.4815C9.35843 18.8272 8.43513 19 7.32244 19H1.43466ZM4.0696 16.7983H6.90341C7.85985 16.7983 8.54877 16.616 8.97017 16.2514C9.39631 15.8821 9.60938 15.4086 9.60938 14.831C9.60938 14.4001 9.50284 14.0118 9.28977 13.6662C9.0767 13.3158 8.77367 13.0412 8.38068 12.8423C7.98769 12.6387 7.51894 12.5369 6.97443 12.5369H4.0696V16.7983ZM4.0696 10.6406H6.67614C7.13068 10.6406 7.54025 10.5578 7.90483 10.392C8.26941 10.2216 8.55587 9.98248 8.7642 9.67472C8.97727 9.36222 9.08381 8.9929 9.08381 8.56676C9.08381 8.00331 8.88494 7.5393 8.48722 7.17472C8.09422 6.81013 7.50947 6.62784 6.73295 6.62784H4.0696V10.6406ZM17.6048 19.2202C16.9135 19.2202 16.2908 19.0971 15.7369 18.8509C15.1876 18.5999 14.752 18.2306 14.43 17.7429C14.1128 17.2552 13.9542 16.6539 13.9542 15.9389C13.9542 15.3234 14.0678 14.8144 14.2951 14.4119C14.5224 14.0095 14.8325 13.6875 15.2255 13.446C15.6185 13.2045 16.0612 13.0223 16.5536 12.8991C17.0508 12.7713 17.5645 12.679 18.0948 12.6222C18.734 12.5559 19.2525 12.4967 19.6502 12.4446C20.0479 12.3878 20.3368 12.3026 20.5167 12.1889C20.7013 12.0705 20.7937 11.8883 20.7937 11.642V11.5994C20.7937 11.0644 20.6351 10.6501 20.3178 10.3565C20.0006 10.063 19.5437 9.91619 18.9471 9.91619C18.3174 9.91619 17.8178 10.0535 17.4485 10.3281C17.0839 10.6027 16.8377 10.9271 16.7099 11.3011L14.3093 10.9602C14.4987 10.2973 14.8112 9.74337 15.2468 9.2983C15.6824 8.84848 16.2151 8.51231 16.8448 8.28977C17.4746 8.0625 18.1706 7.94886 18.9329 7.94886C19.4585 7.94886 19.9817 8.01042 20.5025 8.13352C21.0233 8.25663 21.4992 8.46023 21.93 8.74432C22.3609 9.02367 22.7066 9.40483 22.967 9.88778C23.2321 10.3707 23.3647 10.9744 23.3647 11.6989V19H20.8931V17.5014H20.8079C20.6516 17.8045 20.4315 18.0885 20.1474 18.3537C19.868 18.6141 19.5153 18.8248 19.0891 18.9858C18.6677 19.142 18.1729 19.2202 17.6048 19.2202ZM18.2724 17.331C18.7885 17.331 19.2359 17.2292 19.6147 17.0256C19.9935 16.8172 20.2847 16.5426 20.4883 16.2017C20.6966 15.8608 20.8008 15.4891 20.8008 15.0866V13.8011C20.7203 13.8674 20.583 13.929 20.3888 13.9858C20.1995 14.0426 19.9864 14.0923 19.7496 14.1349C19.5129 14.1776 19.2785 14.2154 19.0465 14.2486C18.8145 14.2817 18.6133 14.3101 18.4428 14.3338C18.0593 14.3859 17.716 14.4711 17.413 14.5895C17.11 14.7079 16.8709 14.8736 16.6957 15.0866C16.5205 15.295 16.4329 15.5649 16.4329 15.8963C16.4329 16.3698 16.6057 16.7273 16.9513 16.9688C17.297 17.2102 17.7373 17.331 18.2724 17.331ZM30.7085 19.2131C29.6194 19.2131 28.6843 18.974 27.9031 18.4957C27.1265 18.0175 26.5276 17.357 26.1062 16.5142C25.6895 15.6667 25.4812 14.6913 25.4812 13.5881C25.4812 12.4801 25.6942 11.5024 26.1204 10.6548C26.5465 9.80256 27.1478 9.13968 27.9244 8.66619C28.7056 8.18797 29.6289 7.94886 30.6942 7.94886C31.5797 7.94886 32.3633 8.11222 33.0451 8.43892C33.7317 8.76089 34.2785 9.2178 34.6857 9.80966C35.0929 10.3968 35.3249 11.0833 35.3817 11.8693H32.9244C32.8249 11.3437 32.5882 10.9058 32.2141 10.5554C31.8448 10.2003 31.35 10.0227 30.7298 10.0227C30.2042 10.0227 29.7425 10.1648 29.3448 10.4489C28.9471 10.7282 28.637 11.1307 28.4144 11.6562C28.1966 12.1818 28.0877 12.8116 28.0877 13.5455C28.0877 14.2888 28.1966 14.928 28.4144 15.4631C28.6322 15.9934 28.9376 16.4029 29.3306 16.6918C29.7283 16.9759 30.1947 17.1179 30.7298 17.1179C31.1085 17.1179 31.4471 17.0469 31.7454 16.9048C32.0484 16.758 32.3017 16.5473 32.5053 16.2727C32.7089 15.9981 32.8486 15.6643 32.9244 15.2713H35.3817C35.3202 16.0431 35.0929 16.7273 34.6999 17.3239C34.3069 17.9157 33.7719 18.3797 33.0948 18.7159C32.4177 19.0473 31.6223 19.2131 30.7085 19.2131ZM39.8366 15.5767L39.8295 12.473H40.2415L44.1619 8.09091H47.1662L42.3438 13.4602H41.8111L39.8366 15.5767ZM37.4929 19V4.45455H40.0639V19H37.4929ZM44.3395 19L40.7884 14.0355L42.5213 12.2244L47.4148 19H44.3395ZM51.4506 4.45455V19H48.8796V4.45455H51.4506ZM58.853 19.2131C57.7876 19.2131 56.8643 18.9787 56.0831 18.5099C55.3018 18.0412 54.6958 17.3854 54.2649 16.5426C53.8388 15.6998 53.6257 14.715 53.6257 13.5881C53.6257 12.4612 53.8388 11.474 54.2649 10.6264C54.6958 9.77888 55.3018 9.12074 56.0831 8.65199C56.8643 8.18324 57.7876 7.94886 58.853 7.94886C59.9183 7.94886 60.8416 8.18324 61.6229 8.65199C62.4041 9.12074 63.0078 9.77888 63.4339 10.6264C63.8648 11.474 64.0803 12.4612 64.0803 13.5881C64.0803 14.715 63.8648 15.6998 63.4339 16.5426C63.0078 17.3854 62.4041 18.0412 61.6229 18.5099C60.8416 18.9787 59.9183 19.2131 58.853 19.2131ZM58.8672 17.1534C59.4448 17.1534 59.9278 16.9948 60.3161 16.6776C60.7043 16.3556 60.9931 15.9247 61.1825 15.3849C61.3767 14.8452 61.4737 14.2438 61.4737 13.581C61.4737 12.9134 61.3767 12.3097 61.1825 11.7699C60.9931 11.2254 60.7043 10.7921 60.3161 10.4702C59.9278 10.1482 59.4448 9.98722 58.8672 9.98722C58.2753 9.98722 57.7829 10.1482 57.3899 10.4702C57.0017 10.7921 56.7105 11.2254 56.5163 11.7699C56.3269 12.3097 56.2322 12.9134 56.2322 13.581C56.2322 14.2438 56.3269 14.8452 56.5163 15.3849C56.7105 15.9247 57.0017 16.3556 57.3899 16.6776C57.7829 16.9948 58.2753 17.1534 58.8672 17.1534ZM71.0067 23.3182C70.0835 23.3182 69.2904 23.1927 68.6275 22.9418C67.9646 22.6955 67.4319 22.3641 67.0295 21.9474C66.627 21.5308 66.3477 21.0691 66.1914 20.5625L68.5067 20.0014C68.6109 20.2145 68.7624 20.4252 68.9613 20.6335C69.1602 20.8466 69.4277 21.0218 69.7638 21.1591C70.1048 21.3011 70.5333 21.3722 71.0494 21.3722C71.7785 21.3722 72.3822 21.1946 72.8604 20.8395C73.3387 20.4891 73.5778 19.9115 73.5778 19.1065V17.0398H73.4499C73.3174 17.3049 73.1232 17.5772 72.8675 17.8565C72.6166 18.1359 72.2828 18.3703 71.8661 18.5597C71.4542 18.7491 70.9357 18.8438 70.3107 18.8438C69.4727 18.8438 68.7127 18.6473 68.0309 18.2543C67.3538 17.8565 66.814 17.2647 66.4116 16.4787C66.0138 15.688 65.815 14.6984 65.815 13.5099C65.815 12.312 66.0138 11.3011 66.4116 10.4773C66.814 9.64867 67.3562 9.02131 68.038 8.59517C68.7198 8.1643 69.4798 7.94886 70.3178 7.94886C70.957 7.94886 71.4826 8.05777 71.8945 8.27557C72.3112 8.48864 72.6426 8.74669 72.8888 9.04972C73.1351 9.34801 73.3221 9.62973 73.4499 9.89489H73.592V8.09091H76.1275V19.1776C76.1275 20.1103 75.9049 20.8821 75.4599 21.4929C75.0148 22.1037 74.4064 22.5606 73.6346 22.8636C72.8628 23.1667 71.9869 23.3182 71.0067 23.3182ZM71.0281 16.8267C71.5726 16.8267 72.0366 16.6941 72.4201 16.429C72.8036 16.1638 73.0948 15.7827 73.2937 15.2855C73.4925 14.7884 73.592 14.1918 73.592 13.4957C73.592 12.8092 73.4925 12.2079 73.2937 11.6918C73.0996 11.1757 72.8107 10.7756 72.4272 10.4915C72.0484 10.2027 71.582 10.0582 71.0281 10.0582C70.4551 10.0582 69.9769 10.2074 69.5934 10.5057C69.2099 10.804 68.921 11.2135 68.7269 11.7344C68.5328 12.2505 68.4357 12.8376 68.4357 13.4957C68.4357 14.1634 68.5328 14.7481 68.7269 15.25C68.9258 15.7472 69.217 16.1354 69.6005 16.4148C69.9888 16.6894 70.4646 16.8267 71.0281 16.8267Z" fill="white"/>
<path d="M96.7016 8L98.5 9.90774L91.75 17L85 9.90774L86.7985 8L91.75 13.2026L96.7016 8Z" fill="white"/>
<rect y="39" width="99" height="9" fill="#BDFF51"/>
</svg>
