<svg width="1948" height="784" viewBox="0 0 1948 784" fill="none" xmlns="http://www.w3.org/2000/svg">
<path d="M1618.33 464.626C1618.33 469.015 1599.15 472.572 1575.49 472.572C1551.83 472.572 1532.65 469.015 1532.65 464.626C1532.65 460.237 1551.83 456.68 1575.49 456.68C1599.15 456.68 1618.33 460.237 1618.33 464.626Z" fill="#E6E8ED"/>
<path d="M1947 95.9042V579.001L0.5 569.001C58.6872 535.238 995 203.001 1298.5 96.5013C1967.5 -118.5 1947 95.9042 1947 95.9042Z" fill="#5CCFFE" fill-opacity="0.53"/>
<path d="M840.11 473.016C835.343 472.662 833.031 478.545 820.795 478.545C808.933 478.545 807 484.126 807 484.126L829.994 487.001L874 484.126C866.546 484.126 864.994 479.431 858.029 478.545C851.065 477.659 844.875 473.371 840.11 473.016Z" fill="#F7F7F7"/>
<path d="M1295.56 219.001C1282.78 219.001 1282.28 228.155 1277.31 229.092C1272.33 230.028 1266.53 224.402 1259.26 226.745C1251.99 229.088 1247.78 233.787 1240 233.787H1345C1345 233.787 1307.95 219.001 1295.56 219.001Z" fill="#F7F7F7"/>
<path fill-rule="evenodd" clip-rule="evenodd" d="M1618.19 347.88V409.207H1605.13V391.997L1575.52 362.77V349.508H1569.68V324.15H1546.88V378.735H1526.43V403.457H1512.4V266.889H1468.56V346.627H1448.11V323.23H1436.42V303.726H1418.7V219.001H1377.98V322.01H1365.7V260.255H1313V475.231H1647.55V347.878L1618.19 347.88Z" fill="#4497B7"/>
<path d="M1409.68 227.576H1386.86V274.709H1409.68V227.576Z" fill="#5CCFFE"/>
<path d="M1486.52 368.001H1474.49V385.706H1486.52V368.001Z" fill="#5CCFFE"/>
<path d="M1486.52 399.229H1474.49V425.349H1486.52V399.229Z" fill="#5CCFFE"/>
<path d="M1485.19 274.709H1475.81V342.777H1485.19V274.709Z" fill="#5CCFFE"/>
<path d="M1423.47 331.95H1414.09V400.016H1423.47V331.95Z" fill="#5CCFFE"/>
<path d="M1547.14 399.447H1533.92V444.64H1547.14V399.447Z" fill="#5CCFFE"/>
<path d="M1506.87 306.702H1495.33V367.541H1506.87V306.702Z" fill="#5CCFFE"/>
<path d="M1562.49 330.794H1553.24V340.234H1562.49V330.794Z" fill="#5CCFFE"/>
<path d="M1562.49 357.966H1553.24V367.403H1562.49V357.966Z" fill="#5CCFFE"/>
<path d="M1562.49 344.758H1553.24V354.195H1562.49V344.758Z" fill="#5CCFFE"/>
<path d="M1628.26 385.284H1623.13V403.507H1628.26V385.284Z" fill="#5CCFFE"/>
<path d="M1628.26 411.457H1623.13V429.693H1628.26V411.457Z" fill="#5CCFFE"/>
<path d="M1345.99 367.2H1332.81V376.654H1345.99V367.2Z" fill="#5CCFFE"/>
<path d="M1345.99 350.053H1332.81V359.505H1345.99V350.053Z" fill="#5CCFFE"/>
<path d="M1345.99 332.903H1332.81V342.357H1345.99V332.903Z" fill="#5CCFFE"/>
<path d="M1345.99 315.756H1332.81V325.209H1345.99V315.756Z" fill="#5CCFFE"/>
<path d="M1345.99 298.608H1332.81V308.06H1345.99V298.608Z" fill="#5CCFFE"/>
<path d="M1432.97 146.516C1453.17 146.516 1453.96 158.167 1461.83 159.361C1469.69 160.555 1478.85 153.387 1490.35 156.374C1501.84 159.361 1508.48 165.335 1520.79 165.335H1410.2C1410.2 165.335 1413.39 146.516 1432.97 146.516Z" fill="#F7F7F7"/>
<path d="M1717.59 157.811C1704.81 157.811 1704.31 166.965 1699.34 167.902C1694.36 168.838 1688.56 163.212 1681.29 165.555C1674.02 167.898 1669.81 172.597 1662.03 172.597H1732C1732 172.597 1729.98 157.811 1717.59 157.811Z" fill="#F7F7F7"/>
<path d="M1502.41 475.23H1494.88L1527.76 444.64H1535.29L1502.41 475.23Z" fill="#CECDD3"/>
<path d="M1534.78 358.443H1528.28V475.23H1534.78V358.443Z" fill="#CECDD3"/>
<path d="M1525.68 475.23H1528.28V358.444H1525.68V475.23Z" fill="white"/>
<path d="M1560.64 475.23H1568.17L1535.29 444.64H1527.76L1560.64 475.23Z" fill="#CECDD3"/>
<path d="M1428.39 224.628V238.678H1634.93V224.635L1428.39 224.628Z" fill="url(#paint0_linear_108_2)"/>
<path d="M1544.08 357.966H1541.45V372.761H1544.08V357.966Z" fill="#181F79"/>
<path d="M1433.5 238.675V359.889H1632.42V238.675H1433.5Z" fill="white"/>
<path d="M1635.83 356.456H1427.23V361.928H1635.83V356.456Z" fill="#181F79"/>
<path d="M1542.76 371.239C1541.6 371.24 1540.49 371.699 1539.67 372.514C1538.85 373.33 1538.39 374.436 1538.39 375.589C1538.39 376.742 1538.85 377.848 1539.67 378.664C1540.49 379.479 1541.6 379.938 1542.76 379.94C1543.92 379.939 1545.04 379.48 1545.86 378.664C1546.68 377.848 1547.14 376.742 1547.14 375.589C1547.14 374.435 1546.68 373.329 1545.86 372.514C1545.04 371.698 1543.92 371.24 1542.76 371.239ZM1542.76 377.765C1542.18 377.765 1541.63 377.535 1541.22 377.127C1540.81 376.719 1540.58 376.166 1540.57 375.589C1540.58 375.012 1540.81 374.459 1541.22 374.051C1541.63 373.643 1542.18 373.413 1542.76 373.412C1543.34 373.413 1543.9 373.643 1544.31 374.051C1544.72 374.459 1544.95 375.012 1544.95 375.589C1544.95 376.166 1544.72 376.719 1544.31 377.127C1543.9 377.535 1543.34 377.765 1542.76 377.765V377.765Z" fill="#FE8046"/>
<path d="M1557.62 279.004H1548.95V299.022H1557.62V279.004Z" fill="#2B1BED"/>
<path d="M1572.51 270.488H1563.84V299.022H1572.51V270.488Z" fill="#B88704"/>
<path d="M1587.4 274.212H1578.72V299.022H1587.4V274.212Z" fill="#4497B7"/>
<path d="M1602.28 263.819H1593.61V299.022H1602.28V263.819Z" fill="#5CCFFE"/>
<path d="M1617.17 250.321H1608.5V299.021H1617.17V250.321Z" fill="#FE8046"/>
<path d="M1617.17 303.424H1548.95V305.775H1617.17V303.424Z" fill="#CECDD3"/>
<path d="M1450.84 256.303C1448.64 258.298 1446.94 260.77 1445.85 263.526C1444.77 266.282 1444.33 269.249 1444.58 272.198C1444.97 277.442 1447.43 282.321 1451.43 285.761C1455.43 289.202 1460.64 290.923 1465.91 290.545L1464.47 270.768L1450.84 256.303Z" fill="#5CCFFE"/>
<path d="M1465.91 290.545C1469.88 290.302 1473.68 288.841 1476.79 286.363L1464.47 270.768L1465.91 290.545Z" fill="#FE8046"/>
<path d="M1471.25 252.123L1464.47 270.767L1476.79 286.362C1479.76 284.099 1482 281.019 1483.23 277.503C1485.03 272.558 1484.77 267.106 1482.53 262.346C1480.28 257.587 1476.22 253.909 1471.25 252.123V252.123Z" fill="#2B1BED"/>
<path d="M1450.84 256.302L1464.47 270.767L1471.25 252.123C1463.91 249.488 1456.53 251.004 1450.84 256.302Z" fill="#B88704"/>
<path d="M1523.63 253.011H1509.96V255.737H1523.63V253.011Z" fill="#CECDD3"/>
<path d="M1530.29 253.011H1525.68V255.737H1530.29V253.011Z" fill="#CECDD3"/>
<path d="M1522.43 274.868H1509.96V277.594H1522.43V274.868Z" fill="#CECDD3"/>
<path d="M1530.29 285.8H1519.22V288.526H1530.29V285.8Z" fill="#CECDD3"/>
<path d="M1517.5 285.8H1509.96V288.526H1517.5V285.8Z" fill="#CECDD3"/>
<path d="M1517.27 263.944H1509.96V266.668H1517.27V263.944Z" fill="#CECDD3"/>
<path d="M1523.63 263.944H1517.9V266.668H1523.63V263.944Z" fill="#CECDD3"/>
<path d="M1502.71 250.942C1501.8 250.942 1500.92 251.304 1500.27 251.947C1499.63 252.591 1499.26 253.463 1499.26 254.373C1499.26 254.824 1499.35 255.271 1499.52 255.688C1499.7 256.105 1499.95 256.484 1500.27 256.803C1500.59 257.122 1500.97 257.375 1501.39 257.548C1501.81 257.721 1502.26 257.81 1502.71 257.81C1503.17 257.811 1503.62 257.722 1504.04 257.55C1504.46 257.377 1504.84 257.124 1505.16 256.805C1505.48 256.485 1505.74 256.106 1505.91 255.689C1506.08 255.272 1506.17 254.824 1506.17 254.373C1506.17 253.922 1506.08 253.475 1505.91 253.059C1505.73 252.642 1505.48 252.264 1505.16 251.945C1504.84 251.627 1504.45 251.374 1504.04 251.202C1503.62 251.03 1503.17 250.941 1502.71 250.942Z" fill="#B88704"/>
<path d="M1502.71 261.873C1501.8 261.873 1500.92 262.235 1500.27 262.878C1499.62 263.522 1499.26 264.395 1499.26 265.305C1499.26 266.215 1499.62 267.088 1500.27 267.732C1500.92 268.375 1501.8 268.737 1502.71 268.737C1503.17 268.738 1503.62 268.649 1504.04 268.477C1504.46 268.305 1504.84 268.052 1505.16 267.734C1505.48 267.415 1505.73 267.036 1505.91 266.62C1506.08 266.203 1506.17 265.756 1506.17 265.305C1506.17 264.854 1506.08 264.407 1505.91 263.991C1505.73 263.574 1505.48 263.195 1505.16 262.876C1504.84 262.558 1504.45 262.305 1504.04 262.133C1503.62 261.96 1503.17 261.872 1502.71 261.873V261.873Z" fill="#5CCFFE"/>
<path d="M1502.71 272.801C1501.8 272.801 1500.92 273.163 1500.27 273.806C1499.62 274.45 1499.26 275.323 1499.26 276.233C1499.26 276.683 1499.35 277.13 1499.52 277.546C1499.7 277.963 1499.95 278.341 1500.27 278.66C1500.59 278.979 1500.97 279.232 1501.39 279.404C1501.81 279.577 1502.26 279.665 1502.71 279.665C1503.17 279.666 1503.62 279.578 1504.04 279.406C1504.46 279.233 1504.84 278.981 1505.16 278.662C1505.48 278.343 1505.73 277.964 1505.91 277.548C1506.08 277.131 1506.17 276.684 1506.17 276.233C1506.17 275.782 1506.08 275.335 1505.91 274.918C1505.73 274.502 1505.48 274.123 1505.16 273.804C1504.84 273.486 1504.45 273.233 1504.04 273.061C1503.62 272.889 1503.17 272.8 1502.71 272.801V272.801Z" fill="#FE8046"/>
<path d="M1502.71 283.732C1502.26 283.732 1501.81 283.821 1501.39 283.993C1500.97 284.166 1500.59 284.419 1500.27 284.737C1499.95 285.056 1499.7 285.434 1499.52 285.851C1499.35 286.267 1499.26 286.714 1499.26 287.164C1499.26 288.074 1499.63 288.947 1500.27 289.59C1500.92 290.233 1501.8 290.595 1502.71 290.595C1503.17 290.596 1503.62 290.507 1504.04 290.335C1504.45 290.163 1504.84 289.911 1505.16 289.592C1505.48 289.273 1505.73 288.895 1505.91 288.478C1506.08 288.062 1506.17 287.615 1506.17 287.164C1506.17 286.713 1506.08 286.266 1505.91 285.85C1505.73 285.433 1505.48 285.054 1505.16 284.735C1504.84 284.417 1504.46 284.164 1504.04 283.992C1503.62 283.82 1503.17 283.732 1502.71 283.732V283.732Z" fill="#2B1BED"/>
<path d="M1462.03 310.815H1448.07C1446.67 310.815 1445.53 311.944 1445.53 313.338V327.902C1445.53 329.296 1446.67 330.425 1448.07 330.425H1462.03C1463.43 330.425 1464.56 329.296 1464.56 327.902V313.338C1464.56 311.944 1463.43 310.815 1462.03 310.815Z" fill="#FE8046"/>
<path d="M1493.49 310.815H1467.2V313.123H1493.49V310.815Z" fill="#CECDD3"/>
<path d="M1533.21 310.815H1505.52V313.123H1533.21V310.815Z" fill="#CECDD3"/>
<path d="M1501.28 316.354H1467.2V318.659H1501.28V316.354Z" fill="#CECDD3"/>
<path d="M1493.55 321.89H1487.41V324.194H1493.55V321.89Z" fill="#CECDD3"/>
<path d="M1505.37 321.89H1496.02V324.194H1505.37V321.89Z" fill="#CECDD3"/>
<path d="M1533.21 316.354H1507.84V318.659H1533.21V316.354Z" fill="#CECDD3"/>
<path d="M1483.12 321.888H1467.2V324.196H1483.12V321.888Z" fill="#CECDD3"/>
<path d="M1521.67 328.117H1467.2V330.425H1521.67V328.117Z" fill="#CECDD3"/>
<path d="M1533.21 333.654H1475.84V335.962H1533.21V333.654Z" fill="#CECDD3"/>
<path d="M1472.63 333.654H1445.53V335.961H1472.63V333.654Z" fill="#CECDD3"/>
<path d="M1563.3 316.519H1549.43V318.713H1563.3V316.519Z" fill="#CECDD3"/>
<path d="M1570.84 321.944H1549.43V324.139H1570.84V321.944Z" fill="#CECDD3"/>
<path d="M1590.22 316.519H1569.91V318.713H1590.22V316.519Z" fill="#CECDD3"/>
<path d="M1604.95 316.519H1594.27V318.713H1604.95V316.519Z" fill="#CECDD3"/>
<path d="M1615.46 321.944H1591.67V324.139H1615.46V321.944Z" fill="#CECDD3"/>
<path d="M1563.3 327.355H1549.43V329.549H1563.3V327.355Z" fill="#CECDD3"/>
<path d="M1593.01 332.78H1549.43V334.975H1593.01V332.78Z" fill="#CECDD3"/>
<path d="M1596.32 327.355H1569.91V329.549H1596.32V327.355Z" fill="#CECDD3"/>
<path d="M1615.46 327.355H1601.6V329.549H1615.46V327.355Z" fill="#CECDD3"/>
<path d="M1622.73 332.78H1598.29V334.975H1622.73V332.78Z" fill="#CECDD3"/>
<path d="M1585.72 321.944H1575.6V324.139H1585.72V321.944Z" fill="#CECDD3"/>
<path d="M1634.93 224.628C1633.05 224.628 1631.53 227.773 1631.53 231.65C1631.53 235.527 1633.05 238.672 1634.93 238.672C1636.81 238.672 1638.34 235.529 1638.34 231.65C1638.34 227.77 1636.81 224.628 1634.93 224.628Z" fill="#181F79"/>
<path d="M1428.39 224.628C1426.51 224.628 1424.98 227.773 1424.98 231.65C1424.98 235.527 1426.51 238.672 1428.39 238.672C1430.27 238.672 1431.79 235.529 1431.79 231.65C1431.79 227.77 1430.27 224.628 1428.39 224.628Z" fill="#F5C825"/>
<path fill-rule="evenodd" clip-rule="evenodd" d="M1386.89 245.949C1385.92 245.949 1384.97 246.137 1384.08 246.504C1383.18 246.871 1382.37 247.409 1381.69 248.087C1381.01 248.765 1380.47 249.57 1380.1 250.457C1379.73 251.343 1379.54 252.292 1379.54 253.252C1379.54 254.211 1379.73 255.16 1380.1 256.047C1380.47 256.933 1381.01 257.738 1381.69 258.416C1382.37 259.094 1383.18 259.632 1384.07 259.999C1384.97 260.366 1385.92 260.555 1386.89 260.555C1387.85 260.555 1388.81 260.366 1389.7 260C1390.59 259.633 1391.4 259.095 1392.08 258.417C1392.76 257.739 1393.31 256.933 1393.68 256.047C1394.04 255.161 1394.23 254.211 1394.23 253.252C1394.23 251.315 1393.46 249.457 1392.08 248.088C1390.7 246.718 1388.84 245.949 1386.89 245.949V245.949Z" fill="#FE8046"/>
<path fill-rule="evenodd" clip-rule="evenodd" d="M1386.89 245.949C1386.07 245.958 1385.26 246.103 1384.5 246.378C1384.89 246.301 1385.3 246.262 1385.7 246.259C1393.25 246.259 1393.24 257.902 1385.7 257.902C1380.85 257.902 1379.14 253.111 1380.52 249.673C1379.89 250.761 1379.55 251.994 1379.54 253.252C1379.54 254.211 1379.73 255.16 1380.1 256.047C1380.47 256.933 1381.01 257.738 1381.69 258.416C1382.37 259.094 1383.18 259.632 1384.07 259.999C1384.97 260.366 1385.92 260.555 1386.89 260.555C1387.85 260.555 1388.81 260.366 1389.7 260C1390.59 259.633 1391.4 259.095 1392.08 258.417C1392.76 257.739 1393.31 256.933 1393.68 256.047C1394.04 255.161 1394.23 254.211 1394.23 253.252C1394.23 251.315 1393.46 249.457 1392.08 248.088C1390.7 246.718 1388.84 245.949 1386.89 245.949V245.949Z" fill="#EB4201"/>
<path fill-rule="evenodd" clip-rule="evenodd" d="M1383.5 244.46C1381.44 245.662 1379.95 247.629 1379.35 249.927C1378.75 252.225 1379.09 254.665 1380.3 256.712C1380.98 257.872 1381.92 258.863 1383.05 259.612C1384.17 260.361 1385.45 260.847 1386.79 261.035C1384.88 260.313 1383.28 258.966 1382.25 257.217C1381.04 255.17 1380.7 252.729 1381.3 250.431C1381.9 248.133 1383.39 246.167 1385.45 244.964C1387.21 243.935 1389.27 243.533 1391.29 243.826C1390.03 243.342 1388.67 243.148 1387.32 243.257C1385.97 243.367 1384.67 243.778 1383.5 244.46V244.46Z" fill="#FE8046"/>
<path fill-rule="evenodd" clip-rule="evenodd" d="M1369.84 333.157C1368.3 335.655 1367.22 338.322 1365.63 340.725C1360.9 347.834 1360.36 354.129 1357.44 357.555C1356.85 358.399 1355.94 358.977 1354.92 359.163C1352.66 359.562 1350.61 360.767 1349.17 362.553C1347.79 364.113 1350.57 363.575 1349.18 365.635C1348.36 366.851 1345.56 370.132 1345.9 370.606C1346.6 371.571 1347.47 370.593 1348.42 369.416C1348.5 369.586 1348.63 369.733 1348.78 369.842C1348.94 369.952 1349.12 370.02 1349.31 370.04C1349.5 370.061 1349.69 370.033 1349.86 369.96C1350.04 369.887 1350.19 369.771 1350.31 369.622C1350.46 369.769 1350.64 369.883 1350.84 369.957C1351.03 370.031 1351.24 370.064 1351.45 370.053C1351.66 370.042 1351.87 369.988 1352.05 369.894C1352.24 369.8 1352.41 369.668 1352.54 369.507C1353.51 370.29 1354.39 369.859 1355.25 368.48C1356.17 367.008 1358.09 365.014 1360.66 361.085C1364.02 355.937 1367.02 353.114 1369.33 349.351C1371.34 346.068 1374.7 341.959 1376.07 336.004C1376.32 334.903 1370.47 333.498 1369.84 333.157Z" fill="#FFA578"/>
<path fill-rule="evenodd" clip-rule="evenodd" d="M1373.8 334.484C1372.6 337.76 1370.69 340.707 1369.16 343.985C1367.62 347.298 1366.21 349.772 1364.45 352.991C1361.62 358.16 1358.84 362.06 1353.12 362.997C1352.21 364.072 1350.92 364.761 1349.52 364.923C1349.45 365.178 1349.33 365.418 1349.18 365.633C1348.36 366.85 1345.56 370.131 1345.9 370.605C1346.6 371.57 1347.47 370.592 1348.42 369.415C1348.5 369.585 1348.63 369.732 1348.78 369.841C1348.94 369.95 1349.12 370.019 1349.31 370.039C1349.5 370.06 1349.69 370.032 1349.86 369.959C1350.04 369.886 1350.19 369.769 1350.31 369.621C1350.46 369.767 1350.64 369.881 1350.84 369.955C1351.03 370.03 1351.24 370.062 1351.45 370.051C1351.66 370.041 1351.87 369.986 1352.05 369.892C1352.24 369.799 1352.41 369.667 1352.54 369.506C1353.51 370.288 1354.39 369.858 1355.25 368.479C1356.17 367.007 1358.09 365.013 1360.66 361.084C1364.02 355.936 1367.02 353.113 1369.33 349.35C1371.34 346.067 1374.7 341.958 1376.07 336.002C1376.18 335.515 1375.1 334.971 1373.8 334.484Z" fill="#E68969"/>
<path fill-rule="evenodd" clip-rule="evenodd" d="M1344.85 364.956C1345.87 365.602 1347.12 365.309 1348.18 364.02C1349.32 363.867 1350.39 363.359 1351.23 362.568L1352.25 360.046L1347.87 362.282C1346.97 363.294 1345.96 364.192 1344.85 364.956V364.956Z" fill="#FFA578"/>
<path fill-rule="evenodd" clip-rule="evenodd" d="M1348.7 366.573C1347.87 367.531 1347.09 368.533 1346.37 369.573C1345.98 370.118 1346.02 370.623 1346.31 370.775C1346.61 370.928 1346.97 370.978 1347.48 370.321C1348.29 369.274 1349.02 368.165 1349.66 367.004C1350.21 366.031 1349.74 365.349 1348.7 366.573Z" fill="#FFA578"/>
<path fill-rule="evenodd" clip-rule="evenodd" d="M1351.6 364.748C1350.59 366.116 1349.82 367.48 1348.83 368.841C1348.43 369.384 1348.67 369.649 1349 369.795C1349.33 369.936 1349.72 369.979 1350.18 369.287C1351.06 367.948 1351.85 366.551 1352.54 365.104C1353 364.087 1352.55 363.453 1351.6 364.748Z" fill="#FFA578"/>
<path fill-rule="evenodd" clip-rule="evenodd" d="M1353.06 365.187C1352.21 366.452 1351.65 367.639 1350.81 368.901C1350.48 369.4 1350.8 369.694 1351.12 369.84C1351.44 369.981 1351.82 370.032 1352.2 369.39C1352.93 368.147 1353.57 366.849 1354.1 365.509C1354.46 364.558 1353.86 363.991 1353.06 365.187Z" fill="#FFA578"/>
<path fill-rule="evenodd" clip-rule="evenodd" d="M1354.94 365.555C1354.09 366.82 1353.71 367.476 1352.87 368.735C1352.54 369.234 1352.8 369.491 1353.12 369.637C1353.44 369.778 1353.81 369.828 1354.19 369.185C1354.85 368.147 1355.4 367.052 1355.86 365.914C1356.22 364.967 1355.74 364.359 1354.94 365.555Z" fill="#FFA578"/>
<path fill-rule="evenodd" clip-rule="evenodd" d="M1386.12 254.54C1370.52 257.969 1374.3 271.954 1375.04 275.645C1376.48 282.883 1383.11 287.164 1391.66 287.164C1402.93 287.164 1409.22 270.476 1402.84 260.812C1397.98 253.47 1390.53 253.569 1386.12 254.54Z" fill="#FE8046"/>
<path fill-rule="evenodd" clip-rule="evenodd" d="M1386.12 254.54C1386.02 254.561 1385.94 254.588 1385.84 254.61C1386.04 254.646 1386.24 254.677 1386.43 254.721C1387.73 255.05 1388.95 255.648 1390.01 256.476C1392.87 257.807 1395.1 260.179 1396.26 263.101C1397.45 265.825 1397.69 268.866 1396.95 271.744C1396.17 274.911 1393.7 277.635 1390.88 279.204C1387.97 280.824 1384.23 281.74 1380.96 280.663C1379.01 280.035 1377.23 278.97 1375.75 277.55C1375.65 277.452 1375.56 277.32 1375.46 277.213C1377.49 283.493 1383.75 287.163 1391.66 287.163C1402.92 287.163 1409.22 270.475 1402.84 260.81C1397.98 253.47 1390.53 253.569 1386.12 254.54Z" fill="#EB4201"/>
<path fill-rule="evenodd" clip-rule="evenodd" d="M1399.57 475.075C1399.08 473.674 1398.09 472.533 1397.15 469.285C1394.27 459.336 1397.06 451.359 1394.43 438.306C1393.91 435.748 1392.56 433.47 1392.85 430.501C1392.95 427.709 1393.38 425.542 1393.23 423.393C1393.08 421.345 1392.38 419.308 1392.18 416.837C1391.19 404.402 1391.5 389.288 1391.97 377.359L1371.93 367.312C1372.31 379.659 1377.02 410.316 1377.27 411.641C1379.5 423.073 1378.68 424.912 1379.92 434.65C1381.24 444.922 1387.76 461.057 1390.66 471.866C1391.66 475.602 1392.74 492.64 1392.54 495.636C1392.42 497.529 1391.12 500.592 1393.78 500.592C1396.01 500.592 1401.99 498.097 1402.76 495.523C1403.57 492.806 1401.19 487.887 1400.3 483.027C1399.61 479.273 1400.23 476.966 1399.57 475.075Z" fill="#E68969"/>
<path fill-rule="evenodd" clip-rule="evenodd" d="M1386.09 438.439C1382.9 428.337 1380.55 418.028 1383.03 407.616C1385.64 396.626 1383.6 385.287 1385.63 374.179L1371.93 367.312C1372.31 379.659 1377.02 410.316 1377.28 411.641C1379.5 423.073 1378.68 424.912 1379.92 434.65C1381.24 444.922 1387.76 461.057 1390.66 471.866C1391.66 475.602 1392.74 492.64 1392.54 495.636C1392.42 497.529 1391.12 500.592 1393.78 500.592C1394.9 500.592 1396.96 499.964 1398.84 499.013C1398.51 489.854 1393.68 480.621 1393.25 471.433C1392.68 459.49 1389.67 449.745 1386.09 438.439Z" fill="#FFA578"/>
<path fill-rule="evenodd" clip-rule="evenodd" d="M1401.14 486.993C1400.78 488.989 1400.28 491.306 1399 493.057C1397.03 495.737 1392.96 494.642 1392.53 492.603C1392.57 493.994 1392.58 495.069 1392.54 495.638C1392.42 497.53 1391.12 500.594 1393.78 500.594C1396.02 500.594 1401.99 498.099 1402.76 495.524C1403.37 493.503 1402.21 490.266 1401.2 486.741C1401.18 486.827 1401.15 486.905 1401.14 486.993Z" fill="#FE8046"/>
<path fill-rule="evenodd" clip-rule="evenodd" d="M1401.14 486.993C1400.78 488.989 1400.28 491.306 1399 493.057C1398.82 493.296 1398.6 493.51 1398.37 493.695C1398.36 493.897 1398.33 494.097 1398.28 494.291C1397.16 498.203 1393.1 499.315 1392.15 499.155C1392.22 499.983 1392.61 500.596 1393.78 500.596C1396.01 500.596 1401.99 498.101 1402.76 495.526C1403.37 493.505 1402.2 490.269 1401.2 486.744C1401.18 486.827 1401.15 486.906 1401.14 486.993Z" fill="#EB4201"/>
<path fill-rule="evenodd" clip-rule="evenodd" d="M1398.35 294.341C1392.37 295.973 1393.71 289.383 1392.93 283.619L1384.81 286.463C1385.82 291.881 1386.59 295.725 1382.19 297.422C1379.65 298.401 1375.3 299.113 1373.33 300.104C1365.42 304.09 1369.78 327.299 1369.78 333.591L1376.07 336.004C1377.61 330.703 1378.11 324.901 1378.11 318.466L1404.42 315.024L1402.25 306.161L1411.12 303.025C1408.89 293.722 1405.48 292.396 1398.35 294.341Z" fill="#FFA578"/>
<path fill-rule="evenodd" clip-rule="evenodd" d="M1400.44 301.111C1400.44 301.111 1411.94 321.663 1415.79 325.643L1420.5 320.302C1418.48 316.483 1414.04 303.611 1408.9 296.61L1400.44 301.111Z" fill="#FFA578"/>
<path fill-rule="evenodd" clip-rule="evenodd" d="M1416.58 321.051C1413.97 317.133 1411.74 311.107 1411.98 310.366C1412.45 308.918 1413.85 305.572 1413.23 303.98C1411.6 299.796 1405.83 302.183 1404.69 299.228C1404.64 299.118 1404.63 299.011 1404.59 298.902L1400.44 301.111C1400.44 301.111 1411.94 321.665 1415.79 325.643L1418.41 322.672C1417.66 322.313 1417.02 321.751 1416.58 321.051V321.051Z" fill="#E68969"/>
<path fill-rule="evenodd" clip-rule="evenodd" d="M1451.25 307.085C1448.94 308.022 1450.03 305.425 1448.22 306.454C1446.2 307.539 1444.61 309.276 1443.72 311.378C1442.76 313.559 1429.77 316.032 1421.47 317.601C1418.63 318.138 1417.36 319.452 1416.04 322.074C1415.72 322.714 1414.76 325.867 1416.91 326.284C1427.33 328.314 1438.72 319.594 1444.47 317.349C1448.85 315.637 1451.2 314.169 1452.84 313.567C1454.37 313.004 1454.97 312.237 1454.4 311.138C1454.58 311.04 1454.74 310.905 1454.88 310.741C1455.01 310.577 1455.1 310.388 1455.15 310.185C1455.21 309.983 1455.22 309.772 1455.18 309.566C1455.15 309.359 1455.07 309.162 1454.96 308.987C1455.13 308.902 1455.27 308.776 1455.38 308.62C1455.49 308.464 1455.55 308.283 1455.57 308.095C1455.59 307.907 1455.56 307.717 1455.48 307.544C1455.41 307.371 1455.29 307.22 1455.13 307.106C1456.48 306.421 1457.62 305.761 1456.81 304.888C1456.41 304.461 1452.62 306.531 1451.25 307.085Z" fill="#FFA578"/>
<path fill-rule="evenodd" clip-rule="evenodd" d="M1451.25 307.085C1450.87 307.302 1450.51 307.562 1450.18 307.858C1449.17 308.655 1448.37 309.698 1447.88 310.887C1447.07 312.807 1446.08 314.898 1444.85 315.422C1441 317.058 1436.13 316.735 1432.26 318.317C1428.43 319.888 1424.77 321.477 1420.64 322.133C1419.93 322.267 1419.19 322.238 1418.5 322.048C1417.8 321.858 1417.15 321.512 1416.61 321.036C1416.42 321.359 1416.23 321.701 1416.04 322.074C1415.72 322.714 1414.76 325.865 1416.91 326.284C1427.32 328.314 1438.71 319.594 1444.46 317.349C1446.23 316.659 1446.93 315.63 1448.12 315.059C1449.88 314.215 1451.86 313.926 1452.84 313.567C1454.37 313.004 1454.97 312.237 1454.39 311.138C1454.58 311.04 1454.74 310.905 1454.87 310.741C1455 310.577 1455.1 310.388 1455.15 310.186C1455.2 309.983 1455.21 309.772 1455.18 309.566C1455.15 309.359 1455.07 309.162 1454.95 308.987C1455.13 308.902 1455.27 308.776 1455.38 308.62C1455.49 308.464 1455.55 308.283 1455.57 308.095C1455.59 307.907 1455.56 307.717 1455.48 307.544C1455.4 307.371 1455.28 307.22 1455.13 307.106C1456.48 306.419 1457.62 305.761 1456.81 304.888C1456.41 304.461 1452.62 306.529 1451.25 307.085Z" fill="#E68969"/>
<path fill-rule="evenodd" clip-rule="evenodd" d="M1448.22 305.132L1445.13 308.952L1448.23 308.465C1448.96 307.95 1449.46 307.023 1449.87 305.785C1451.35 305.015 1451.88 303.857 1451.46 302.73C1450.48 303.659 1449.39 304.466 1448.22 305.132Z" fill="#FFA578"/>
<path d="M1481.04 270.691L1438.08 327.449C1437.87 327.677 1437.76 327.976 1437.77 328.284C1437.78 328.591 1437.91 328.882 1438.14 329.094C1438.4 329.251 1438.72 329.297 1439.02 329.223C1439.32 329.149 1439.58 328.961 1439.74 328.7C1439.74 328.695 1439.75 328.685 1439.75 328.682L1481.86 271.295C1481.96 271.182 1482.01 271.035 1482 270.885C1481.99 270.735 1481.93 270.594 1481.81 270.493C1481.68 270.421 1481.53 270.401 1481.39 270.438C1481.24 270.474 1481.12 270.565 1481.04 270.691V270.691Z" fill="#B88704"/>
<path fill-rule="evenodd" clip-rule="evenodd" d="M1398.35 294.341C1392.37 295.973 1393.71 289.383 1392.93 283.619L1384.81 286.463C1385.01 287.522 1385.19 288.519 1385.33 289.453C1387.53 292.737 1391.89 297.82 1395.73 297.35C1397.81 297.097 1399.7 294.722 1402.1 294.432C1403.81 294.243 1405.53 294.404 1407.17 294.906C1405.08 293.2 1402.28 293.268 1398.35 294.341Z" fill="#E68969"/>
<path fill-rule="evenodd" clip-rule="evenodd" d="M1374.58 319.268C1374.49 320.561 1374.4 321.884 1374.36 323.259C1374.25 327.251 1374.54 331.379 1373.58 335.046L1376.07 336C1377.29 331.503 1377.95 326.873 1378.04 322.215C1377.02 321.85 1374.8 319.643 1374.58 319.268Z" fill="#E68969"/>
<path fill-rule="evenodd" clip-rule="evenodd" d="M1393.44 261.501C1391.65 260.604 1389.34 260.287 1386.39 260.802C1379.3 262.05 1377.71 268.121 1378.18 274.143C1378.45 277.536 1378.66 280.479 1380.25 283.142C1381.02 284.405 1385.71 289.845 1389.04 289.845C1392.67 289.827 1397.03 283.757 1397.67 282.076C1398.39 280.18 1398.67 277.835 1398.79 274.359C1398.81 274.109 1398.81 273.876 1398.81 273.644C1398.86 268.388 1397.45 263.48 1393.44 261.501Z" fill="#FFA578"/>
<path fill-rule="evenodd" clip-rule="evenodd" d="M1393.44 261.5C1390.99 260.786 1387.87 260.82 1383.9 262.134C1383.9 262.134 1387.16 273.079 1398.81 273.644C1398.86 268.388 1397.45 263.48 1393.44 261.5Z" fill="#E68969"/>
<path fill-rule="evenodd" clip-rule="evenodd" d="M1392.41 359.755C1386.03 372.827 1387.43 381.105 1387.63 398.559C1387.76 410.111 1387.66 413.263 1387.03 421.214C1386.83 423.686 1386.13 425.721 1385.99 427.771C1385.84 429.92 1386.26 432.087 1386.36 434.879C1386.65 437.848 1385.3 440.126 1384.79 442.684C1382.15 455.735 1385.07 465.143 1382.19 475.092C1381.25 478.339 1380.13 478.05 1379.65 479.453C1378.99 481.342 1379.6 483.65 1378.91 487.406C1378.02 492.264 1375.59 497.2 1376.45 499.902C1377.01 501.635 1381.18 506.431 1383.41 506.431C1386 506.431 1385.77 501.908 1385.99 500.023C1386.21 498.181 1386.44 484.505 1386.53 483.433C1386.84 479.481 1397.43 450.481 1398.75 440.208C1399.99 430.471 1399.35 425.949 1401.57 414.519C1404.54 399.216 1406.86 385.208 1407.28 371.689L1405.71 359.802L1392.41 359.755Z" fill="#FFA578"/>
<path fill-rule="evenodd" clip-rule="evenodd" d="M1383.94 499.918C1379.34 499.918 1378.12 491.893 1377.97 491.249C1376.96 494.728 1375.82 497.918 1376.45 499.902C1377.01 501.635 1381.18 506.431 1383.41 506.431C1386 506.431 1385.77 501.907 1385.99 500.023C1386.03 499.737 1386.06 499.14 1386.09 498.371C1385.48 498.919 1384.85 499.918 1383.94 499.918Z" fill="#FE8046"/>
<path fill-rule="evenodd" clip-rule="evenodd" d="M1383.94 499.918C1383.43 499.917 1382.92 499.81 1382.46 499.602C1382.52 500.136 1382.5 500.674 1382.42 501.204C1382.21 502.552 1380.53 503.259 1379.33 502.947C1378.91 502.833 1378.51 502.682 1378.12 502.495C1379.68 504.394 1381.96 506.432 1383.41 506.432C1386 506.432 1385.77 501.908 1386 500.024C1386.03 499.738 1386.06 499.141 1386.09 498.372C1385.48 498.919 1384.85 499.918 1383.94 499.918Z" fill="#EB4201"/>
<path fill-rule="evenodd" clip-rule="evenodd" d="M1411.88 345.857C1407.89 346.874 1383.81 350.675 1375 345.622C1374.33 349.453 1367.39 354.778 1367.39 366.944C1367.39 384.686 1374.94 420.286 1374.94 420.286C1374.94 420.286 1391.77 424.925 1403.69 420.975C1408.51 397.921 1415.14 373.888 1413.17 356.456C1413.11 355.934 1411.97 346.416 1411.88 345.857Z" fill="#F5C825"/>
<path fill-rule="evenodd" clip-rule="evenodd" d="M1411.91 346.071C1411.84 346.144 1411.8 346.221 1411.73 346.293C1403.34 354.84 1381.88 355.398 1386.12 358.219C1388.05 359.505 1397.16 365.526 1399.36 367.542C1404.11 371.88 1388.63 377.867 1389.55 387.985C1389.98 392.686 1389.61 400.903 1388.35 405.45C1386.4 412.439 1382.07 415.374 1377.58 420.908C1382.78 422.024 1394.65 423.97 1403.69 420.973C1408.5 397.919 1415.14 373.886 1413.17 356.454C1413.11 355.968 1412.11 347.596 1411.91 346.071Z" fill="#B88704"/>
<path fill-rule="evenodd" clip-rule="evenodd" d="M1413.18 296.8C1408.79 292.018 1399.33 293.317 1399.33 293.317C1395.8 296.495 1388.87 301.408 1388.87 301.408L1378.7 298.252C1378.7 298.252 1368.58 298.609 1367.36 308.061C1366.95 311.229 1373.48 310.816 1373.48 315.351C1373.52 316.781 1373.88 318.185 1374.54 319.459C1375.19 320.734 1376.12 321.847 1377.26 322.719C1377.97 327.118 1378.23 331.575 1378.05 336.025C1377.71 342.022 1374.08 341.535 1374.65 344.881C1375.62 350.579 1409.43 349.4 1412.26 346.059C1415.26 342.524 1412.31 321.418 1411.02 310.345C1410.25 303.774 1415.68 299.518 1413.18 296.8Z" fill="#5342F2"/>
<path fill-rule="evenodd" clip-rule="evenodd" d="M1413.18 296.8C1408.79 292.018 1399.33 293.317 1399.33 293.317C1395.8 296.495 1388.87 301.408 1388.87 301.408L1378.7 298.252C1376.69 298.407 1374.73 298.969 1372.94 299.904C1373.75 300.213 1375.45 301.497 1377.06 301.636C1379.97 301.887 1383.22 304.066 1382.91 307.457C1382.95 308.056 1383.18 308.627 1383.57 309.083C1387.06 311.208 1384.73 319.05 1380.61 321.008C1377.8 322.344 1391.48 330.813 1391.48 339.04C1391.48 342.533 1399.8 339.066 1402.64 336.911C1405.21 334.962 1406.93 336.8 1404.39 338.719C1399.68 342.297 1394.99 345.959 1386.47 346.073C1383.98 346.197 1381.53 346.73 1379.21 347.65C1388.74 349.968 1410.04 348.681 1412.26 346.059C1415.26 342.524 1412.31 321.418 1411.02 310.345C1410.25 303.774 1415.68 299.518 1413.18 296.8ZM1407.53 313.566C1406.4 315.216 1405.46 317.529 1405.97 319.544C1406.75 322.666 1404.37 323.765 1401.66 322.009C1400.11 320.999 1394.02 324.595 1390.47 323.999C1387.29 323.465 1389.47 321.928 1390.59 322.079C1394.2 322.563 1401.55 314.295 1403.05 310.769C1403.84 308.917 1406.89 308.244 1407.96 309.456C1408.92 310.122 1408.38 312.315 1407.53 313.566Z" fill="#181F79"/>
<path fill-rule="evenodd" clip-rule="evenodd" d="M1387 281.619C1386.74 281.971 1387.46 282.166 1387.82 282.191C1388.02 282.21 1388.22 282.242 1388.41 282.288C1388.72 282.36 1389.04 282.36 1389.34 282.288C1389.54 282.242 1389.74 282.21 1389.94 282.191C1390.3 282.166 1390.93 282.022 1390.75 281.619C1390.68 281.453 1389.74 281.065 1388.78 281.07C1388.14 281.025 1387.5 281.221 1387 281.619V281.619Z" fill="#E68969"/>
<path fill-rule="evenodd" clip-rule="evenodd" d="M1455.99 305.099C1454.84 305.646 1453.72 306.254 1452.64 306.921C1451.26 307.753 1451.86 308.318 1452.91 307.93C1454.17 307.486 1455.38 306.944 1456.55 306.309C1457.29 305.914 1457.29 305.542 1457.19 305.237C1457.08 304.92 1456.59 304.8 1455.99 305.099Z" fill="#FFA578"/>
<path fill-rule="evenodd" clip-rule="evenodd" d="M1454.87 307.4C1453.36 308.162 1451.89 308.701 1450.37 309.476C1448.93 310.205 1449.49 310.751 1450.57 310.452C1452.12 310.004 1453.63 309.45 1455.1 308.792C1455.86 308.451 1455.88 308.06 1455.79 307.723C1455.7 307.379 1455.47 307.1 1454.87 307.4Z" fill="#FFA578"/>
<path fill-rule="evenodd" clip-rule="evenodd" d="M1454.62 309.357C1453.23 309.979 1451.96 310.35 1450.57 310.98C1449.26 311.577 1449.73 312.255 1450.73 312.052C1452.14 311.738 1453.53 311.317 1454.88 310.792C1455.58 310.52 1455.59 310.142 1455.5 309.81C1455.41 309.469 1455.16 309.11 1454.62 309.357Z" fill="#FFA578"/>
<path fill-rule="evenodd" clip-rule="evenodd" d="M1454.13 311.36C1452.75 311.984 1452.04 312.252 1450.65 312.884C1449.33 313.482 1449.86 314.048 1450.86 313.845C1452.06 313.577 1453.24 313.202 1454.37 312.725C1455.07 312.454 1455.08 312.075 1454.98 311.744C1454.89 311.403 1454.68 311.115 1454.13 311.36Z" fill="#FFA578"/>
<path fill-rule="evenodd" clip-rule="evenodd" d="M1382.85 259.615C1382.85 259.615 1387.47 273.283 1404.52 271.542C1404.52 271.542 1402.5 253.868 1382.85 259.615Z" fill="#FE8046"/>
<path d="M968.018 326.341C961.899 325.796 957.414 324.001 941.707 324.001C926.481 324.001 924 332.581 924 332.581L953.515 337.001L1010 332.581C1000.43 332.581 995.267 329.857 986.327 328.495C977.387 327.133 974.134 326.886 968.018 326.341Z" fill="#F7F7F7"/>
<defs>
<linearGradient id="paint0_linear_108_2" x1="1428.39" y1="231.653" x2="1634.93" y2="231.653" gradientUnits="userSpaceOnUse">
<stop stop-color="#F5C825"/>
<stop offset="1" stop-color="#EB4201"/>
</linearGradient>
</defs>
</svg>
