<svg width="1205" height="552" viewBox="0 0 1205 552" fill="none" xmlns="http://www.w3.org/2000/svg">
<path fill-rule="evenodd" clip-rule="evenodd" d="M1102.45 177.74H1078.57V70H999.326V158.618H964.833V179.019H942.088V203.49H902.284V120.086H816.984V262.93H789.694V237.071H749.891V179.98H705.533V206.502H694.16V220.372L636.546 250.942V268.942H611.136V204.8H554V338H1205V113.148H1102.45V177.74Z" fill="#4497B7"/>
<path d="M1062 81H1017V144H1062V81Z" fill="#5CCFFE"/>
<path d="M891 269H868V292H891V269Z" fill="#5CCFFE"/>
<path d="M891 310H868V346H891V310Z" fill="#5CCFFE"/>
<path d="M889 144H871V235H889V144Z" fill="#5CCFFE"/>
<path d="M1052 203H1027V330H1052V203Z" fill="#5CCFFE"/>
<path d="M776 311H750V371H776V311Z" fill="#5CCFFE"/>
<path d="M851 187H828V268H851V187Z" fill="#5CCFFE"/>
<path d="M738 219H720V232H738V219Z" fill="#5CCFFE"/>
<path d="M738 255H720V268H738V255Z" fill="#5CCFFE"/>
<path d="M738 238H720V250H738V238Z" fill="#5CCFFE"/>
<path d="M599 279.067H595V287.245H599V279.067Z" fill="#5CCFFE"/>
<path d="M599 290.822H595V298.489H599V290.822Z" fill="#5CCFFE"/>
<path d="M1167 268H1141V281H1167V268Z" fill="#5CCFFE"/>
<path d="M1167 245H1141V258H1167V245Z" fill="#5CCFFE"/>
<path d="M1167 222H1141V235H1167V222Z" fill="#5CCFFE"/>
<path d="M1167 199H1141V212H1167V199Z" fill="#5CCFFE"/>
<path d="M1167 176H1141V189H1167V176Z" fill="#5CCFFE"/>
<path d="M786.73 296.097H782.229V412H786.73V296.097Z" fill="#181F79"/>
<path d="M725.377 411.999H738.406L795.257 381.641H782.229L725.377 411.999Z" fill="#5342F2"/>
<path d="M782.229 381.641L839.081 411.999H852.109L795.259 381.641H782.229Z" fill="#5342F2"/>
<path d="M799.752 296.097H786.73V412H799.752V296.097Z" fill="#5342F2"/>
<path d="M541 351H983.519L1001 161H558.484L541 351Z" fill="#B88704"/>
<path d="M750.181 346.786H745.076V363.307H750.181V346.786Z" fill="#181F79"/>
<path d="M747.632 361.608C745.374 361.609 743.208 362.121 741.611 363.032C740.013 363.942 739.114 365.178 739.111 366.466C739.115 367.755 740.014 368.99 741.611 369.9C743.209 370.811 745.374 371.323 747.632 371.324C749.889 371.323 752.053 370.81 753.649 369.899C755.245 368.989 756.143 367.754 756.145 366.466C756.143 365.178 755.245 363.943 753.649 363.033C752.053 362.122 749.889 361.61 747.632 361.608V361.608ZM747.632 368.897C746.502 368.897 745.419 368.64 744.62 368.185C743.821 367.729 743.372 367.111 743.372 366.466C743.372 365.821 743.821 365.203 744.62 364.748C745.419 364.292 746.503 364.036 747.632 364.036C748.761 364.037 749.844 364.293 750.642 364.748C751.441 365.204 751.89 365.822 751.892 366.466C751.891 367.111 751.442 367.729 750.643 368.185C749.845 368.641 748.762 368.897 747.632 368.898V368.897Z" fill="#FE8046"/>
<path d="M559 161L576.484 351H1019L1001.52 161H559Z" fill="#F5C825"/>
<path d="M573 171L588.939 345H1005L989.063 171H573Z" fill="white"/>
<path d="M572 167L574.284 192H991L988.716 167H572Z" fill="#2B1BED"/>
<path d="M699.771 196.822L711.007 319.252L712.648 319.332L701.412 196.902L699.771 196.822Z" fill="#4497B7"/>
<path d="M755.115 196.822L766.357 319.252L767.997 319.332L756.756 196.902L755.115 196.822Z" fill="#4497B7"/>
<path d="M810.466 196.822L821.702 319.252L823.343 319.332L812.107 196.902L810.466 196.822Z" fill="#4497B7"/>
<path d="M865.811 196.822L877.047 319.252L878.687 319.332L867.451 196.902L865.811 196.822Z" fill="#4497B7"/>
<path d="M921.155 196.822L932.398 319.252L934.039 319.332L922.796 196.902L921.155 196.822Z" fill="#4497B7"/>
<path d="M591.632 219.592L591.861 220.521H979.791L979.562 219.592H591.632Z" fill="#4497B7"/>
<path d="M593.959 244.938L594.188 245.867H982.115L981.886 244.938H593.959Z" fill="#4497B7"/>
<path d="M596.28 270.284L596.509 271.213H984.442L984.213 270.284H596.28Z" fill="#4497B7"/>
<path d="M598.608 295.632L598.837 296.561H986.769L986.54 295.632H598.608Z" fill="#4497B7"/>
<path d="M798.46 206H772.287C771.976 205.998 771.668 206.036 771.381 206.112C771.095 206.188 770.837 206.299 770.622 206.44C770.408 206.581 770.243 206.747 770.137 206.929C770.03 207.112 769.985 207.305 770.004 207.499C770.045 207.902 770.328 208.282 770.799 208.56C771.269 208.838 771.891 208.996 772.539 209H798.713C799.024 209.002 799.333 208.964 799.619 208.888C799.906 208.812 800.165 208.701 800.379 208.56C800.593 208.419 800.758 208.252 800.865 208.069C800.971 207.887 801.015 207.693 800.995 207.499C800.955 207.096 800.67 206.717 800.2 206.439C799.73 206.161 799.108 206.004 798.46 206V206Z" fill="#CECDD3"/>
<path d="M805.802 280H778.085C777.937 279.999 777.79 280.012 777.654 280.037C777.518 280.062 777.395 280.099 777.294 280.146C777.192 280.193 777.113 280.248 777.063 280.309C777.013 280.37 776.992 280.435 777.002 280.5C777.021 280.634 777.155 280.761 777.379 280.853C777.602 280.946 777.897 280.999 778.204 281H805.92C806.068 281.001 806.214 280.988 806.35 280.963C806.485 280.937 806.608 280.9 806.709 280.853C806.81 280.806 806.888 280.75 806.938 280.69C806.987 280.629 807.008 280.564 806.997 280.5C806.979 280.366 806.846 280.239 806.624 280.147C806.402 280.054 806.108 280.002 805.802 280Z" fill="#CECDD3"/>
<path d="M805.792 283H778.085C777.938 282.999 777.791 283.011 777.655 283.036C777.519 283.062 777.396 283.099 777.294 283.146C777.192 283.193 777.114 283.248 777.064 283.309C777.013 283.37 776.993 283.435 777.002 283.5C777.022 283.635 777.158 283.761 777.381 283.854C777.605 283.947 777.901 283.999 778.208 284H805.915C806.062 284.001 806.209 283.989 806.345 283.964C806.481 283.938 806.604 283.901 806.706 283.854C806.808 283.807 806.886 283.752 806.936 283.691C806.987 283.63 807.007 283.565 806.998 283.5C806.978 283.365 806.842 283.239 806.619 283.146C806.395 283.053 806.099 283.001 805.792 283Z" fill="#CECDD3"/>
<path d="M806.755 287H778.116C777.963 286.999 777.812 287.012 777.672 287.037C777.532 287.063 777.405 287.1 777.301 287.147C777.196 287.194 777.116 287.25 777.064 287.311C777.013 287.371 776.992 287.436 777.003 287.501C777.022 287.635 777.16 287.761 777.389 287.853C777.618 287.946 777.922 287.998 778.238 288H806.878C807.031 288.001 807.182 287.989 807.323 287.964C807.464 287.939 807.591 287.901 807.696 287.854C807.801 287.808 807.882 287.752 807.934 287.691C807.986 287.63 808.008 287.565 807.998 287.501C807.978 287.366 807.839 287.24 807.609 287.147C807.378 287.054 807.073 287.001 806.755 287V287Z" fill="#CECDD3"/>
<path d="M683.85 225H621.948C621.372 225 620.948 225.448 621.005 225.999C621.062 226.551 621.569 227 622.144 227H684.053C684.622 227 685.047 226.552 684.996 225.999C684.945 225.447 684.426 225 683.85 225Z" fill="#4497B7"/>
<path d="M641.848 230H621.955C621.375 230 620.948 230.447 621.005 231C621.063 231.553 621.573 232 622.153 232H642.045C642.625 232 643.052 231.55 642.995 231C642.937 230.45 642.428 230 641.848 230Z" fill="#4497B7"/>
<path d="M674.833 230H645.961C645.377 230 644.953 230.447 645.004 231C645.056 231.553 645.582 232 646.165 232H675.039C675.623 232 676.047 231.55 675.996 231C675.944 230.45 675.421 230 674.833 230Z" fill="#4497B7"/>
<path d="M683.85 255H621.947C621.371 255 620.953 255.447 621.004 256C621.055 256.553 621.573 257 622.149 257H684.052C684.628 257 685.052 256.553 684.995 256C684.938 255.447 684.426 255 683.85 255Z" fill="#4497B7"/>
<path d="M616.848 259H605.953C605.374 259 604.954 259.449 605.004 260.002C605.054 260.554 605.578 261 606.157 261H617.046C617.625 261 618.051 260.553 617.995 260.002C617.938 259.451 617.428 259 616.848 259Z" fill="#4497B7"/>
<path d="M641.843 259H621.955C621.374 259 620.948 259.449 621.005 260.002C621.063 260.554 621.578 261 622.151 261H642.046C642.626 261 643.047 260.553 642.996 260.002C642.945 259.451 642.422 259 641.843 259Z" fill="#4497B7"/>
<path d="M674.84 259H645.962C645.378 259 644.948 259.449 645.005 260.002C645.062 260.554 645.577 261 646.161 261H675.038C675.623 261 676.053 260.553 675.995 260.002C675.937 259.451 675.417 259 674.84 259Z" fill="#4497B7"/>
<path d="M616.843 234H605.954C605.374 234 604.948 234.447 605.005 235C605.063 235.553 605.571 236 606.151 236H617.047C617.626 236 618.047 235.552 617.996 235C617.945 234.448 617.422 234 616.843 234Z" fill="#4497B7"/>
<path d="M678.051 234H621.746C621.644 234 621.544 234.01 621.45 234.031C621.357 234.052 621.273 234.083 621.203 234.122C621.133 234.161 621.079 234.207 621.044 234.257C621.01 234.307 620.995 234.36 621.001 234.414L621.123 235.587C621.135 235.698 621.228 235.803 621.381 235.879C621.534 235.956 621.737 235.999 621.949 236H678.255C678.356 236 678.457 235.99 678.55 235.969C678.644 235.948 678.728 235.917 678.798 235.879C678.868 235.84 678.921 235.794 678.956 235.744C678.99 235.694 679.005 235.641 678.999 235.587L678.878 234.414C678.867 234.302 678.775 234.198 678.621 234.121C678.467 234.044 678.263 234.001 678.051 234V234Z" fill="#4497B7"/>
<path d="M617.848 238H606.954C606.374 238 605.948 238.671 606.005 239.5C606.063 240.33 606.572 241 607.151 241H618.051C618.625 241 619.052 240.329 618.995 239.5C618.937 238.672 618.427 238 617.848 238Z" fill="#4497B7"/>
<path d="M648.841 238H622.955C622.375 238 621.953 238.671 622.004 239.5C622.055 240.33 622.578 241 623.159 241H649.045C649.625 241 650.047 240.329 649.996 239.5C649.945 238.672 649.422 238 648.841 238Z" fill="#4497B7"/>
<path d="M661.877 238H651.927C651.364 238 650.949 238.671 651.005 239.5C651.061 240.33 651.556 241 652.119 241H662.068C662.632 241 663.046 240.329 662.996 239.5C662.946 238.672 662.439 238 661.877 238Z" fill="#4497B7"/>
<path d="M646.848 303H626.954C626.379 303 625.953 303.671 626.004 304.5C626.055 305.329 626.577 306 627.157 306H647.045C647.626 306 648.052 305.329 647.995 304.5C647.937 303.671 647.428 303 646.848 303Z" fill="#4497B7"/>
<path d="M678.874 303H650.931C650.365 303 649.949 303.671 650.005 304.5C650.061 305.329 650.558 306 651.123 306H679.069C679.635 306 680.05 305.329 679.995 304.5C679.94 303.671 679.439 303 678.874 303Z" fill="#4497B7"/>
<path d="M621.849 308H610.954C610.375 308 609.948 308.449 610.005 309.002C610.063 309.554 610.573 310 611.152 310H622.046C622.626 310 623.052 309.553 622.995 309.002C622.937 308.451 622.428 308 621.849 308Z" fill="#4497B7"/>
<path d="M683.056 308H626.747C626.645 307.999 626.544 308.01 626.45 308.031C626.356 308.052 626.271 308.083 626.201 308.122C626.131 308.16 626.077 308.207 626.043 308.257C626.009 308.307 625.995 308.361 626.002 308.414L626.11 309.589C626.125 309.7 626.218 309.803 626.371 309.879C626.524 309.956 626.727 309.999 626.938 310H683.247C683.349 310.001 683.45 309.991 683.544 309.97C683.638 309.95 683.723 309.919 683.794 309.88C683.864 309.842 683.919 309.796 683.954 309.746C683.989 309.696 684.005 309.642 683.999 309.589L683.878 308.414C683.866 308.304 683.775 308.199 683.622 308.123C683.47 308.046 683.268 308.002 683.056 308V308Z" fill="#4497B7"/>
<path d="M764.842 332H744.954C744.375 332 743.948 332.449 744.005 333.002C744.062 333.554 744.573 334 745.152 334H765.04C765.62 334 766.047 333.552 765.996 333.002C765.945 332.451 765.423 332 764.842 332Z" fill="#4497B7"/>
<path d="M740.876 332H712.931C712.365 332 711.95 332.449 712.005 333.002C712.06 333.554 712.558 334 713.124 334H741.069C741.635 334 742.05 333.552 741.995 333.002C741.94 332.451 741.438 332 740.876 332Z" fill="#4497B7"/>
<path d="M783.848 328H772.954C772.375 328 771.948 328.447 772.005 329C772.062 329.553 772.573 330 773.152 330H784.046C784.625 330 785.052 329.552 784.995 329C784.938 328.448 784.427 328 783.848 328Z" fill="#4497B7"/>
<path d="M768.051 328H711.746C711.645 328 711.544 328.01 711.451 328.031C711.358 328.052 711.273 328.083 711.204 328.121C711.134 328.16 711.08 328.206 711.045 328.256C711.01 328.306 710.995 328.359 711.001 328.412L711.123 329.587C711.136 329.698 711.228 329.802 711.381 329.879C711.535 329.956 711.738 329.999 711.949 330H768.255C768.356 330 768.457 329.989 768.55 329.968C768.643 329.948 768.727 329.917 768.797 329.878C768.866 329.839 768.92 329.794 768.955 329.744C768.99 329.694 769.005 329.641 768.999 329.587L768.878 328.412C768.866 328.301 768.774 328.197 768.62 328.12C768.466 328.043 768.263 328.001 768.051 328V328Z" fill="#4497B7"/>
<path d="M955.847 332H935.954C935.373 332 934.952 332.449 935.004 333.002C935.057 333.554 935.578 334 936.157 334H956.045C956.625 334 957.052 333.552 956.995 333.002C956.937 332.451 956.422 332 955.847 332Z" fill="#4497B7"/>
<path d="M931.84 332H902.962C902.378 332 901.948 332.449 902.005 333.002C902.062 333.554 902.577 334 903.161 334H932.038C932.623 334 933.053 333.552 932.995 333.002C932.937 332.451 932.424 332 931.84 332Z" fill="#4497B7"/>
<path d="M974.844 328H963.954C963.375 328 962.948 328.447 963.005 329C963.063 329.553 963.573 330 964.152 330H975.047C975.627 330 976.047 329.552 975.996 329C975.945 328.448 975.421 328 974.844 328Z" fill="#4497B7"/>
<path d="M959.055 328H902.745C902.644 327.999 902.543 328.01 902.45 328.031C902.356 328.051 902.272 328.082 902.202 328.121C902.132 328.159 902.078 328.205 902.044 328.255C902.009 328.306 901.995 328.359 902.002 328.412L902.116 329.587C902.13 329.698 902.223 329.802 902.376 329.878C902.529 329.955 902.732 329.998 902.943 330H959.253C959.355 330.001 959.456 329.991 959.55 329.97C959.644 329.949 959.728 329.918 959.799 329.88C959.869 329.841 959.922 329.795 959.957 329.745C959.991 329.694 960.005 329.641 959.998 329.587L959.89 328.412C959.875 328.301 959.781 328.196 959.626 328.12C959.471 328.044 959.267 328.001 959.055 328V328Z" fill="#4497B7"/>
<path d="M640.847 202H620.955C620.375 202 619.948 202.673 620.005 203.499C620.063 204.325 620.572 205 621.153 205H641.045C641.625 205 642.052 204.327 641.995 203.499C641.937 202.671 641.428 202 640.847 202Z" fill="#4497B7"/>
<path d="M673.835 202H644.962C644.378 202 643.947 202.673 644.005 203.499C644.063 204.325 644.583 205 645.168 205H674.033C674.617 205 675.047 204.327 674.996 203.499C674.944 202.671 674.418 202 673.835 202Z" fill="#4497B7"/>
<path d="M616.845 207H605.954C605.375 207 604.948 207.447 605.005 208C605.063 208.552 605.572 209 606.152 209H617.047C617.626 209 618.047 208.551 617.996 208C617.945 207.449 617.425 207 616.845 207Z" fill="#4497B7"/>
<path d="M678.051 207H621.746C621.645 207 621.544 207.01 621.451 207.031C621.358 207.052 621.273 207.083 621.204 207.121C621.134 207.16 621.08 207.206 621.045 207.256C621.01 207.306 620.995 207.359 621.001 207.412L621.123 208.588C621.135 208.699 621.227 208.803 621.38 208.88C621.534 208.957 621.737 208.999 621.949 209H678.255C678.356 209 678.457 208.99 678.55 208.969C678.643 208.948 678.727 208.917 678.797 208.879C678.867 208.84 678.921 208.794 678.955 208.744C678.99 208.694 679.005 208.641 678.999 208.588L678.878 207.412C678.866 207.301 678.774 207.197 678.62 207.12C678.466 207.043 678.263 207.001 678.051 207V207Z" fill="#4497B7"/>
<path d="M616.848 212H605.955C605.375 212 604.948 212.449 605.005 213.001C605.062 213.554 605.573 214 606.152 214H617.046C617.625 214 618.052 213.553 617.995 213.001C617.938 212.45 617.422 212 616.848 212Z" fill="#4497B7"/>
<path d="M647.84 212H621.955C621.375 212 620.953 212.449 621.004 213.001C621.055 213.554 621.578 214 622.16 214H648.045C648.625 214 649.047 213.553 648.996 213.001C648.945 212.45 648.422 212 647.84 212Z" fill="#4497B7"/>
<path d="M661.881 212H651.927C651.364 212 650.949 212.449 651.005 213.001C651.061 213.554 651.555 214 652.12 214H662.073C662.636 214 663.05 213.553 662.995 213.001C662.94 212.45 662.444 212 661.881 212Z" fill="#4497B7"/>
<path d="M646.843 279H626.954C626.374 279 625.953 279.449 626.004 280.001C626.055 280.554 626.577 281 627.157 281H647.046C647.627 281 648.047 280.553 647.996 280.001C647.945 279.45 647.423 279 646.843 279Z" fill="#4497B7"/>
<path d="M678.876 279H650.931C650.365 279 649.95 279.449 650.005 280.001C650.06 280.554 650.558 281 651.124 281H679.069C679.635 281 680.05 280.553 679.995 280.001C679.94 279.45 679.442 279 678.876 279Z" fill="#4497B7"/>
<path d="M621.848 284H610.953C610.374 284 609.954 284.448 610.004 285C610.054 285.552 610.578 286 611.157 286H622.046C622.625 286 623.051 285.553 622.995 285C622.938 284.447 622.428 284 621.848 284Z" fill="#4497B7"/>
<path d="M683.057 284H626.745C626.644 284 626.543 284.01 626.45 284.031C626.356 284.052 626.272 284.082 626.202 284.121C626.132 284.16 626.078 284.206 626.044 284.256C626.009 284.306 625.995 284.359 626.002 284.413L626.116 285.587C626.129 285.698 626.222 285.802 626.375 285.879C626.529 285.955 626.731 285.998 626.943 286H683.254C683.356 286.001 683.457 285.991 683.551 285.97C683.645 285.949 683.73 285.919 683.8 285.88C683.869 285.841 683.923 285.795 683.957 285.745C683.992 285.694 684.005 285.641 683.998 285.587L683.883 284.413C683.869 284.302 683.777 284.198 683.624 284.121C683.47 284.045 683.268 284.002 683.057 284V284Z" fill="#4497B7"/>
<path d="M622.849 288H611.953C611.374 288 610.953 288.447 611.004 288.998C611.055 289.549 611.578 290 612.157 290H623.046C623.625 290 624.052 289.551 623.995 288.998C623.937 288.446 623.429 288 622.849 288Z" fill="#4497B7"/>
<path d="M652.891 288H627.922C627.362 288 626.95 288.447 627.005 288.998C627.059 289.549 627.553 290 628.113 290H653.078C653.638 290 654.05 289.551 653.995 288.998C653.941 288.446 653.448 288 652.891 288Z" fill="#4497B7"/>
<path d="M666.882 288H656.926C656.363 288 655.954 288.447 656.004 288.998C656.054 289.549 656.561 290 657.123 290H667.073C667.636 290 668.051 289.551 667.995 288.998C667.939 288.446 667.445 288 666.882 288Z" fill="#4497B7"/>
<path d="M617.848 263H606.953C606.374 263 605.953 263.673 606.004 264.5C606.055 265.326 606.577 266 607.156 266H618.046C618.625 266 619.052 265.329 618.995 264.5C618.937 263.671 618.427 263 617.848 263Z" fill="#4497B7"/>
<path d="M648.841 263H622.956C622.376 263 621.947 263.673 622.005 264.5C622.063 265.326 622.579 266 623.154 266H649.045C649.62 266 650.047 265.329 649.996 264.5C649.945 263.671 649.422 263 648.841 263Z" fill="#4497B7"/>
<path d="M661.881 263H651.927C651.363 263 650.954 263.673 651.004 264.5C651.054 265.326 651.562 266 652.124 266H662.073C662.636 266 663.051 265.329 662.995 264.5C662.939 263.671 662.444 263 661.881 263Z" fill="#4497B7"/>
<path d="M695.982 251H664.824C664.712 250.999 664.601 251.011 664.498 251.035C664.395 251.058 664.301 251.093 664.224 251.136C664.147 251.18 664.088 251.231 664.049 251.288C664.011 251.344 663.995 251.404 664.002 251.464L664.108 252.534C664.123 252.66 664.226 252.777 664.395 252.864C664.565 252.95 664.79 252.999 665.024 253H696.176C696.288 253.001 696.399 252.989 696.503 252.965C696.606 252.942 696.699 252.907 696.776 252.863C696.854 252.82 696.913 252.768 696.951 252.711C696.99 252.655 697.005 252.595 696.998 252.534L696.892 251.464C696.879 251.34 696.777 251.222 696.609 251.136C696.44 251.05 696.216 251.001 695.982 251V251Z" fill="#4497B7"/>
<path d="M647.845 251H621.956C621.376 251 620.947 251.447 621.005 251.998C621.063 252.549 621.573 253 622.155 253H648.044C648.624 253 649.053 252.553 648.995 251.998C648.937 251.444 648.427 251 647.845 251Z" fill="#4497B7"/>
<path d="M660.875 251H650.927C650.364 251 649.949 251.447 650.005 251.998C650.061 252.549 650.561 253 651.125 253H661.073C661.636 253 662.05 252.553 661.995 251.998C661.94 251.444 661.439 251 660.875 251Z" fill="#4497B7"/>
<path d="M730.918 262.622L729.912 263.251C729.582 263.459 729.602 263.388 729.421 263.433C729.293 263.442 729.164 263.433 729.044 263.407C728.924 263.381 728.819 263.338 728.737 263.283L720.951 257.434C720.862 257.366 720.765 257.302 720.661 257.241C720.099 256.864 719.293 256.621 718.413 256.563C717.533 256.505 716.647 256.636 715.939 256.93C715.634 257.099 715.394 257.3 715.233 257.521C715.072 257.743 714.993 257.979 715.001 258.217C715.008 258.456 715.103 258.691 715.278 258.908C715.454 259.126 715.707 259.322 716.022 259.486L720.764 262.321L723.138 263.737L724.325 264.447L724.958 264.823C725.313 265.04 725.714 265.233 726.15 265.399C726.947 265.72 727.883 265.92 728.864 265.981C729.845 266.041 730.838 265.959 731.744 265.743C732.483 265.54 733.106 265.229 733.543 264.843L734.375 264.137L737.698 261.31L751 250L734.926 260.098L730.918 262.622Z" fill="#FE8046"/>
<path d="M846.479 286.62L845.505 287.252C845.174 287.46 845.205 287.387 845.029 287.434C844.905 287.443 844.778 287.434 844.661 287.408C844.545 287.381 844.442 287.338 844.364 287.283L836.793 281.435C836.712 281.374 836.605 281.298 836.511 281.24C835.962 280.862 835.177 280.619 834.319 280.561C833.461 280.503 832.597 280.635 831.907 280.929C831.612 281.099 831.38 281.3 831.224 281.522C831.068 281.743 830.992 281.98 831.001 282.218C831.009 282.456 831.101 282.691 831.272 282.909C831.442 283.127 831.688 283.323 831.995 283.487L836.606 286.321L838.908 287.739L840.062 288.447L840.676 288.825C841.025 289.041 841.416 289.234 841.843 289.399C842.617 289.72 843.525 289.92 844.479 289.981C845.432 290.041 846.396 289.959 847.276 289.743C847.995 289.54 848.603 289.229 849.032 288.845L849.841 288.136L853.072 285.31L866 274L850.381 284.099L846.479 286.62Z" fill="#FE8046"/>
<path d="M948.912 236.408L947.912 237.08C947.582 237.3 947.602 237.223 947.421 237.273C947.293 237.283 947.163 237.273 947.043 237.245C946.923 237.217 946.818 237.171 946.738 237.112L938.952 230.899C938.862 230.827 938.765 230.758 938.661 230.693C938.099 230.293 937.294 230.035 936.414 229.973C935.534 229.912 934.647 230.051 933.939 230.362C933.634 230.542 933.394 230.756 933.233 230.991C933.072 231.226 932.993 231.477 933.001 231.731C933.008 231.984 933.103 232.234 933.278 232.465C933.454 232.697 933.707 232.905 934.023 233.079L938.764 236.092L941.138 237.597L942.325 238.351L942.958 238.751C943.312 238.982 943.712 239.186 944.15 239.36C944.947 239.701 945.882 239.915 946.864 239.979C947.845 240.044 948.838 239.957 949.744 239.728C950.483 239.512 951.105 239.181 951.543 238.772L952.376 238.021L955.705 235.015L969 223L952.926 233.729L948.912 236.408Z" fill="#FE8046"/>
<path d="M881.815 289.836L909.145 293.138L913.526 277.727L886.19 274.425L881.815 289.836Z" fill="#4497B7"/>
<path d="M898.494 277.088C898.293 277.086 898.093 277.107 897.908 277.151C897.722 277.195 897.555 277.261 897.416 277.344C897.277 277.426 897.169 277.524 897.1 277.632C897.03 277.74 897 277.854 897.012 277.969C897.036 278.207 897.217 278.432 897.519 278.597C897.821 278.763 898.221 278.857 898.64 278.862C898.841 278.863 899.041 278.841 899.226 278.797C899.411 278.752 899.579 278.687 899.718 278.604C899.857 278.521 899.964 278.422 900.034 278.315C900.103 278.207 900.133 278.092 900.121 277.978C900.097 277.74 899.916 277.516 899.614 277.35C899.312 277.185 898.912 277.091 898.494 277.088Z" fill="#5342F2"/>
<path d="M766.81 226.493L776.85 241.902L802.97 238.6L792.93 223.191L766.81 226.493Z" fill="#FE8046"/>
<path d="M781.605 225.853C781.41 225.849 781.215 225.871 781.036 225.917C780.858 225.963 780.7 226.031 780.574 226.117C780.449 226.203 780.359 226.304 780.312 226.412C780.265 226.521 780.262 226.634 780.303 226.743C780.38 226.986 780.602 227.207 780.931 227.368C781.26 227.528 781.676 227.619 782.109 227.625C782.305 227.628 782.499 227.606 782.677 227.56C782.856 227.514 783.013 227.445 783.139 227.36C783.264 227.274 783.354 227.173 783.401 227.065C783.448 226.956 783.452 226.843 783.411 226.734C783.333 226.491 783.111 226.271 782.783 226.11C782.454 225.95 782.038 225.859 781.605 225.853V225.853Z" fill="#5342F2"/>
<path d="M619.661 176.945H593.743C593.284 176.943 592.829 176.994 592.407 177.097C591.984 177.199 591.603 177.35 591.287 177.541C590.972 177.731 590.728 177.956 590.572 178.203C590.416 178.449 590.35 178.711 590.379 178.973C590.437 179.518 590.855 180.03 591.549 180.406C592.242 180.783 593.16 180.995 594.117 181.001H620.034C620.493 181.003 620.949 180.952 621.371 180.85C621.794 180.747 622.175 180.596 622.491 180.406C622.807 180.216 623.05 179.99 623.206 179.744C623.363 179.498 623.428 179.235 623.398 178.974C623.34 178.429 622.922 177.917 622.229 177.54C621.535 177.164 620.618 176.951 619.661 176.945V176.945Z" fill="white"/>
<path d="M669.2 176.945H643.282C642.822 176.942 642.367 176.993 641.943 177.096C641.52 177.198 641.138 177.349 640.822 177.539C640.506 177.73 640.262 177.955 640.105 178.202C639.949 178.449 639.883 178.711 639.913 178.973C639.975 179.517 640.394 180.028 641.087 180.404C641.78 180.779 642.695 180.992 643.651 180.999H669.569C670.028 181.002 670.484 180.951 670.907 180.849C671.331 180.747 671.713 180.596 672.029 180.406C672.345 180.216 672.589 179.99 672.746 179.744C672.903 179.497 672.968 179.235 672.939 178.973C672.879 178.428 672.461 177.916 671.767 177.54C671.073 177.164 670.156 176.951 669.2 176.945V176.945Z" fill="white"/>
<path d="M718.739 176.945H692.815C692.356 176.942 691.901 176.994 691.478 177.096C691.055 177.199 690.674 177.35 690.358 177.54C690.043 177.731 689.799 177.956 689.643 178.203C689.487 178.449 689.422 178.711 689.451 178.973C689.509 179.518 689.928 180.031 690.622 180.408C691.317 180.784 692.236 180.996 693.194 181.001H719.11C719.57 181.004 720.025 180.952 720.448 180.85C720.871 180.748 721.252 180.597 721.568 180.407C721.884 180.216 722.128 179.991 722.284 179.744C722.44 179.498 722.505 179.236 722.475 178.974C722.417 178.429 721.999 177.917 721.306 177.54C720.613 177.164 719.696 176.951 718.739 176.945V176.945Z" fill="white"/>
<path d="M768.272 176.945H742.353C741.893 176.942 741.438 176.993 741.014 177.095C740.591 177.197 740.209 177.349 739.893 177.539C739.577 177.729 739.334 177.955 739.178 178.202C739.023 178.449 738.958 178.711 738.989 178.973C739.047 179.517 739.464 180.029 740.157 180.405C740.849 180.781 741.765 180.993 742.721 181H768.645C769.104 181.002 769.559 180.951 769.982 180.849C770.405 180.746 770.786 180.595 771.102 180.405C771.418 180.215 771.661 179.989 771.817 179.743C771.973 179.497 772.039 179.234 772.009 178.973C771.951 178.428 771.533 177.916 770.839 177.54C770.146 177.163 769.228 176.951 768.272 176.945V176.945Z" fill="white"/>
<path d="M817.811 176.945H791.894C791.434 176.942 790.978 176.993 790.555 177.096C790.132 177.198 789.75 177.349 789.434 177.539C789.117 177.73 788.873 177.955 788.716 178.202C788.56 178.449 788.494 178.711 788.523 178.973V178.973C788.583 179.518 789.002 180.029 789.695 180.405C790.389 180.781 791.306 180.994 792.263 180.999H818.18C818.64 181.003 819.096 180.952 819.519 180.85C819.942 180.748 820.324 180.597 820.64 180.406C820.956 180.216 821.199 179.99 821.355 179.744C821.511 179.497 821.575 179.234 821.545 178.973C821.486 178.428 821.069 177.916 820.376 177.54C819.684 177.164 818.768 176.951 817.811 176.945V176.945Z" fill="white"/>
<path d="M867.343 176.945H841.43C840.971 176.942 840.516 176.994 840.093 177.096C839.67 177.199 839.289 177.35 838.973 177.54C838.657 177.731 838.414 177.956 838.258 178.203C838.102 178.449 838.036 178.711 838.066 178.973C838.124 179.518 838.543 180.03 839.236 180.406C839.93 180.782 840.848 180.994 841.804 180.999H867.722C868.181 181.002 868.636 180.951 869.059 180.848C869.482 180.746 869.863 180.595 870.178 180.405C870.494 180.214 870.738 179.989 870.894 179.743C871.05 179.496 871.115 179.234 871.086 178.973V178.973C871.027 178.427 870.608 177.915 869.914 177.539C869.219 177.162 868.301 176.95 867.343 176.945V176.945Z" fill="white"/>
<path d="M916.882 176.945H890.966C890.506 176.942 890.05 176.993 889.627 177.096C889.203 177.198 888.822 177.349 888.505 177.539C888.189 177.73 887.945 177.955 887.788 178.202C887.632 178.449 887.566 178.711 887.595 178.973C887.657 179.517 888.076 180.028 888.77 180.404C889.463 180.78 890.379 180.992 891.335 180.999H917.251C917.711 181.003 918.167 180.951 918.59 180.849C919.013 180.747 919.395 180.596 919.712 180.406C920.028 180.216 920.272 179.99 920.429 179.744C920.586 179.497 920.651 179.235 920.622 178.973C920.562 178.428 920.143 177.916 919.45 177.54C918.756 177.164 917.839 176.951 916.882 176.945V176.945Z" fill="white"/>
<path d="M975.48 175H939.174C938.742 174.998 938.314 175.036 937.916 175.112C937.518 175.188 937.16 175.3 936.862 175.44C936.565 175.581 936.336 175.748 936.188 175.931C936.041 176.113 935.979 176.307 936.006 176.501V176.501C936.063 176.904 936.457 177.283 937.108 177.561C937.76 177.839 938.622 177.995 939.52 178H975.826C976.258 178.002 976.686 177.965 977.084 177.889C977.482 177.814 977.841 177.702 978.139 177.562C978.436 177.421 978.666 177.254 978.813 177.072C978.96 176.889 979.021 176.695 978.993 176.501V176.501C978.938 176.098 978.545 175.719 977.893 175.44C977.241 175.162 976.379 175.005 975.48 175V175Z" fill="#CECDD3"/>
<path d="M966.352 182H938.484C938.282 181.998 938.081 182.023 937.895 182.074C937.708 182.124 937.54 182.199 937.401 182.293C937.262 182.387 937.155 182.498 937.086 182.62C937.018 182.742 936.99 182.871 937.003 183C937.029 183.269 937.213 183.522 937.518 183.707C937.823 183.892 938.227 183.997 938.648 184H966.516C966.718 184.001 966.919 183.976 967.105 183.925C967.291 183.875 967.458 183.8 967.597 183.707C967.736 183.613 967.843 183.502 967.912 183.38C967.981 183.259 968.01 183.129 967.997 183C967.971 182.731 967.787 182.479 967.482 182.293C967.177 182.108 966.773 182.003 966.352 182V182Z" fill="#CECDD3"/>
<path d="M823.813 255.984L824.99 268.832H831.793L830.61 255.984H823.813Z" fill="#5342F2"/>
<path d="M835.64 257.663L836.663 268.832H843.467L842.443 257.663H835.64Z" fill="#CECDD3"/>
<path d="M846.888 252.983L848.344 268.835H855.142L853.692 252.983H846.888Z" fill="#3EC7C8"/>
<path d="M858.009 246.906L860.019 268.831H866.823L864.806 246.906H858.009Z" fill="#FE8046"/>
<path d="M722.993 275.388C720.914 276.515 719.328 277.906 718.365 279.447C717.402 280.989 717.087 282.638 717.447 284.262C718.023 287.209 720.563 289.916 724.542 291.823C728.521 293.73 733.633 294.691 738.819 294.506L736.745 283.462L722.993 275.388Z" fill="#5CCFFE"/>
<path d="M738.819 294.507C742.643 294.377 746.296 293.559 749.253 292.17L736.746 283.462L738.819 294.507Z" fill="#FE8046"/>
<path d="M742.698 273.053L736.746 283.462L749.253 292.169C752.074 290.904 754.156 289.18 755.222 287.224C756.75 284.397 756.3 281.341 753.965 278.699C751.629 276.056 747.591 274.033 742.698 273.053V273.053Z" fill="#F5C16E"/>
<path d="M722.993 275.388L736.745 283.462L742.697 273.053C739.37 272.309 735.735 272.133 732.236 272.548C728.738 272.963 725.526 273.949 722.993 275.388V275.388Z" fill="#5342F2"/>
<path d="M685.337 323.736L685.663 326.19C687.791 326.221 689.825 326.698 691.376 327.53C692.928 328.362 693.888 329.49 694.075 330.7C694.167 331.275 694.048 331.854 693.727 332.402C693.406 332.95 692.89 333.453 692.21 333.881C691.531 334.309 690.703 334.652 689.78 334.888C688.857 335.124 687.858 335.249 686.846 335.254L687.171 337.71C688.736 337.707 690.283 337.518 691.713 337.156C693.143 336.794 694.426 336.266 695.48 335.606C696.533 334.946 697.335 334.168 697.833 333.321C698.331 332.475 698.516 331.579 698.375 330.689C698.089 328.817 696.599 327.071 694.192 325.787C691.785 324.503 688.631 323.773 685.337 323.736V323.736Z" fill="#F5C16E"/>
<path d="M686.724 335.256C684.574 335.243 682.509 334.774 680.931 333.94C679.354 333.106 678.377 331.967 678.191 330.744C678.098 330.163 678.22 329.578 678.547 329.025C678.875 328.473 679.403 327.966 680.095 327.537C680.788 327.108 681.63 326.766 682.568 326.534C683.506 326.302 684.519 326.185 685.541 326.19H685.662L685.336 323.737C685.298 323.737 685.253 323.737 685.215 323.737C683.64 323.729 682.08 323.911 680.635 324.268C679.19 324.626 677.892 325.152 676.825 325.814C675.757 326.475 674.945 327.256 674.439 328.107C673.933 328.958 673.744 329.861 673.886 330.756C674.177 332.64 675.685 334.396 678.118 335.681C680.55 336.966 683.733 337.69 687.048 337.711C687.086 337.711 687.124 337.711 687.169 337.711L686.843 335.255C686.806 335.254 686.768 335.256 686.724 335.256Z" fill="#5CCFFE"/>
<path d="M655.754 323.738L656.053 326.194C658.157 326.248 660.155 326.738 661.672 327.571C663.19 328.405 664.124 329.525 664.3 330.722C664.387 331.304 664.26 331.889 663.926 332.44C663.593 332.992 663.061 333.497 662.364 333.924C661.667 334.351 660.822 334.69 659.882 334.92C658.942 335.149 657.928 335.263 656.906 335.256C654.756 335.237 652.696 334.762 651.125 333.924C649.555 333.086 648.588 331.945 648.411 330.722C648.398 330.66 648.398 330.599 648.391 330.534H644.087C644.093 330.595 644.099 330.66 644.106 330.722C644.38 332.608 645.873 334.368 648.295 335.659C650.718 336.951 653.895 337.683 657.211 337.712C658.786 337.723 660.348 337.547 661.797 337.193C663.245 336.839 664.548 336.316 665.62 335.658C666.693 334.999 667.512 334.22 668.026 333.37C668.539 332.52 668.734 331.618 668.6 330.722C668.328 328.863 666.871 327.125 664.503 325.837C662.136 324.55 659.023 323.803 655.754 323.738Z" fill="#F7F7F7"/>
<path d="M655.503 323.733C653.955 323.722 652.421 323.892 650.994 324.234C649.567 324.575 648.278 325.081 647.207 325.718C646.137 326.356 645.308 327.113 644.772 327.941C644.235 328.769 644.003 329.651 644.09 330.533H648.394C648.353 329.966 648.515 329.4 648.87 328.871C649.225 328.341 649.766 327.858 650.46 327.451C651.153 327.045 651.984 326.723 652.903 326.506C653.822 326.289 654.808 326.182 655.802 326.19C655.885 326.19 655.967 326.19 656.05 326.194L655.751 323.737C655.669 323.736 655.585 323.733 655.503 323.733Z" fill="#5CCFFE"/>
<path d="M625.695 323.736C624.129 323.725 622.576 323.899 621.135 324.249C619.693 324.598 618.395 325.115 617.323 325.766C616.251 326.417 615.428 327.189 614.906 328.031C614.385 328.874 614.176 329.769 614.294 330.66H618.598C618.527 330.084 618.665 329.505 619.006 328.961C619.346 328.417 619.881 327.919 620.576 327.499C621.271 327.079 622.112 326.746 623.044 326.52C623.977 326.295 624.981 326.183 625.994 326.19C626.045 326.19 626.096 326.194 626.146 326.194L625.847 323.738L625.695 323.736Z" fill="#5CCFFE"/>
<path d="M625.847 323.738L626.146 326.194C628.268 326.234 630.291 326.718 631.831 327.553C633.37 328.388 634.318 329.517 634.495 330.724C634.582 331.305 634.455 331.89 634.122 332.441C633.789 332.993 633.257 333.498 632.561 333.925C631.865 334.352 631.02 334.691 630.081 334.921C629.141 335.15 628.128 335.265 627.106 335.257C624.956 335.238 622.895 334.764 621.324 333.926C619.752 333.088 618.783 331.947 618.605 330.724C618.599 330.704 618.597 330.683 618.598 330.662H614.294C614.3 330.683 614.302 330.704 614.301 330.724C614.575 332.61 616.069 334.369 618.491 335.661C620.913 336.953 624.091 337.685 627.406 337.714C628.982 337.726 630.544 337.549 631.993 337.196C633.442 336.842 634.746 336.319 635.819 335.661C636.892 335.002 637.712 334.223 638.226 333.373C638.739 332.522 638.935 331.62 638.8 330.724C638.526 328.854 637.053 327.108 634.663 325.819C632.273 324.53 629.135 323.789 625.847 323.738V323.738Z" fill="#5342F2"/>
<path d="M893.185 197.467C891.175 197.429 889.173 197.631 887.309 198.061C885.445 198.492 883.759 199.14 882.361 199.965C880.964 200.79 879.884 201.773 879.194 202.851C878.503 203.928 878.215 205.076 878.35 206.221C878.591 208.269 879.96 210.221 882.261 211.799C884.561 213.377 887.677 214.5 891.162 215.007L895.131 218.63L898.436 215.08C901.79 214.658 904.767 213.564 906.827 211.996C908.886 210.428 909.891 208.49 909.659 206.535C909.379 204.125 907.537 201.862 904.491 200.185C901.445 198.509 897.415 197.54 893.185 197.467V197.467ZM894.45 211.237C892.143 211.198 889.945 210.67 888.283 209.755C886.622 208.841 885.617 207.607 885.465 206.293C885.391 205.668 885.548 205.041 885.925 204.453C886.302 203.866 886.891 203.329 887.654 202.879C888.416 202.429 889.336 202.076 890.353 201.841C891.37 201.606 892.463 201.496 893.559 201.517C895.866 201.557 898.065 202.086 899.726 203C901.387 203.914 902.392 205.149 902.545 206.463C902.618 207.087 902.46 207.714 902.083 208.301C901.706 208.889 901.117 209.425 900.354 209.875C899.592 210.325 898.672 210.679 897.655 210.913C896.638 211.148 895.546 211.258 894.45 211.237V211.237Z" fill="#CECDD3"/>
<path d="M893.193 197.469L893.561 201.518C895.084 201.595 896.569 201.835 897.937 202.225C898.959 202.557 899.856 203.002 900.575 203.533C901.985 204.531 902.682 205.796 902.528 207.074C902.07 210.2 896.945 211.78 891.846 210.98C891.501 210.926 891.166 210.851 890.847 210.759C890.847 210.759 889.119 213.843 888.686 214.53C889.608 214.753 891.369 215.195 891.369 215.195C891.369 215.195 894.332 217.903 895.134 218.63C895.693 218.028 898.439 215.08 898.439 215.08C901.153 214.75 903.636 213.972 905.579 212.842C907.522 211.711 908.838 210.28 909.363 208.725C911.357 202.929 903.269 197.57 893.193 197.469Z" fill="#2B1BED"/>
<path d="M948.681 247.898L950.5 257.805L934.54 260.949C936.033 262.953 938.506 264.668 941.663 265.891C944.821 267.113 948.529 267.79 952.344 267.841C954.57 267.868 956.781 267.62 958.825 267.114C960.868 266.608 962.695 265.855 964.18 264.908C965.665 263.961 966.774 262.842 967.43 261.627C968.086 260.413 968.273 259.131 967.979 257.871C967.405 255.162 965.138 252.661 961.593 250.829C958.048 248.997 953.463 247.956 948.681 247.898V247.898Z" fill="#CECDD3"/>
<path d="M873.034 318.884C863.992 318.884 863.134 334.364 853.901 334.364C843.709 334.364 839.671 323.857 830.153 323.857C819.546 323.857 812.526 334.673 812.215 339.132H890.589C889.669 334.514 881.23 318.884 873.034 318.884Z" fill="#5342F2"/>
<path d="M878.579 328.696C871.801 328.696 871.309 338.479 869.105 332.5C868.762 331.568 860.343 313.676 852.458 313.676C844.338 313.676 843.868 330.209 843.271 331.305C840.783 335.844 834.451 333.534 831.837 331.704L831.825 331.709C827.985 329.01 824.099 325.351 819.305 327.172C814.301 329.072 812.437 336.218 811.878 339.123H890.589C888.771 334.347 881.908 328.696 878.579 328.696Z" fill="#FE8046"/>
<path d="M881.32 332.592C876.023 332.592 875.52 338.098 870.777 338.087C865.436 338.077 859.142 326.034 854.065 325.846C848.205 325.628 850.05 337.931 841.227 337.911C831.95 337.888 833.044 331.724 821.446 332.065C816.658 332.206 813.529 336.745 812.213 339.129H890.589C890.047 337.037 886.114 332.592 881.32 332.592Z" fill="#F5C825"/>
<path d="M710.944 202.891L705.565 209.125H708.701L709.514 218.014H715.142L714.328 209.125H717.457L710.944 202.891Z" fill="#5CCFFE"/>
<path d="M722.44 200.047L717.068 206.28H720.197L721.282 218.014H726.903L725.829 206.28H728.958L722.44 200.047Z" fill="#FE8046"/>
<path d="M733.968 197.489L728.595 203.724H731.73L733.04 218.013H738.661L737.352 203.724H740.487L733.968 197.489Z" fill="#5342F2"/>
<path d="M745.465 194.622L740.092 200.856H743.22L744.797 218.014H750.425L748.848 200.856H751.983L745.465 194.622Z" fill="#F5C16E"/>
<path fill-rule="evenodd" clip-rule="evenodd" d="M1021.83 255.154C1016.69 256.969 1011.94 260.257 1008.8 262.971C1006.95 264.577 1003.02 267.672 1003 269.256C1002.99 270.723 1006.41 271.446 1008.55 269.897C1009.26 270.757 1012.28 271.309 1013.64 270.352C1015.12 271.216 1018.47 271.216 1019.77 270.352C1021.92 271.397 1024.5 271.026 1026.45 269.207C1028.53 267.265 1031.78 265.302 1037.58 260.119C1038.54 259.258 1041.07 257.799 1042 257.029C1036.84 255.254 1031.93 253.238 1027.32 251C1026.2 251.9 1024.49 254.208 1021.83 255.154Z" fill="#FFA578"/>
<path fill-rule="evenodd" clip-rule="evenodd" d="M1028.31 257.733C1026.32 256.638 1023.18 256.848 1020.81 257.846C1015.28 260.179 1012.4 263.946 1008 266.941C1010.29 266.857 1012.59 266.741 1014.93 266.583C1016.91 266.443 1018.93 266.591 1020.78 267.014C1022.64 267.436 1024.28 268.119 1025.55 269C1025.7 268.893 1025.85 268.783 1025.98 268.668C1027.64 267.16 1030.09 265.612 1034 262.434C1033.54 262.1 1033.07 261.768 1032.62 261.426C1031 260.179 1030.14 258.735 1028.31 257.733Z" fill="#E68969"/>
<path d="M1069.73 181.986C1062.83 191.938 1065.52 218.873 1065.49 224.006C1065.45 230.863 1085.93 229.398 1089.65 227.014C1094.53 223.89 1099.33 216.354 1101.15 203.677C1104.37 181.299 1102.41 167 1102.41 167C1102.41 167 1077.17 171.242 1069.73 181.986Z" fill="#FE8046"/>
<path d="M1073.3 186.345C1071.49 196.204 1078.54 203.171 1075.58 216.11C1074.41 221.241 1084.62 227 1089.53 227C1094.52 227 1099.37 216.142 1101.21 203.23C1104.48 180.439 1103.97 168 1103.97 168C1103.97 168 1075.96 171.795 1073.3 186.345Z" fill="#EB4201"/>
<path d="M1072.43 214.497C1065.06 216.442 1059.15 223.516 1054.77 227.709C1047.86 234.32 1023 252.736 1023 252.736C1029.16 255.401 1035.62 257.827 1042.35 260C1042.35 260 1075.85 237.545 1087.01 229.353C1103.93 216.941 1080.45 212.385 1072.43 214.497Z" fill="#FE8046"/>
<path d="M1077.86 214.099C1069.94 221.96 1070.67 231.379 1057.23 242.559C1052.8 246.232 1037.12 253.332 1034 257.06C1036.48 257.974 1039.31 258.973 1042.45 260C1042.45 260 1075.71 237.584 1086.8 229.407C1100.53 219.273 1088.7 213.136 1077.86 214.099Z" fill="#EB4201"/>
<path d="M1181 385.787C1180.85 385.217 1161 382.058 1160.59 385.804C1160.24 389.005 1161.74 393.959 1156.74 396.5C1151.02 399.418 1129.8 405.598 1120.09 406.399C1119.6 407.206 1121.27 407.881 1122.71 408.154C1129.89 409.52 1137.71 408.925 1145.25 408.485C1153.99 407.973 1162.76 407.692 1171.55 407.642C1175.46 407.619 1180.1 407.423 1182.09 405.534C1183.56 404.124 1182.89 402.352 1182.54 400.725C1181.49 395.771 1182.25 390.726 1181 385.787Z" fill="#FFA578"/>
<path d="M1180.98 385.625C1180.91 385.339 1176.17 384.425 1171.26 384C1171.58 384.363 1171.92 384.715 1172.19 385.092C1180.07 396.129 1163.17 404.685 1147 409C1155.14 408.541 1163.32 408.266 1171.5 408.218C1175.43 408.194 1180.09 407.992 1182.08 406.038C1183.57 404.581 1182.89 402.75 1182.54 401.068C1181.48 395.947 1182.25 390.731 1180.98 385.625Z" fill="#E68969"/>
<path d="M1182.39 398.111C1179.94 397.039 1164.37 404.101 1146.5 404.101C1146.5 402.711 1144.25 400.35 1141.3 400.95C1133.45 402.547 1119.62 405.445 1118.07 405.825C1113.06 407.057 1115.03 412 1117.99 412H1145.72C1151 412 1159.42 409.153 1167.92 409.153C1177.42 409.153 1180.22 408.967 1181.4 408.655C1190.39 406.283 1186.9 400.087 1182.39 398.111Z" fill="#FE8046"/>
<path d="M1167.19 405.994C1160.87 406.185 1140.99 407.582 1137.63 408.108C1132.78 408.868 1127.67 408.877 1122.81 408.134C1120.58 407.782 1118.47 407.222 1116.56 406.474C1113.55 408.216 1115.37 412 1117.99 412H1145.72C1151.01 412 1159.43 409.181 1167.94 409.181C1177.44 409.181 1180.24 408.997 1181.42 408.688C1188.51 406.835 1187.81 402.654 1185 400C1183.13 401.786 1180.52 403.27 1177.41 404.318C1174.3 405.365 1170.79 405.942 1167.19 405.994Z" fill="#181F79"/>
<path d="M1156 390H1173.57L1178 384L1157.22 387.186C1157.66 388.311 1156 390 1156 390Z" fill="#181F79"/>
<path d="M1032.92 382.83C1030.18 385.698 1027.75 390.645 1021.4 391.745C1014.12 393.012 990.652 393.424 981.45 391.742C980.401 392.362 981.375 393.406 982.443 394.017C987.761 397.068 995.135 398.469 1002.14 399.943C1010.26 401.651 1018.23 403.58 1026.06 405.73C1029.54 406.683 1033.79 407.658 1036.98 406.409C1039.36 405.475 1040.1 403.672 1041.03 402.085C1043.86 397.248 1048.37 392.78 1051 387.905C1051.3 387.343 1036.13 379.473 1032.92 382.83Z" fill="#FFA578"/>
<path d="M1043.65 384C1043.66 384.404 1043.7 384.802 1043.66 385.208C1042.5 397.042 1021.38 400.489 1004 400.328C1011.5 401.944 1018.89 403.733 1026.12 405.728C1029.59 406.682 1033.83 407.659 1037.01 406.408C1039.39 405.473 1040.13 403.666 1041.06 402.077C1043.87 397.231 1048.37 392.755 1051 387.872C1051.15 387.597 1047.64 385.597 1043.65 384Z" fill="#E68969"/>
<path d="M1006.44 396.48C1007.45 395.274 1007.17 392.672 1004.1 392.469C995.917 391.93 981.447 391.053 979.785 391.004C974.41 390.843 972.545 395.618 975.191 396.344C977.386 396.949 991.83 400.918 999.953 403.149C1004.67 404.447 1014.27 404.036 1021.86 406.122C1030.34 408.451 1032.98 408.977 1034.26 408.998C1044.03 409.14 1045.45 402.906 1042.86 400.081C1041.46 398.554 1022.39 400.864 1006.44 396.48Z" fill="#FE8046"/>
<path d="M1023.59 403.1C1017.8 401.704 999.007 398.022 995.616 397.657C990.721 397.128 986.152 395.872 982.362 394.013C980.634 393.152 979.163 392.134 978.006 391C974.03 391.796 972.862 395.593 975.188 396.237L999.968 403.1C1004.69 404.409 1014.3 403.995 1021.89 406.099C1030.38 408.448 1033.02 408.979 1034.3 408.998C1042 409.112 1044.47 405.244 1043.93 402.198C1040.94 403.316 1037.51 403.985 1033.96 404.142C1030.41 404.3 1026.84 403.941 1023.59 403.1V403.1Z" fill="#181F79"/>
<path d="M1017 407.499L1032.38 412L1041 407.145L1020.28 405C1019.79 406.24 1017 407.499 1017 407.499Z" fill="#181F79"/>
<path d="M1088.69 236C1074.38 264.607 1035.88 366.242 1023 387.97C1027.94 393.074 1040.04 395.83 1051.38 394.778C1059.3 387.131 1093.12 333.081 1102.08 317.632C1115.25 294.906 1132.03 274.911 1146 247.131C1146.52 246.093 1103.86 236.86 1088.69 236Z" fill="#F5C825"/>
<path d="M1077.91 261.405C1075.09 268.577 1099.89 271.068 1093.28 284.703C1087.42 296.781 1093.94 297.043 1093.97 305.818C1093.99 312.503 1090.93 319.852 1084.26 325.626C1077.18 331.758 1070.27 335.681 1068.52 343.282C1066.83 350.682 1061.01 361.083 1058.2 368.429C1053.18 381.508 1037.23 379.3 1028 391.545C1031.25 392.942 1034.96 393.949 1038.92 394.503C1042.88 395.058 1046.99 395.149 1051.01 394.771C1058.96 387.119 1092.91 333.027 1101.91 317.567C1115.13 294.823 1131.98 274.814 1146 247.012C1146.27 246.473 1091.2 264.063 1077.91 261.405Z" fill="#B88704"/>
<path d="M1173.78 249.975C1161.94 248.742 1107.15 241.287 1101.41 247.342C1092.77 256.463 1102.88 257.635 1106.13 268.411C1116.21 301.84 1150.32 384.063 1155.43 393.958C1165.71 396.242 1175.79 394.21 1183 393.178C1181.34 367.367 1173 346.922 1171.56 324.551C1169.85 298.024 1175.1 270.354 1173.78 249.975Z" fill="#F5C825"/>
<path d="M1173.77 250.511C1169.89 250.108 1152.84 249.042 1143 248C1146.87 251.007 1149.68 263.155 1148.53 275.421C1147.42 287.258 1157.1 287.168 1157.1 296.905C1157.1 312.036 1161.33 321.828 1161.17 326.272C1160.98 331.28 1159.64 340.179 1162.08 351.65C1163.36 357.724 1169.05 369.564 1172.55 375.731C1174.5 379.189 1170.87 390.693 1171.85 395C1175.97 394.612 1179.78 393.971 1183 393.511C1181.34 367.736 1172.98 347.32 1171.54 324.981C1169.83 298.492 1175.08 270.861 1173.77 250.511Z" fill="#B88704"/>
<path d="M1178.97 195.117C1179.31 182.045 1165.45 165 1130.04 165C1115.33 165 1083.72 170.877 1081.01 175.291C1077.59 180.872 1073.8 259.243 1075.36 261.483C1078.5 265.973 1178.76 267.493 1179.7 264.31C1180.78 260.646 1178.57 209.696 1178.97 195.117Z" fill="#FE8046"/>
<path d="M1178.96 195.118C1179.31 182.043 1165.35 165 1129.69 165C1125.42 165.065 1121.17 165.363 1117 165.889C1140.17 166.965 1165.23 173.044 1164 188.342C1163.62 193.103 1155.14 211.617 1155.14 216.397C1155.14 224.765 1167.6 228.887 1162.06 233.699C1154.62 240.179 1148.33 238.563 1145.43 243.357C1141.81 249.35 1163.27 246.682 1159.14 253.853C1154.48 261.968 1142.46 259.612 1137.79 265.935C1159.84 266.191 1179.28 265.699 1179.7 264.309C1180.79 260.648 1178.56 209.697 1178.96 195.118Z" fill="#EB4201"/>
<path d="M1122.98 147.793C1122.07 152.779 1113 160.816 1113 166.671C1113 171.592 1149.08 173.374 1149.53 166.306C1149.98 159.239 1151 146.018 1151 146.018C1151 146.018 1123.9 142.806 1122.98 147.793Z" fill="#E68969"/>
<path d="M1145.64 123.64C1141.8 121.143 1136.15 119.707 1130.39 119.208C1124.6 118.807 1118.73 118.987 1113.05 119.742C1108.82 120.232 1105.12 121.395 1103.22 123.605C1097.49 130.218 1096.02 137.728 1094.62 145.062C1093.94 148.628 1093.31 152.37 1095.67 155.695C1099.48 161.048 1110.93 165.379 1120.56 163.59C1142.43 159.525 1151.54 147.267 1151.48 146.042C1151.29 142.171 1152.21 138.305 1151.96 134.435C1151.71 130.565 1150.11 126.551 1145.64 123.64Z" fill="#FFA578"/>
<path d="M1145.65 123.483C1144.8 122.937 1143.87 122.44 1142.85 122C1139.37 134.338 1132.42 145.913 1116.57 155.113C1110.64 158.56 1104.92 159.831 1100 159.472C1105.27 162.846 1113.43 164.928 1120.6 163.59C1142.44 159.509 1151.54 147.204 1151.48 145.974C1151.29 142.089 1152.21 138.208 1151.96 134.323C1151.71 130.438 1150.11 126.405 1145.65 123.483Z" fill="#E68969"/>
<path d="M1131.05 116.221C1110.7 114.608 1102.55 122.324 1097 123.084C1112.08 129.515 1138.15 126.459 1137.75 128.625C1135.19 142.563 1141.4 142.907 1142.72 145.302C1144.38 148.334 1150.56 151.677 1152.16 152C1167.67 129.447 1155.18 118.129 1131.05 116.221Z" fill="#181F79"/>
<path d="M1140.03 137.199C1136.13 137.749 1132.63 138.958 1130 140.662C1131.47 141.62 1132.38 142.809 1132.6 144.067C1132.81 145.325 1132.33 146.59 1131.22 147.689C1131.65 147.87 1132.1 148.038 1132.57 148.192C1134.34 148.74 1136.34 149.018 1138.36 148.999C1140.39 148.98 1142.37 148.664 1144.11 148.082C1146.59 147.158 1148.54 145.842 1149.69 144.299C1151.25 142.379 1151.77 139.9 1149.24 138.332C1147.04 136.956 1143.24 136.782 1140.03 137.199Z" fill="#FFA578"/>
<path d="M1135 140.554C1136.33 140.938 1137.51 141.475 1138.47 142.132C1139.2 143.045 1139.72 144.009 1140.02 145C1140.02 145 1148.74 141.904 1145.12 139.779C1141.49 137.653 1135 140.554 1135 140.554Z" fill="#E68969"/>
<path d="M1119.91 148.954C1119.76 146.804 1117.09 144.538 1111.94 143.688C1107.56 142.967 1097.14 141.662 1095.31 142.789C1091.04 145.423 1093.58 147.732 1092.3 149.616C1089.46 153.798 1086.19 156.087 1087.18 158.944C1090.05 167.308 1109.52 173.552 1126.68 167.723C1143.38 162.051 1135.99 150.291 1134.94 147.049C1132.52 139.586 1144 133.569 1144 133.569L1138.31 129C1138.31 129 1128.85 147.696 1119.91 148.954Z" fill="#181F79"/>
<path d="M1125.35 148.16C1128.44 149.485 1134.04 137.108 1133.75 136.497C1131.39 140.067 1128.25 144.175 1124.89 146.79C1125.14 147.243 1124.71 147.885 1125.35 148.16Z" fill="#5342F2"/>
<path d="M1091.94 159.415C1091.12 157.062 1092.73 153.347 1094.99 152.685C1096.08 152.368 1108.43 152.638 1108.69 150.496C1108.92 148.571 1101.74 149.576 1098.14 147.191C1096.64 146.191 1097.79 144.398 1099.66 142.795C1097.41 142.704 1095.58 142.789 1094.91 143.201C1090.64 145.833 1093.18 148.141 1091.9 150.024C1089.06 154.204 1085.79 156.491 1086.78 159.346C1089.54 167.363 1107.55 173.402 1124.17 168.747C1109.39 170.759 1094.37 166.498 1091.94 159.415Z" fill="#5342F2"/>
<path fill-rule="evenodd" clip-rule="evenodd" d="M1028.14 264.183L1020.5 269.034C1020.33 269.148 1020.2 269.28 1020.12 269.425C1020.03 269.57 1019.99 269.723 1020 269.877C1020.01 270.031 1020.07 270.182 1020.18 270.322C1020.28 270.461 1020.43 270.587 1020.62 270.691C1020.8 270.795 1021.02 270.876 1021.25 270.929C1021.48 270.982 1021.73 271.005 1021.98 270.999C1022.23 270.993 1022.48 270.956 1022.7 270.891C1022.93 270.826 1023.13 270.735 1023.3 270.621C1023.3 270.621 1030.15 266.221 1030 264.68C1029.96 264.265 1028.85 263.706 1028.14 264.183Z" fill="#FFA578"/>
<path fill-rule="evenodd" clip-rule="evenodd" d="M1012.39 260.335L1004.39 267.643C1004.04 267.985 1003.92 268.4 1004.06 268.797C1004.2 269.193 1004.59 269.54 1005.14 269.759C1005.69 269.978 1006.36 270.051 1007 269.964C1007.64 269.877 1008.2 269.636 1008.55 269.295C1008.55 269.295 1015.7 262.675 1014.94 260.713C1014.74 260.189 1013.12 259.623 1012.39 260.335Z" fill="#FFA578"/>
<path fill-rule="evenodd" clip-rule="evenodd" d="M1017.38 261.301L1009.39 267.88C1009.22 268.032 1009.1 268.202 1009.04 268.38C1008.98 268.558 1008.99 268.741 1009.06 268.917C1009.13 269.094 1009.26 269.261 1009.44 269.41C1009.63 269.558 1009.87 269.685 1010.14 269.782C1010.41 269.88 1010.72 269.947 1011.04 269.979C1011.36 270.01 1011.68 270.007 1012 269.968C1012.32 269.929 1012.62 269.856 1012.89 269.752C1013.15 269.649 1013.38 269.517 1013.55 269.364C1013.55 269.364 1020.7 263.408 1019.94 261.643C1019.74 261.17 1018.12 260.661 1017.38 261.301Z" fill="#FFA578"/>
<path fill-rule="evenodd" clip-rule="evenodd" d="M1022.63 261.302L1015.35 267.88C1015.2 268.033 1015.09 268.203 1015.03 268.381C1014.98 268.559 1014.99 268.742 1015.05 268.918C1015.12 269.095 1015.24 269.262 1015.41 269.411C1015.57 269.559 1015.79 269.685 1016.04 269.782C1016.29 269.88 1016.56 269.947 1016.85 269.978C1017.14 270.01 1017.44 270.007 1017.73 269.968C1018.02 269.929 1018.29 269.856 1018.53 269.753C1018.78 269.65 1018.98 269.518 1019.14 269.366C1019.14 269.366 1025.64 263.408 1024.95 261.643C1024.76 261.17 1023.29 260.66 1022.63 261.302Z" fill="#FFA578"/>
<path d="M982 222.684L995.761 230L1001 227.314L987.239 220L982 222.684Z" fill="#5342F2"/>
<path d="M1004.09 228.1C1003.5 227.756 1002.79 227.481 1002 227.292C1001.22 227.103 1000.38 227.004 999.53 227C998.68 226.996 997.836 227.087 997.048 227.269C996.26 227.45 995.542 227.718 994.935 228.057C994.329 228.396 993.845 228.8 993.513 229.246C993.181 229.691 993.007 230.169 993 230.653C992.994 231.137 993.155 231.617 993.475 232.065C993.795 232.513 994.267 232.922 994.865 233.266L1021.9 248.9C1023.11 249.596 1024.75 249.992 1026.47 250C1028.19 250.008 1029.84 249.628 1031.07 248.944C1032.29 248.258 1032.99 247.324 1033 246.348C1033.01 245.371 1032.34 244.431 1031.14 243.735L1004.09 228.1Z" fill="#181F79"/>
<path d="M962.698 186.019L961.605 186L960.676 186.011C950.756 186.125 941.301 188.436 934.304 192.456L933.167 193.107L932.88 193.288C926.507 197.33 922.986 202.579 923 208.02C923.06 213.775 927.045 219.289 934.107 223.391C941.169 227.494 950.752 229.861 960.819 229.989L962.039 230L962.853 229.986C970.434 229.841 977.77 228.417 983.936 225.892C990.102 223.367 994.82 219.854 997.496 215.798L997.812 215.323L998.156 214.703C999.382 212.53 1000 210.261 1000 207.978C1000.03 202.258 996.15 196.758 989.178 192.654C982.207 188.55 972.702 186.169 962.698 186.019V186.019ZM991.246 213.667L990.865 214.313L990.395 214.95C987.99 218.024 984.202 220.679 979.419 222.646C974.635 224.612 969.026 225.819 963.161 226.144L961.998 226.199H960.772C943.768 226.184 929.796 218.219 928.963 208.064C928.834 205.811 929.502 203.567 930.928 201.466C932.354 199.364 934.508 197.449 937.261 195.835L937.912 195.432L938.948 194.88C944.827 191.708 952.553 189.894 960.636 189.786L961.749 189.782L963.025 189.833C979.133 190.461 991.886 198.235 992.68 207.92C992.833 209.87 992.347 211.819 991.246 213.667V213.667Z" fill="#181F79"/>
<path d="M1102.01 231.371C1101.51 238.325 1117.97 237.456 1122.94 235.963C1129.44 234.012 1139.89 227.847 1149.65 216.218C1166.9 195.69 1171 190.115 1171 190.115L1137.02 181C1137.02 181 1102.51 224.415 1102.01 231.371Z" fill="#FE8046"/>
<path d="M1106 235.843C1111.02 237.711 1119.77 236.988 1123.16 235.97C1129.63 234.028 1140.03 227.89 1149.75 216.318C1166.92 195.888 1171 190.34 1171 190.34L1164.66 184C1162.4 198.532 1132.02 223.851 1106 235.843Z" fill="#EB4201"/>
<path fill-rule="evenodd" clip-rule="evenodd" d="M1034.58 234.917C1027.75 234.457 1019.5 235.395 1013.41 236.48C1009.8 237.123 1002.54 238.22 1000.62 239.56C998.846 240.802 1001.08 242.757 1004.87 242.272C1004.48 243.284 1006.56 244.931 1008.93 244.647C1009.24 245.961 1012.26 247.266 1014.48 247.044C1015.17 248.77 1017.95 249.464 1021.9 248.678C1026.11 247.841 1031.4 247.437 1042.87 245.295C1044.77 244.94 1063.23 243.083 1065 242.794C1063.22 240.764 1058.22 234.108 1057.54 232C1055.45 232.329 1038.12 235.157 1034.58 234.917Z" fill="#FFA578"/>
<path fill-rule="evenodd" clip-rule="evenodd" d="M1058.66 238.698C1047.05 240.656 1016.09 240.612 1015.05 243.247C1014.35 245.017 1021.01 247.256 1023.42 248C1027.42 247.36 1032.75 246.82 1042.71 245.021C1044.63 244.675 1063.22 242.867 1065 242.585C1064.19 241.696 1062.73 239.896 1061.3 238C1060.49 238.303 1059.6 238.538 1058.66 238.698V238.698Z" fill="#E68969"/>
<path d="M1105.27 221.854C1087.82 224.708 1050 232.251 1050 232.251C1051.91 239.85 1055.67 244 1055.67 244C1055.67 244 1086.52 241.608 1099.83 240.415C1108.28 239.661 1123.37 237.598 1128.34 234.522C1134.3 230.826 1131.71 217.533 1105.27 221.854Z" fill="#FE8046"/>
<path d="M1071.71 238.695C1066.05 239.467 1059.43 240.655 1053 241.062C1053.59 242.067 1054.29 243.048 1055.12 244C1055.12 244 1086.2 241.652 1099.62 240.482C1108.13 239.742 1123.34 237.718 1128.34 234.698C1131.87 232.567 1132.38 227.218 1126.86 224C1114.31 233.068 1090.71 236.098 1071.71 238.695Z" fill="#EB4201"/>
<path fill-rule="evenodd" clip-rule="evenodd" d="M1045.92 233.415C1045.91 233.356 1045.89 233.298 1045.84 233.245C1045.79 233.191 1045.73 233.144 1045.65 233.105C1045.57 233.066 1045.48 233.037 1045.38 233.02C1045.28 233.002 1045.17 232.996 1045.07 233.002C1043.18 233.187 1041.32 233.463 1039.52 233.828C1039.36 233.861 1039.22 233.923 1039.12 234.005C1039.03 234.088 1038.99 234.185 1039 234.283C1039.68 237.909 1041.43 241.445 1044.18 244.745C1044.24 244.822 1044.34 244.888 1044.47 244.934C1044.6 244.979 1044.75 245.002 1044.9 245C1046.81 244.927 1048.69 244.71 1050.49 244.353C1050.6 244.333 1050.69 244.299 1050.77 244.256C1050.85 244.212 1050.91 244.16 1050.95 244.102C1050.99 244.043 1051.01 243.981 1051 243.919C1050.99 243.857 1050.96 243.797 1050.91 243.742C1048.02 240.527 1046.32 237.013 1045.92 233.415V233.415Z" fill="#5342F2"/>
<path fill-rule="evenodd" clip-rule="evenodd" d="M1041.72 235.134C1040.06 235.388 1038.66 235.986 1037.82 236.797C1036.98 237.607 1036.78 238.564 1037.25 239.457C1037.72 240.35 1038.83 241.105 1040.34 241.557C1041.84 242.009 1043.62 242.12 1045.28 241.867C1046.94 241.613 1048.34 241.015 1049.18 240.204C1050.02 239.393 1050.22 238.437 1049.75 237.544C1049.52 237.101 1049.13 236.688 1048.6 236.327C1048.07 235.967 1047.41 235.666 1046.67 235.442C1045.92 235.218 1045.1 235.076 1044.25 235.023C1043.4 234.97 1042.54 235.008 1041.72 235.134V235.134Z" fill="#F5C825"/>
<path fill-rule="evenodd" clip-rule="evenodd" d="M1042.27 235.114C1041.7 235.222 1041.17 235.404 1040.71 235.648C1040.24 235.893 1039.86 236.196 1039.57 236.541C1039.28 236.885 1039.1 237.264 1039.03 237.655C1038.96 238.047 1039.01 238.443 1039.17 238.822C1039.5 239.587 1040.27 240.233 1041.31 240.62C1042.35 241.007 1043.58 241.103 1044.73 240.887C1045.3 240.779 1045.83 240.598 1046.29 240.354C1046.76 240.11 1047.14 239.807 1047.43 239.463C1047.72 239.118 1047.9 238.74 1047.97 238.349C1048.04 237.957 1047.99 237.561 1047.83 237.182C1047.67 236.803 1047.4 236.449 1047.03 236.14C1046.66 235.83 1046.21 235.572 1045.69 235.38C1045.18 235.188 1044.61 235.066 1044.02 235.02C1043.43 234.975 1042.84 235.006 1042.27 235.114V235.114Z" fill="#FE8046"/>
<path fill-rule="evenodd" clip-rule="evenodd" d="M1045.95 236C1046.66 236.317 1047.18 236.764 1047.44 237.275C1047.75 237.926 1047.62 238.625 1047.07 239.216C1046.53 239.808 1045.62 240.245 1044.54 240.431C1043.47 240.616 1042.31 240.535 1041.33 240.205C1040.36 239.875 1039.63 239.324 1039.33 238.673C1039.07 238.092 1039.16 237.474 1039.59 236.931C1039.29 237.245 1039.11 237.591 1039.03 237.95C1038.96 238.308 1039.01 238.672 1039.17 239.02C1039.5 239.714 1040.27 240.302 1041.31 240.654C1042.35 241.006 1043.58 241.094 1044.73 240.897C1045.88 240.699 1046.85 240.232 1047.43 239.601C1048.01 238.97 1048.15 238.225 1047.83 237.53C1047.53 236.899 1046.86 236.355 1045.95 236V236Z" fill="white"/>
</svg>
