<svg width="1899" height="784" viewBox="0 0 1899 784" fill="none" xmlns="http://www.w3.org/2000/svg">
<path d="M1569.33 464.626C1569.33 469.015 1550.15 472.572 1526.49 472.572C1502.83 472.572 1483.65 469.015 1483.65 464.626C1483.65 460.237 1502.83 456.68 1526.49 456.68C1550.15 456.68 1569.33 460.237 1569.33 464.626Z" fill="#E6E8ED"/>
<path d="M1898 95.9042V579.001H0C58.1872 545.238 946 203.001 1249.5 96.5013C1918.5 -118.5 1898 95.9042 1898 95.9042Z" fill="#5CCFFE" fill-opacity="0.53"/>
<path d="M791.11 473.016C786.343 472.662 784.031 478.545 771.795 478.545C759.933 478.545 758 484.126 758 484.126L780.994 487.001L825 484.126C817.546 484.126 815.994 479.431 809.029 478.545C802.065 477.659 795.875 473.371 791.11 473.016Z" fill="#F7F7F7"/>
<path d="M1293.2 148C1277.75 148 1277.14 159.144 1271.12 160.284C1265.1 161.424 1258.09 154.576 1249.29 157.428C1240.5 160.28 1235.41 166 1226 166H1353C1353 166 1308.19 148 1293.2 148Z" fill="#F7F7F7"/>
<path fill-rule="evenodd" clip-rule="evenodd" d="M1524.54 356.421V430.379H1508.77V409.625L1473.02 374.378V358.384H1465.96V327.805H1438.43V393.631H1413.73V423.445H1396.79V258.75H1343.86V354.911H1319.15V326.695H1305.05V303.174H1283.64V201H1234.47V325.223H1219.64V250.75H1156V510H1560V356.419L1524.54 356.421Z" fill="#4497B7"/>
<path d="M1273 211H1245V268H1273V211Z" fill="#5CCFFE"/>
<path d="M1366 381H1351V402H1366V381Z" fill="#5CCFFE"/>
<path d="M1366 419H1351V450H1366V419Z" fill="#5CCFFE"/>
<path d="M1364 268H1353V350H1364V268Z" fill="#5CCFFE"/>
<path d="M1289 337H1278V420H1289V337Z" fill="#5CCFFE"/>
<path d="M1439 419H1423V473H1439V419Z" fill="#5CCFFE"/>
<path d="M1390 307H1376V380H1390V307Z" fill="#5CCFFE"/>
<path d="M1457 336H1446V347H1457V336Z" fill="#5CCFFE"/>
<path d="M1457 369H1446V380H1457V369Z" fill="#5CCFFE"/>
<path d="M1457 353H1446V364H1457V353Z" fill="#5CCFFE"/>
<path d="M1537 402H1531V424H1537V402Z" fill="#5CCFFE"/>
<path d="M1537 433H1531V455H1537V433Z" fill="#5CCFFE"/>
<path d="M1196 380H1180V391H1196V380Z" fill="#5CCFFE"/>
<path d="M1196 359H1180V371H1196V359Z" fill="#5CCFFE"/>
<path d="M1196 339H1180V350H1196V339Z" fill="#5CCFFE"/>
<path d="M1196 318H1180V329H1196V318Z" fill="#5CCFFE"/>
<path d="M1196 297H1180V309H1196V297Z" fill="#5CCFFE"/>
<path d="M1455.77 129C1475.97 129 1476.76 140.651 1484.63 141.845C1492.5 143.039 1501.65 135.87 1513.15 138.858C1524.64 141.845 1531.29 147.819 1543.59 147.819H1433C1433 147.819 1436.19 129 1455.77 129Z" fill="#F7F7F7"/>
<path d="M1687.56 98C1674.78 98 1674.28 107.154 1669.31 108.091C1664.33 109.027 1658.53 103.401 1651.26 105.744C1643.99 108.087 1639.78 112.786 1632 112.786H1701.97C1701.97 112.786 1699.95 98 1687.56 98Z" fill="#F7F7F7"/>
<path d="M1384.95 510H1376L1415.05 473H1424L1384.95 510Z" fill="#CECDD3"/>
<path d="M1424 369H1416V510H1424V369Z" fill="#CECDD3"/>
<path d="M1413 510H1416V369H1413V510Z" fill="white"/>
<path d="M1454.87 510H1464L1424.13 473H1415L1454.87 510Z" fill="#CECDD3"/>
<path d="M1295 208V225H1545V208.008L1295 208Z" fill="url(#paint0_linear_108_2)"/>
<path d="M1435 369H1432V387H1435V369Z" fill="#181F79"/>
<path d="M1302 225V371H1542V225H1302Z" fill="white"/>
<path d="M1546 367H1294V374H1546V367Z" fill="#181F79"/>
<path d="M1433.5 385C1432.04 385.002 1430.64 385.529 1429.61 386.466C1428.58 387.403 1428 388.674 1428 389.999C1428 391.325 1428.58 392.596 1429.61 393.533C1430.64 394.471 1432.04 394.998 1433.5 395C1434.96 394.998 1436.36 394.471 1437.39 393.534C1438.42 392.596 1439 391.325 1439 389.999C1439 388.674 1438.42 387.403 1437.39 386.465C1436.36 385.528 1434.96 385.001 1433.5 385ZM1433.5 392.5C1432.77 392.5 1432.07 392.236 1431.55 391.767C1431.04 391.298 1430.75 390.663 1430.75 389.999C1430.75 389.336 1431.04 388.701 1431.55 388.232C1432.07 387.763 1432.77 387.499 1433.5 387.498C1434.23 387.499 1434.93 387.763 1435.44 388.232C1435.96 388.701 1436.25 389.336 1436.25 389.999C1436.25 390.663 1435.96 391.298 1435.44 391.767C1434.93 392.236 1434.23 392.5 1433.5 392.5V392.5Z" fill="#FE8046"/>
<path d="M1451 273H1441V298H1451V273Z" fill="#2B1BED"/>
<path d="M1469 263H1459V298H1469V263Z" fill="#B88704"/>
<path d="M1487 268H1477V298H1487V268Z" fill="#4497B7"/>
<path d="M1505 255H1495V298H1505V255Z" fill="#5CCFFE"/>
<path d="M1523 239H1513V298H1523V239Z" fill="#FE8046"/>
<path d="M1523 303H1441V306H1523V303Z" fill="#CECDD3"/>
<path d="M1322.69 246C1320.02 248.386 1317.94 251.341 1316.62 254.636C1315.31 257.931 1314.78 261.478 1315.08 265.004C1315.55 271.273 1318.54 277.106 1323.4 281.219C1328.26 285.333 1334.59 287.39 1341 286.939L1339.25 263.294L1322.69 246Z" fill="#5CCFFE"/>
<path d="M1340.75 287C1345.59 286.705 1350.22 284.932 1354 281.924L1339 263L1340.75 287Z" fill="#FE8046"/>
<path d="M1347.15 241L1339 263.325L1353.82 282C1357.4 279.29 1360.09 275.602 1361.57 271.392C1363.74 265.47 1363.43 258.942 1360.73 253.242C1358.02 247.542 1353.14 243.139 1347.15 241V241Z" fill="#2B1BED"/>
<path d="M1323 245.564L1339.03 263L1347 240.526C1338.37 237.351 1329.69 239.178 1323 245.564Z" fill="#B88704"/>
<path d="M1410 242H1394V245H1410V242Z" fill="#CECDD3"/>
<path d="M1418 242H1413V245H1418V242Z" fill="#CECDD3"/>
<path d="M1409 268H1394V272H1409V268Z" fill="#CECDD3"/>
<path d="M1418 282H1405V285H1418V282Z" fill="#CECDD3"/>
<path d="M1403 282H1394V285H1403V282Z" fill="#CECDD3"/>
<path d="M1403 255H1394V259H1403V255Z" fill="#CECDD3"/>
<path d="M1410 255H1403V259H1410V255Z" fill="#CECDD3"/>
<path d="M1385 240C1383.94 240.001 1382.92 240.422 1382.17 241.171C1381.42 241.92 1381 242.936 1381 243.996C1381 244.522 1381.1 245.042 1381.3 245.528C1381.5 246.013 1381.8 246.455 1382.17 246.827C1382.54 247.199 1382.98 247.494 1383.47 247.695C1383.95 247.896 1384.47 248 1385 248C1385.52 248.001 1386.04 247.898 1386.53 247.697C1387.02 247.496 1387.46 247.201 1387.83 246.829C1388.2 246.457 1388.5 246.015 1388.7 245.529C1388.9 245.043 1389 244.522 1389 243.996C1389 243.471 1388.9 242.951 1388.69 242.466C1388.49 241.981 1388.2 241.54 1387.83 241.169C1387.45 240.798 1387.01 240.504 1386.53 240.303C1386.04 240.102 1385.52 239.999 1385 240Z" fill="#B88704"/>
<path d="M1385 253C1383.94 253 1382.92 253.422 1382.17 254.172C1381.42 254.922 1381 255.94 1381 257C1381 258.061 1381.42 259.078 1382.17 259.829C1382.92 260.579 1383.94 261 1385 261C1385.52 261.001 1386.04 260.898 1386.53 260.697C1387.01 260.497 1387.46 260.202 1387.83 259.831C1388.2 259.459 1388.49 259.018 1388.7 258.532C1388.9 258.047 1389 257.526 1389 257C1389 256.475 1388.9 255.954 1388.69 255.468C1388.49 254.983 1388.2 254.541 1387.83 254.17C1387.45 253.798 1387.01 253.504 1386.53 253.303C1386.04 253.102 1385.52 252.999 1385 253V253Z" fill="#5CCFFE"/>
<path d="M1385 266C1383.94 266 1382.92 266.422 1382.17 267.172C1381.42 267.922 1381 268.939 1381 270C1381 270.525 1381.1 271.045 1381.3 271.531C1381.5 272.016 1381.8 272.457 1382.17 272.829C1382.54 273.2 1382.98 273.495 1383.47 273.696C1383.95 273.897 1384.47 274 1385 274C1385.52 274.001 1386.04 273.898 1386.53 273.698C1387.01 273.497 1387.46 273.202 1387.83 272.831C1388.2 272.459 1388.49 272.018 1388.7 271.532C1388.9 271.046 1389 270.526 1389 270C1389 269.474 1388.9 268.953 1388.69 268.468C1388.49 267.982 1388.2 267.541 1387.83 267.17C1387.45 266.798 1387.01 266.504 1386.53 266.303C1386.04 266.102 1385.52 265.999 1385 266V266Z" fill="#FE8046"/>
<path d="M1385 279C1384.47 279 1383.95 279.103 1383.47 279.304C1382.98 279.505 1382.54 279.8 1382.17 280.171C1381.8 280.543 1381.5 280.984 1381.3 281.469C1381.1 281.955 1381 282.475 1381 283.001C1381 284.061 1381.42 285.078 1382.17 285.828C1382.92 286.578 1383.94 287 1385 287C1385.52 287.001 1386.04 286.898 1386.53 286.697C1387.01 286.496 1387.45 286.202 1387.83 285.831C1388.2 285.459 1388.49 285.018 1388.69 284.533C1388.9 284.047 1389 283.526 1389 283.001C1389 282.475 1388.9 281.954 1388.7 281.468C1388.49 280.982 1388.2 280.541 1387.83 280.169C1387.46 279.797 1387.01 279.503 1386.53 279.302C1386.04 279.102 1385.52 278.999 1385 279V279Z" fill="#2B1BED"/>
<path d="M1335.93 312H1319.07C1317.37 312 1316 313.382 1316 315.087V332.913C1316 334.618 1317.37 336 1319.07 336H1335.93C1337.63 336 1339 334.618 1339 332.913V315.087C1339 313.382 1337.63 312 1335.93 312Z" fill="#FE8046"/>
<path d="M1374 312H1342V315H1374V312Z" fill="#CECDD3"/>
<path d="M1422 312H1389V315H1422V312Z" fill="#CECDD3"/>
<path d="M1383 319H1342V321H1383V319Z" fill="#CECDD3"/>
<path d="M1374 325H1367V328H1374V325Z" fill="#CECDD3"/>
<path d="M1388 325H1377V328H1388V325Z" fill="#CECDD3"/>
<path d="M1422 319H1391V321H1422V319Z" fill="#CECDD3"/>
<path d="M1361 325H1342V328H1361V325Z" fill="#CECDD3"/>
<path d="M1408 333H1342V336H1408V333Z" fill="#CECDD3"/>
<path d="M1422 339H1353V342H1422V339Z" fill="#CECDD3"/>
<path d="M1349 339H1316V342H1349V339Z" fill="#CECDD3"/>
<path d="M1458.29 318.726H1441.54V321.375H1458.29V318.726Z" fill="#CECDD3"/>
<path d="M1467.39 325.275H1441.54V327.924H1467.39V325.275Z" fill="#CECDD3"/>
<path d="M1490.79 318.726H1466.27V321.375H1490.79V318.726Z" fill="#CECDD3"/>
<path d="M1508.57 318.726H1495.68V321.375H1508.57V318.726Z" fill="#CECDD3"/>
<path d="M1521.26 325.275H1492.54V327.924H1521.26V325.275Z" fill="#CECDD3"/>
<path d="M1458.29 331.807H1441.54V334.456H1458.29V331.807Z" fill="#CECDD3"/>
<path d="M1494.16 338.356H1441.54V341.006H1494.16V338.356Z" fill="#CECDD3"/>
<path d="M1498.15 331.807H1466.27V334.456H1498.15V331.807Z" fill="#CECDD3"/>
<path d="M1521.26 331.807H1504.53V334.456H1521.26V331.807Z" fill="#CECDD3"/>
<path d="M1530.04 338.356H1500.53V341.006H1530.04V338.356Z" fill="#CECDD3"/>
<path d="M1485.35 325.275H1473.14V327.924H1485.35V325.275Z" fill="#CECDD3"/>
<path d="M1545 208C1542.79 208 1541 211.807 1541 216.5C1541 221.193 1542.79 225 1545 225C1547.2 225 1549 221.196 1549 216.5C1549 211.804 1547.21 208 1545 208Z" fill="#181F79"/>
<path d="M1295.5 208C1293.01 208 1291 211.807 1291 216.5C1291 221.193 1293.01 225 1295.5 225C1297.99 225 1300 221.196 1300 216.5C1300 211.804 1297.99 208 1295.5 208Z" fill="#F5C825"/>
<path fill-rule="evenodd" clip-rule="evenodd" d="M1245 234C1243.82 234 1242.65 234.219 1241.56 234.646C1240.46 235.073 1239.47 235.7 1238.64 236.489C1237.8 237.278 1237.14 238.215 1236.69 239.247C1236.23 240.278 1236 241.384 1236 242.5C1236 243.616 1236.23 244.722 1236.68 245.753C1237.14 246.784 1237.8 247.721 1238.63 248.511C1239.47 249.3 1240.46 249.926 1241.55 250.353C1242.65 250.78 1243.82 251 1245 251C1246.18 251.001 1247.35 250.781 1248.44 250.354C1249.53 249.927 1250.53 249.301 1251.36 248.512C1252.2 247.722 1252.86 246.785 1253.31 245.754C1253.77 244.722 1254 243.617 1254 242.5C1254 240.245 1253.05 238.083 1251.36 236.489C1249.68 234.895 1247.39 234 1245 234V234Z" fill="#FE8046"/>
<path fill-rule="evenodd" clip-rule="evenodd" d="M1245 234C1244 234.011 1243.01 234.18 1242.07 234.499C1242.56 234.41 1243.05 234.364 1243.55 234.361C1252.79 234.361 1252.78 247.913 1243.55 247.913C1237.61 247.913 1235.51 242.336 1237.2 238.335C1236.42 239.601 1236.01 241.037 1236 242.5C1236 243.616 1236.23 244.722 1236.68 245.753C1237.14 246.784 1237.8 247.721 1238.63 248.511C1239.47 249.3 1240.46 249.926 1241.55 250.353C1242.65 250.78 1243.82 251 1245 251C1246.18 251.001 1247.35 250.781 1248.44 250.354C1249.53 249.927 1250.53 249.301 1251.36 248.512C1252.2 247.722 1252.86 246.785 1253.31 245.754C1253.77 244.722 1254 243.617 1254 242.5C1254 240.245 1253.05 238.083 1251.36 236.489C1249.68 234.895 1247.39 234 1245 234V234Z" fill="#EB4201"/>
<path fill-rule="evenodd" clip-rule="evenodd" d="M1241.45 231.522C1238.92 233.008 1237.09 235.438 1236.36 238.276C1235.62 241.115 1236.04 244.131 1237.52 246.659C1238.36 248.092 1239.51 249.317 1240.89 250.242C1242.27 251.166 1243.84 251.767 1245.48 252C1243.14 251.108 1241.18 249.444 1239.91 247.283C1238.43 244.754 1238.01 241.738 1238.74 238.9C1239.48 236.061 1241.31 233.631 1243.84 232.145C1246 230.873 1248.52 230.377 1251 230.739C1249.45 230.141 1247.79 229.901 1246.14 230.037C1244.48 230.172 1242.88 230.68 1241.45 231.522V231.522Z" fill="#FE8046"/>
<path fill-rule="evenodd" clip-rule="evenodd" d="M1224.57 339C1222.73 341.97 1221.45 345.142 1219.55 347.999C1213.91 356.453 1213.27 363.939 1209.79 368.014C1209.08 369.017 1208 369.704 1206.79 369.926C1204.08 370.4 1201.65 371.833 1199.93 373.957C1198.29 375.812 1201.6 375.172 1199.94 377.622C1198.97 379.068 1195.63 382.97 1196.03 383.534C1196.86 384.682 1197.91 383.519 1199.04 382.118C1199.14 382.321 1199.29 382.495 1199.47 382.625C1199.66 382.755 1199.87 382.836 1200.1 382.861C1200.32 382.885 1200.55 382.853 1200.76 382.766C1200.97 382.679 1201.15 382.54 1201.29 382.363C1201.47 382.538 1201.68 382.673 1201.92 382.761C1202.15 382.849 1202.4 382.888 1202.65 382.875C1202.9 382.863 1203.15 382.798 1203.37 382.686C1203.59 382.575 1203.79 382.418 1203.95 382.226C1205.1 383.157 1206.15 382.646 1207.18 381.005C1208.27 379.255 1210.56 376.884 1213.62 372.211C1217.64 366.089 1221.21 362.733 1223.96 358.257C1226.35 354.354 1230.35 349.467 1231.99 342.385C1232.29 341.076 1225.32 339.405 1224.57 339Z" fill="#FFA578"/>
<path fill-rule="evenodd" clip-rule="evenodd" d="M1229.29 340C1227.85 343.948 1225.58 347.499 1223.76 351.449C1221.93 355.441 1220.24 358.423 1218.14 362.302C1214.77 368.53 1211.46 373.23 1204.64 374.36C1203.55 375.655 1202.02 376.485 1200.34 376.681C1200.26 376.987 1200.12 377.277 1199.94 377.537C1198.97 379.002 1195.63 382.956 1196.03 383.527C1196.86 384.691 1197.91 383.512 1199.04 382.093C1199.14 382.298 1199.29 382.475 1199.47 382.607C1199.66 382.739 1199.87 382.821 1200.1 382.846C1200.32 382.87 1200.55 382.837 1200.76 382.749C1200.97 382.661 1201.15 382.521 1201.29 382.342C1201.47 382.518 1201.68 382.655 1201.92 382.745C1202.15 382.834 1202.4 382.874 1202.65 382.86C1202.9 382.847 1203.15 382.782 1203.37 382.669C1203.59 382.556 1203.79 382.397 1203.95 382.203C1205.1 383.146 1206.15 382.628 1207.18 380.965C1208.27 379.192 1210.56 376.789 1213.62 372.054C1217.64 365.851 1221.21 362.449 1223.96 357.914C1226.35 353.958 1230.35 349.006 1231.99 341.83C1232.12 341.243 1230.84 340.587 1229.29 340Z" fill="#E68969"/>
<path fill-rule="evenodd" clip-rule="evenodd" d="M1195 377.558C1196.25 378.421 1197.76 378.029 1199.05 376.308C1200.44 376.103 1201.75 375.425 1202.77 374.368L1204 371L1198.67 373.987C1197.59 375.338 1196.35 376.537 1195 377.558V377.558Z" fill="#FFA578"/>
<path fill-rule="evenodd" clip-rule="evenodd" d="M1199.44 378.797C1198.35 379.956 1197.32 381.168 1196.37 382.428C1195.86 383.087 1195.91 383.698 1196.3 383.883C1196.69 384.067 1197.17 384.129 1197.83 383.333C1198.9 382.066 1199.86 380.723 1200.69 379.318C1201.42 378.141 1200.8 377.315 1199.44 378.797Z" fill="#FFA578"/>
<path fill-rule="evenodd" clip-rule="evenodd" d="M1202.63 376.869C1201.4 378.503 1200.46 380.133 1199.25 381.76C1198.77 382.407 1199.06 382.724 1199.47 382.899C1199.86 383.067 1200.33 383.118 1200.89 382.291C1201.97 380.693 1202.94 379.023 1203.78 377.294C1204.34 376.079 1203.79 375.321 1202.63 376.869Z" fill="#FFA578"/>
<path fill-rule="evenodd" clip-rule="evenodd" d="M1204.7 377.749C1203.74 379.15 1203.1 380.465 1202.16 381.862C1201.78 382.414 1202.14 382.74 1202.51 382.902C1202.87 383.057 1203.3 383.113 1203.72 382.403C1204.55 381.026 1205.27 379.59 1205.88 378.107C1206.29 377.053 1205.61 376.426 1204.7 377.749Z" fill="#FFA578"/>
<path fill-rule="evenodd" clip-rule="evenodd" d="M1206.72 377.823C1205.68 379.393 1205.22 380.208 1204.19 381.77C1203.79 382.39 1204.09 382.708 1204.49 382.889C1204.88 383.065 1205.34 383.127 1205.81 382.329C1206.61 381.04 1207.29 379.681 1207.85 378.269C1208.3 377.093 1207.7 376.339 1206.72 377.823Z" fill="#FFA578"/>
<path fill-rule="evenodd" clip-rule="evenodd" d="M1244.6 243.564C1225.64 247.709 1230.24 264.615 1231.13 269.075C1232.89 277.825 1240.94 283 1251.32 283C1265.01 283 1272.66 262.827 1264.9 251.145C1259.01 242.271 1249.96 242.39 1244.6 243.564Z" fill="#FE8046"/>
<path fill-rule="evenodd" clip-rule="evenodd" d="M1244.83 243.564C1244.71 243.59 1244.61 243.622 1244.49 243.648C1244.73 243.692 1244.97 243.73 1245.2 243.783C1246.77 244.18 1248.23 244.903 1249.5 245.905C1252.94 247.514 1255.63 250.38 1257.02 253.913C1258.45 257.206 1258.74 260.882 1257.86 264.361C1256.91 268.19 1253.94 271.482 1250.55 273.379C1247.06 275.337 1242.55 276.444 1238.62 275.142C1236.27 274.383 1234.13 273.096 1232.36 271.38C1232.24 271.261 1232.12 271.101 1232 270.972C1234.45 278.564 1241.97 283 1251.48 283C1265.04 283 1272.61 262.827 1264.93 251.144C1259.1 242.271 1250.14 242.39 1244.83 243.564Z" fill="#EB4201"/>
<path fill-rule="evenodd" clip-rule="evenodd" d="M1260.88 510.176C1260.28 508.483 1259.07 507.105 1257.91 503.181C1254.39 491.162 1257.8 481.527 1254.58 465.759C1253.94 462.669 1252.29 459.918 1252.65 456.331C1252.77 452.958 1253.29 450.34 1253.11 447.744C1252.93 445.27 1252.07 442.81 1251.82 439.825C1250.61 424.804 1250.99 406.546 1251.57 392.136L1227 380C1227.46 394.914 1233.23 431.947 1233.55 433.549C1236.27 447.358 1235.27 449.58 1236.8 461.343C1238.41 473.751 1246.41 493.241 1249.96 506.299C1251.19 510.812 1252.51 531.393 1252.27 535.013C1252.11 537.299 1250.52 541 1253.79 541C1256.52 541 1263.85 537.986 1264.8 534.876C1265.79 531.594 1262.87 525.652 1261.78 519.781C1260.94 515.246 1261.69 512.46 1260.88 510.176Z" fill="#E68969"/>
<path fill-rule="evenodd" clip-rule="evenodd" d="M1244.37 465.92C1240.45 453.717 1237.56 441.263 1240.61 428.686C1243.82 415.411 1241.31 401.713 1243.8 388.294L1227 380C1227.47 394.914 1233.23 431.947 1233.55 433.549C1236.28 447.358 1235.27 449.58 1236.8 461.343C1238.41 473.751 1246.42 493.241 1249.97 506.299C1251.2 510.812 1252.52 531.393 1252.28 535.013C1252.13 537.299 1250.53 541 1253.8 541C1255.17 541 1257.7 540.241 1260 539.093C1259.6 528.028 1253.67 516.875 1253.14 505.776C1252.45 491.349 1248.76 479.577 1244.37 465.92Z" fill="#FFA578"/>
<path fill-rule="evenodd" clip-rule="evenodd" d="M1262.84 524.309C1262.42 526.758 1261.82 529.602 1260.27 531.751C1257.9 535.04 1253.01 533.696 1252.49 531.194C1252.55 532.9 1252.56 534.22 1252.51 534.918C1252.36 537.24 1250.8 541 1254.01 541C1256.69 541 1263.87 537.938 1264.8 534.778C1265.53 532.298 1264.13 528.326 1262.92 524C1262.9 524.105 1262.86 524.201 1262.84 524.309Z" fill="#FE8046"/>
<path fill-rule="evenodd" clip-rule="evenodd" d="M1262.84 524.306C1262.41 526.756 1261.81 529.599 1260.26 531.748C1260.04 532.041 1259.79 532.304 1259.5 532.531C1259.49 532.778 1259.46 533.024 1259.39 533.262C1258.05 538.063 1253.15 539.428 1252 539.231C1252.09 540.247 1252.55 541 1253.97 541C1256.66 541 1263.87 537.938 1264.8 534.778C1265.53 532.298 1264.13 528.326 1262.92 524C1262.89 524.103 1262.86 524.199 1262.84 524.306Z" fill="#EB4201"/>
<path fill-rule="evenodd" clip-rule="evenodd" d="M1259.39 291.895C1252.08 293.858 1253.72 285.932 1252.77 279L1242.84 282.421C1244.07 288.937 1245.01 293.559 1239.63 295.6C1236.53 296.778 1231.22 297.633 1228.81 298.825C1219.13 303.619 1224.46 331.531 1224.46 339.098L1232.15 342C1234.03 335.624 1234.65 328.647 1234.65 320.908L1266.81 316.768L1264.16 306.11L1275 302.338C1272.28 291.15 1268.11 289.556 1259.39 291.895Z" fill="#FFA578"/>
<path fill-rule="evenodd" clip-rule="evenodd" d="M1262 300.426C1262 300.426 1275.75 325.202 1280.35 330L1286 323.561C1283.58 318.958 1278.26 303.439 1272.12 295L1262 300.426Z" fill="#FFA578"/>
<path fill-rule="evenodd" clip-rule="evenodd" d="M1280.86 324.334C1277.81 319.498 1275.21 312.062 1275.49 311.148C1276.04 309.36 1277.67 305.231 1276.95 303.267C1275.04 298.103 1268.3 301.049 1266.96 297.403C1266.91 297.266 1266.89 297.135 1266.85 297L1262 299.727C1262 299.727 1275.44 325.091 1279.93 330L1283 326.333C1282.12 325.89 1281.38 325.197 1280.86 324.334V324.334Z" fill="#E68969"/>
<path fill-rule="evenodd" clip-rule="evenodd" d="M1322.98 307.694C1320.2 308.813 1321.51 305.71 1319.33 306.94C1316.9 308.236 1314.99 310.312 1313.91 312.824C1312.76 315.431 1297.11 318.385 1287.13 320.26C1283.7 320.903 1282.18 322.473 1280.59 325.605C1280.21 326.371 1279.05 330.138 1281.64 330.637C1294.18 333.063 1307.89 322.642 1314.81 319.959C1320.09 317.913 1322.92 316.159 1324.89 315.44C1326.73 314.767 1327.46 313.85 1326.76 312.537C1326.99 312.42 1327.18 312.259 1327.34 312.063C1327.5 311.867 1327.61 311.641 1327.68 311.399C1327.74 311.157 1327.75 310.905 1327.71 310.659C1327.67 310.412 1327.58 310.176 1327.44 309.967C1327.65 309.866 1327.82 309.715 1327.95 309.528C1328.08 309.342 1328.16 309.126 1328.18 308.901C1328.2 308.676 1328.16 308.45 1328.07 308.243C1327.98 308.036 1327.84 307.856 1327.65 307.719C1329.28 306.9 1330.65 306.112 1329.67 305.069C1329.19 304.559 1324.62 307.032 1322.98 307.694Z" fill="#FFA578"/>
<path fill-rule="evenodd" clip-rule="evenodd" d="M1322.98 307.694C1322.52 307.954 1322.09 308.264 1321.69 308.618C1320.47 309.571 1319.52 310.817 1318.92 312.237C1317.95 314.532 1316.76 317.03 1315.28 317.657C1310.64 319.611 1304.78 319.225 1300.12 321.116C1295.5 322.993 1291.1 324.893 1286.13 325.676C1285.27 325.836 1284.39 325.801 1283.55 325.574C1282.71 325.347 1281.93 324.934 1281.28 324.365C1281.05 324.751 1280.82 325.16 1280.59 325.605C1280.21 326.371 1279.05 330.136 1281.64 330.637C1294.17 333.063 1307.89 322.642 1314.81 319.959C1316.94 319.134 1317.77 317.905 1319.21 317.222C1321.34 316.215 1323.72 315.869 1324.89 315.44C1326.73 314.767 1327.46 313.85 1326.76 312.537C1326.99 312.42 1327.18 312.259 1327.34 312.063C1327.5 311.867 1327.61 311.641 1327.68 311.399C1327.74 311.157 1327.75 310.905 1327.71 310.659C1327.67 310.412 1327.58 310.176 1327.44 309.967C1327.65 309.866 1327.82 309.715 1327.95 309.528C1328.08 309.342 1328.16 309.126 1328.18 308.901C1328.2 308.676 1328.16 308.45 1328.07 308.243C1327.98 308.036 1327.84 307.856 1327.65 307.719C1329.28 306.898 1330.65 306.112 1329.67 305.069C1329.19 304.559 1324.63 307.03 1322.98 307.694Z" fill="#E68969"/>
<path fill-rule="evenodd" clip-rule="evenodd" d="M1319.34 305.089L1316 310L1319.35 309.373C1320.15 308.712 1320.69 307.52 1321.12 305.928C1322.73 304.938 1323.31 303.449 1322.85 302C1321.79 303.195 1320.61 304.232 1319.34 305.089Z" fill="#FFA578"/>
<path d="M1358.85 263.328L1307.37 331.818C1307.12 332.093 1306.99 332.454 1307 332.825C1307.01 333.196 1307.17 333.547 1307.44 333.804C1307.76 333.992 1308.14 334.048 1308.49 333.958C1308.85 333.869 1309.16 333.643 1309.36 333.327C1309.36 333.322 1309.37 333.31 1309.37 333.306L1359.83 264.057C1359.95 263.921 1360.01 263.743 1360 263.562C1359.99 263.381 1359.91 263.211 1359.77 263.089C1359.62 263.001 1359.44 262.977 1359.26 263.022C1359.09 263.066 1358.94 263.176 1358.85 263.328V263.328Z" fill="#B88704"/>
<path fill-rule="evenodd" clip-rule="evenodd" d="M1259.35 292.245C1252.13 294.261 1253.75 286.121 1252.81 279L1243 282.513C1243.24 283.822 1243.46 285.054 1243.64 286.207C1246.29 290.264 1251.55 296.543 1256.19 295.962C1258.69 295.649 1260.98 292.716 1263.87 292.357C1265.93 292.124 1268.02 292.323 1270 292.943C1267.47 290.836 1264.1 290.92 1259.35 292.245Z" fill="#E68969"/>
<path fill-rule="evenodd" clip-rule="evenodd" d="M1230.34 322C1230.22 323.545 1230.1 325.127 1230.05 326.771C1229.91 331.543 1230.29 336.476 1229 340.859L1232.35 342C1233.99 336.624 1234.88 331.091 1235 325.523C1233.63 325.087 1230.64 322.449 1230.34 322Z" fill="#E68969"/>
<path fill-rule="evenodd" clip-rule="evenodd" d="M1253.51 252.162C1251.35 251.06 1248.56 250.671 1245.01 251.304C1236.44 252.837 1234.53 260.299 1235.09 267.7C1235.41 271.871 1235.68 275.489 1237.6 278.761C1238.53 280.314 1244.18 287 1248.2 287C1252.58 286.978 1257.86 279.518 1258.62 277.451C1259.49 275.122 1259.84 272.238 1259.98 267.966C1260 267.659 1260 267.373 1260 267.088C1260.06 260.627 1258.36 254.595 1253.51 252.162Z" fill="#FFA578"/>
<path fill-rule="evenodd" clip-rule="evenodd" d="M1253.51 252.553C1250.56 251.703 1246.79 251.744 1242 253.307C1242 253.307 1245.94 266.327 1260 267C1260.06 260.746 1258.36 254.908 1253.51 252.553Z" fill="#E68969"/>
<path fill-rule="evenodd" clip-rule="evenodd" d="M1252.26 371C1244.65 386.775 1246.32 396.764 1246.56 417.827C1246.72 431.767 1246.6 435.57 1245.84 445.165C1245.61 448.148 1244.76 450.604 1244.6 453.078C1244.42 455.671 1244.92 458.286 1245.04 461.655C1245.38 465.238 1243.78 467.986 1243.16 471.073C1240.02 486.823 1243.5 498.176 1240.07 510.182C1238.95 514.1 1237.61 513.751 1237.03 515.445C1236.24 517.724 1236.98 520.509 1236.16 525.041C1235.09 530.904 1232.18 536.86 1233.22 540.121C1233.88 542.212 1238.86 548 1241.52 548C1244.61 548 1244.34 542.541 1244.6 540.267C1244.86 538.045 1245.14 521.54 1245.24 520.246C1245.61 515.477 1258.25 480.482 1259.82 468.086C1261.31 456.335 1260.54 450.879 1263.19 437.085C1266.73 418.62 1269.51 401.715 1270 385.401L1268.13 371.057L1252.26 371Z" fill="#FFA578"/>
<path fill-rule="evenodd" clip-rule="evenodd" d="M1241.59 540.278C1236.43 540.278 1235.07 530.764 1234.9 530C1233.78 534.125 1232.49 537.907 1233.21 540.259C1233.83 542.314 1238.5 548 1241 548C1243.89 548 1243.64 542.637 1243.89 540.403C1243.93 540.064 1243.96 539.356 1244 538.445C1243.31 539.093 1242.61 540.278 1241.59 540.278Z" fill="#FE8046"/>
<path fill-rule="evenodd" clip-rule="evenodd" d="M1241.57 539.918C1240.99 539.917 1240.42 539.784 1239.9 539.526C1239.96 540.188 1239.95 540.856 1239.85 541.514C1239.62 543.187 1237.72 544.063 1236.37 543.677C1235.9 543.535 1235.44 543.347 1235 543.116C1236.77 545.472 1239.33 548 1240.97 548C1243.89 548 1243.64 542.387 1243.89 540.049C1243.92 539.694 1243.96 538.953 1244 538C1243.31 538.678 1242.6 539.918 1241.57 539.918Z" fill="#EB4201"/>
<path fill-rule="evenodd" clip-rule="evenodd" d="M1275.04 354.285C1270.29 355.514 1241.57 360.107 1231.08 354C1230.28 358.631 1222 365.067 1222 379.771C1222 401.214 1231 444.242 1231 444.242C1231 444.242 1251.07 449.849 1265.27 445.074C1271.02 417.211 1278.93 388.164 1276.57 367.094C1276.5 366.464 1275.14 354.96 1275.04 354.285Z" fill="#F5C825"/>
<path fill-rule="evenodd" clip-rule="evenodd" d="M1275.07 354C1274.99 354.089 1274.94 354.182 1274.86 354.27C1264.81 364.66 1239.15 365.34 1244.22 368.769C1246.53 370.332 1257.43 377.652 1260.06 380.103C1265.74 385.377 1247.22 392.656 1248.32 404.957C1248.83 410.672 1248.4 420.663 1246.88 426.19C1244.56 434.688 1239.38 438.255 1234 444.984C1240.22 446.341 1254.42 448.706 1265.23 445.063C1271 417.035 1278.93 387.817 1276.57 366.623C1276.51 366.032 1275.31 355.854 1275.07 354Z" fill="#B88704"/>
<path fill-rule="evenodd" clip-rule="evenodd" d="M1277.2 295.382C1271.91 289.631 1260.52 291.194 1260.52 291.194C1256.27 295.016 1247.92 300.925 1247.92 300.925L1235.68 297.129C1235.68 297.129 1223.5 297.559 1222.02 308.928C1221.53 312.738 1229.4 312.242 1229.4 317.696C1229.44 319.416 1229.88 321.104 1230.67 322.637C1231.45 324.17 1232.58 325.509 1233.95 326.558C1234.8 331.849 1235.11 337.21 1234.9 342.563C1234.48 349.776 1230.12 349.19 1230.8 353.215C1231.97 360.068 1272.68 358.65 1276.09 354.631C1279.7 350.38 1276.15 324.993 1274.6 311.675C1273.67 303.772 1280.21 298.651 1277.2 295.382Z" fill="#5342F2"/>
<path fill-rule="evenodd" clip-rule="evenodd" d="M1277.19 295.383C1271.82 289.631 1260.26 291.194 1260.26 291.194C1255.94 295.016 1247.47 300.926 1247.47 300.926L1235.05 297.129C1232.58 297.315 1230.19 297.992 1228 299.116C1229 299.488 1231.08 301.033 1233.03 301.199C1236.59 301.502 1240.57 304.122 1240.19 308.201C1240.23 308.922 1240.51 309.609 1240.99 310.157C1245.26 312.713 1242.42 322.145 1237.38 324.502C1233.95 326.108 1250.66 336.295 1250.66 346.191C1250.66 350.392 1260.83 346.222 1264.3 343.629C1267.44 341.285 1269.54 343.496 1266.45 345.804C1260.69 350.108 1254.96 354.513 1244.54 354.65C1241.49 354.799 1238.5 355.44 1235.67 356.547C1247.32 359.336 1273.34 357.787 1276.06 354.633C1279.72 350.381 1276.13 324.994 1274.55 311.675C1273.61 303.772 1280.24 298.652 1277.19 295.383ZM1270.28 315.55C1268.9 317.535 1267.75 320.317 1268.37 322.74C1269.32 326.495 1266.41 327.817 1263.11 325.705C1261.21 324.49 1253.77 328.816 1249.43 328.099C1245.54 327.456 1248.21 325.608 1249.58 325.789C1253.99 326.371 1262.97 316.427 1264.81 312.185C1265.77 309.957 1269.5 309.148 1270.81 310.606C1271.98 311.407 1271.32 314.045 1270.28 315.55Z" fill="#181F79"/>
<path fill-rule="evenodd" clip-rule="evenodd" d="M1245.07 276.435C1244.73 276.71 1245.66 276.863 1246.13 276.882C1246.4 276.897 1246.66 276.922 1246.91 276.958C1247.31 277.014 1247.72 277.014 1248.12 276.958C1248.38 276.922 1248.64 276.897 1248.9 276.882C1249.37 276.863 1250.19 276.749 1249.96 276.435C1249.87 276.305 1248.65 276.001 1247.39 276.005C1246.55 275.97 1245.73 276.123 1245.07 276.435V276.435Z" fill="#E68969"/>
<path fill-rule="evenodd" clip-rule="evenodd" d="M1328.61 305.22C1327.34 305.919 1326.09 306.697 1324.89 307.55C1323.36 308.613 1324.03 309.336 1325.2 308.84C1326.59 308.272 1327.94 307.579 1329.24 306.767C1330.06 306.262 1330.06 305.787 1329.95 305.396C1329.83 304.991 1329.28 304.837 1328.61 305.22Z" fill="#FFA578"/>
<path fill-rule="evenodd" clip-rule="evenodd" d="M1327.79 308.156C1325.88 309.09 1324.01 309.751 1322.09 310.701C1320.27 311.595 1320.98 312.264 1322.35 311.898C1324.31 311.349 1326.22 310.669 1328.08 309.863C1329.04 309.445 1329.07 308.965 1328.95 308.553C1328.83 308.131 1328.55 307.789 1327.79 308.156Z" fill="#FFA578"/>
<path fill-rule="evenodd" clip-rule="evenodd" d="M1326.88 310.087C1325.2 310.751 1323.66 311.146 1321.98 311.818C1320.38 312.455 1320.95 313.178 1322.16 312.961C1323.88 312.626 1325.57 312.177 1327.21 311.617C1328.05 311.327 1328.06 310.924 1327.95 310.57C1327.84 310.207 1327.54 309.824 1326.88 310.087Z" fill="#FFA578"/>
<path fill-rule="evenodd" clip-rule="evenodd" d="M1326.78 312.14C1324.91 313.093 1323.95 313.502 1322.06 314.467C1320.28 315.38 1321 316.246 1322.35 315.936C1323.98 315.526 1325.57 314.953 1327.11 314.224C1328.06 313.81 1328.07 313.232 1327.94 312.725C1327.82 312.205 1327.53 311.765 1326.78 312.14Z" fill="#FFA578"/>
<path fill-rule="evenodd" clip-rule="evenodd" d="M1240 250.39C1240 250.39 1245.76 266.92 1267 264.815C1267 264.815 1264.48 243.44 1240 250.39Z" fill="#FE8046"/>
<path d="M919.018 326.341C912.899 325.796 908.414 324.001 892.707 324.001C877.481 324.001 875 332.581 875 332.581L904.515 337.001L961 332.581C951.433 332.581 946.267 329.857 937.327 328.495C928.387 327.133 925.134 326.886 919.018 326.341Z" fill="#F7F7F7"/>
<defs>
<linearGradient id="paint0_linear_108_2" x1="1295" y1="216.5" x2="1545" y2="216.5" gradientUnits="userSpaceOnUse">
<stop stop-color="#F5C825"/>
<stop offset="1" stop-color="#EB4201"/>
</linearGradient>
</defs>
</svg>
