<svg width="109" height="24" viewBox="0 0 109 24" fill="none" xmlns="http://www.w3.org/2000/svg">
<path d="M13.8849 9.36222H11.2287C11.1529 8.92661 11.0133 8.54072 10.8097 8.20455C10.6061 7.86364 10.3527 7.57481 10.0497 7.33807C9.74669 7.10133 9.40104 6.92377 9.01278 6.8054C8.62926 6.68229 8.21496 6.62074 7.76989 6.62074C6.97917 6.62074 6.27841 6.8196 5.66761 7.21733C5.05682 7.61032 4.5786 8.18797 4.23295 8.95028C3.88731 9.70786 3.71449 10.6335 3.71449 11.7273C3.71449 12.84 3.88731 13.7775 4.23295 14.5398C4.58333 15.2973 5.06155 15.8703 5.66761 16.2585C6.27841 16.642 6.9768 16.8338 7.76278 16.8338C8.19839 16.8338 8.60559 16.777 8.98438 16.6634C9.3679 16.545 9.71117 16.3722 10.0142 16.1449C10.322 15.9176 10.58 15.6383 10.7884 15.3068C11.0014 14.9754 11.1482 14.5966 11.2287 14.1705L13.8849 14.1847C13.7855 14.8759 13.5701 15.5246 13.2386 16.1307C12.9119 16.7367 12.4834 17.2718 11.9531 17.7358C11.4228 18.1951 10.8026 18.5549 10.0923 18.8153C9.3821 19.071 8.59375 19.1989 7.72727 19.1989C6.44886 19.1989 5.30777 18.9029 4.30398 18.3111C3.30019 17.7192 2.50947 16.8646 1.93182 15.7472C1.35417 14.6297 1.06534 13.2898 1.06534 11.7273C1.06534 10.16 1.35653 8.82008 1.93892 7.70739C2.52131 6.58996 3.31439 5.73532 4.31818 5.14347C5.32197 4.55161 6.45833 4.25568 7.72727 4.25568C8.53693 4.25568 9.28977 4.36932 9.9858 4.59659C10.6818 4.82386 11.3021 5.15767 11.8466 5.59801C12.3911 6.03362 12.8385 6.56866 13.1889 7.20312C13.544 7.83286 13.776 8.55256 13.8849 9.36222ZM19.3235 19.2202C18.6322 19.2202 18.0096 19.0971 17.4556 18.8509C16.9064 18.5999 16.4708 18.2306 16.1488 17.7429C15.8316 17.2552 15.6729 16.6539 15.6729 15.9389C15.6729 15.3234 15.7866 14.8144 16.0138 14.4119C16.2411 14.0095 16.5513 13.6875 16.9442 13.446C17.3372 13.2045 17.7799 13.0223 18.2724 12.8991C18.7695 12.7713 19.2833 12.679 19.8136 12.6222C20.4528 12.5559 20.9712 12.4967 21.369 12.4446C21.7667 12.3878 22.0555 12.3026 22.2354 12.1889C22.4201 12.0705 22.5124 11.8883 22.5124 11.642V11.5994C22.5124 11.0644 22.3538 10.6501 22.0366 10.3565C21.7193 10.063 21.2624 9.91619 20.6658 9.91619C20.0361 9.91619 19.5366 10.0535 19.1673 10.3281C18.8027 10.6027 18.5565 10.9271 18.4286 11.3011L16.0281 10.9602C16.2174 10.2973 16.5299 9.74337 16.9656 9.2983C17.4012 8.84848 17.9338 8.51231 18.5636 8.28977C19.1933 8.0625 19.8893 7.94886 20.6516 7.94886C21.1772 7.94886 21.7004 8.01042 22.2212 8.13352C22.7421 8.25663 23.2179 8.46023 23.6488 8.74432C24.0797 9.02367 24.4253 9.40483 24.6857 9.88778C24.9509 10.3707 25.0835 10.9744 25.0835 11.6989V19H22.6119V17.5014H22.5266C22.3704 17.8045 22.1502 18.0885 21.8661 18.3537C21.5868 18.6141 21.234 18.8248 20.8079 18.9858C20.3865 19.142 19.8917 19.2202 19.3235 19.2202ZM19.9911 17.331C20.5072 17.331 20.9547 17.2292 21.3335 17.0256C21.7122 16.8172 22.0034 16.5426 22.207 16.2017C22.4154 15.8608 22.5195 15.4891 22.5195 15.0866V13.8011C22.439 13.8674 22.3017 13.929 22.1076 13.9858C21.9182 14.0426 21.7051 14.0923 21.4684 14.1349C21.2317 14.1776 20.9973 14.2154 20.7653 14.2486C20.5333 14.2817 20.332 14.3101 20.1616 14.3338C19.7781 14.3859 19.4348 14.4711 19.1317 14.5895C18.8287 14.7079 18.5896 14.8736 18.4144 15.0866C18.2392 15.295 18.1516 15.5649 18.1516 15.8963C18.1516 16.3698 18.3245 16.7273 18.6701 16.9688C19.0157 17.2102 19.4561 17.331 19.9911 17.331ZM30.2397 4.45455V19H27.6687V4.45455H30.2397ZM37.7131 19.2131C36.6193 19.2131 35.6747 18.9858 34.8793 18.5312C34.0885 18.072 33.4801 17.4233 33.054 16.5852C32.6278 15.7424 32.4148 14.7505 32.4148 13.6094C32.4148 12.4872 32.6278 11.5024 33.054 10.6548C33.4848 9.80256 34.0862 9.13968 34.858 8.66619C35.6297 8.18797 36.5365 7.94886 37.5781 7.94886C38.2505 7.94886 38.8849 8.05777 39.4815 8.27557C40.0829 8.48864 40.6132 8.82008 41.0724 9.26989C41.5365 9.7197 41.901 10.2926 42.1662 10.9886C42.4313 11.6799 42.5639 12.5038 42.5639 13.4602V14.2486H33.6222V12.5156H40.0994C40.0947 12.0232 39.9882 11.5852 39.7798 11.2017C39.5715 10.8134 39.2803 10.508 38.9062 10.2855C38.5369 10.063 38.1061 9.9517 37.6136 9.9517C37.0881 9.9517 36.6264 10.0795 36.2287 10.3352C35.831 10.5862 35.5208 10.9176 35.2983 11.3295C35.0805 11.7367 34.9692 12.1842 34.9645 12.6719V14.1847C34.9645 14.8191 35.0805 15.3636 35.3125 15.8182C35.5445 16.268 35.8688 16.6136 36.2855 16.8551C36.7022 17.0919 37.1899 17.2102 37.7486 17.2102C38.1226 17.2102 38.4612 17.1581 38.7642 17.054C39.0672 16.9451 39.33 16.7865 39.5526 16.5781C39.7751 16.3698 39.9432 16.1117 40.0568 15.804L42.4574 16.0739C42.3059 16.7083 42.017 17.2623 41.5909 17.7358C41.1695 18.2045 40.6297 18.5691 39.9716 18.8295C39.3134 19.0852 38.5606 19.2131 37.7131 19.2131ZM47.31 12.608V19H44.739V8.09091H47.1964V9.9446H47.3242C47.5752 9.33381 47.9753 8.84848 48.5245 8.48864C49.0785 8.12879 49.7627 7.94886 50.5771 7.94886C51.3299 7.94886 51.9857 8.10985 52.5444 8.43182C53.1078 8.75379 53.5434 9.22017 53.8512 9.83097C54.1637 10.4418 54.3176 11.1828 54.3129 12.054V19H51.7418V12.4517C51.7418 11.7225 51.5524 11.152 51.1737 10.7401C50.7996 10.3281 50.2811 10.1222 49.6183 10.1222C49.1684 10.1222 48.7683 10.2216 48.418 10.4205C48.0723 10.6146 47.8001 10.8963 47.6012 11.2656C47.4071 11.6349 47.31 12.0824 47.31 12.608ZM60.9748 19.1918C60.1178 19.1918 59.3507 18.9716 58.6737 18.5312C57.9966 18.0909 57.4615 17.4517 57.0685 16.6136C56.6755 15.7756 56.479 14.7576 56.479 13.5597C56.479 12.3475 56.6779 11.3248 57.0756 10.4915C57.4781 9.65341 58.0202 9.02131 58.7021 8.59517C59.3839 8.1643 60.1438 7.94886 60.9819 7.94886C61.6211 7.94886 62.1467 8.05777 62.5586 8.27557C62.9705 8.48864 63.2972 8.74669 63.5387 9.04972C63.7802 9.34801 63.9672 9.62973 64.0998 9.89489H64.2063V4.45455H66.7844V19H64.256V17.2812H64.0998C63.9672 17.5464 63.7755 17.8281 63.5245 18.1264C63.2736 18.42 62.9421 18.6709 62.5302 18.8793C62.1183 19.0876 61.5998 19.1918 60.9748 19.1918ZM61.6921 17.0824C62.2366 17.0824 62.7006 16.9356 63.0842 16.642C63.4677 16.3437 63.7589 15.9295 63.9577 15.3991C64.1566 14.8688 64.256 14.2509 64.256 13.5455C64.256 12.84 64.1566 12.2268 63.9577 11.706C63.7636 11.1851 63.4748 10.7803 63.0913 10.4915C62.7125 10.2027 62.2461 10.0582 61.6921 10.0582C61.1192 10.0582 60.641 10.2074 60.2575 10.5057C59.8739 10.804 59.5851 11.2159 59.391 11.7415C59.1969 12.267 59.0998 12.8684 59.0998 13.5455C59.0998 14.2273 59.1969 14.8357 59.391 15.3707C59.5898 15.901 59.881 16.3201 60.2646 16.6278C60.6528 16.9309 61.1287 17.0824 61.6921 17.0824ZM72.6634 19.2202C71.9721 19.2202 71.3494 19.0971 70.7955 18.8509C70.2462 18.5999 69.8106 18.2306 69.4886 17.7429C69.1714 17.2552 69.0128 16.6539 69.0128 15.9389C69.0128 15.3234 69.1264 14.8144 69.3537 14.4119C69.581 14.0095 69.8911 13.6875 70.2841 13.446C70.6771 13.2045 71.1198 13.0223 71.6122 12.8991C72.1094 12.7713 72.6231 12.679 73.1534 12.6222C73.7926 12.5559 74.3111 12.4967 74.7088 12.4446C75.1065 12.3878 75.3954 12.3026 75.5753 12.1889C75.7599 12.0705 75.8523 11.8883 75.8523 11.642V11.5994C75.8523 11.0644 75.6937 10.6501 75.3764 10.3565C75.0592 10.063 74.6023 9.91619 74.0057 9.91619C73.3759 9.91619 72.8764 10.0535 72.5071 10.3281C72.1425 10.6027 71.8963 10.9271 71.7685 11.3011L69.3679 10.9602C69.5573 10.2973 69.8698 9.74337 70.3054 9.2983C70.741 8.84848 71.2737 8.51231 71.9034 8.28977C72.5331 8.0625 73.2292 7.94886 73.9915 7.94886C74.517 7.94886 75.0402 8.01042 75.5611 8.13352C76.0819 8.25663 76.5578 8.46023 76.9886 8.74432C77.4195 9.02367 77.7652 9.40483 78.0256 9.88778C78.2907 10.3707 78.4233 10.9744 78.4233 11.6989V19H75.9517V17.5014H75.8665C75.7102 17.8045 75.4901 18.0885 75.206 18.3537C74.9266 18.6141 74.5739 18.8248 74.1477 18.9858C73.7263 19.142 73.2315 19.2202 72.6634 19.2202ZM73.331 17.331C73.8471 17.331 74.2945 17.2292 74.6733 17.0256C75.0521 16.8172 75.3433 16.5426 75.5469 16.2017C75.7552 15.8608 75.8594 15.4891 75.8594 15.0866V13.8011C75.7789 13.8674 75.6416 13.929 75.4474 13.9858C75.258 14.0426 75.045 14.0923 74.8082 14.1349C74.5715 14.1776 74.3371 14.2154 74.1051 14.2486C73.8731 14.2817 73.6719 14.3101 73.5014 14.3338C73.1179 14.3859 72.7746 14.4711 72.4716 14.5895C72.1686 14.7079 71.9295 14.8736 71.7543 15.0866C71.5791 15.295 71.4915 15.5649 71.4915 15.8963C71.4915 16.3698 71.6643 16.7273 72.0099 16.9688C72.3556 17.2102 72.7959 17.331 73.331 17.331ZM81.0085 19V8.09091H83.5014V9.90909H83.6151C83.8139 9.27936 84.1548 8.79403 84.6378 8.45312C85.1255 8.10748 85.6818 7.93466 86.3068 7.93466C86.4489 7.93466 86.6075 7.94176 86.7827 7.95597C86.9626 7.96544 87.1117 7.98201 87.2301 8.00568V10.3707C87.1212 10.3329 86.9484 10.2997 86.7116 10.2713C86.4796 10.2382 86.2547 10.2216 86.0369 10.2216C85.5682 10.2216 85.1468 10.3234 84.7727 10.527C84.4034 10.7259 84.1122 11.0028 83.8991 11.358C83.6861 11.7131 83.5795 12.1226 83.5795 12.5866V19H81.0085Z" fill="white"/>
<path d="M96.7984 17L95 15.0923L101.75 8L108.5 15.0923L106.702 17L101.75 11.7974L96.7984 17Z" fill="white"/>
</svg>
