<svg width="132" height="24" viewBox="0 0 132 24" fill="none" xmlns="http://www.w3.org/2000/svg">
<path d="M1.43466 19V4.45455H4.0696V10.6122H10.8097V4.45455H13.4517V19H10.8097V12.821H4.0696V19H1.43466ZM20.9624 19.2131C19.897 19.2131 18.9737 18.9787 18.1925 18.5099C17.4112 18.0412 16.8052 17.3854 16.3743 16.5426C15.9482 15.6998 15.7351 14.715 15.7351 13.5881C15.7351 12.4612 15.9482 11.474 16.3743 10.6264C16.8052 9.77888 17.4112 9.12074 18.1925 8.65199C18.9737 8.18324 19.897 7.94886 20.9624 7.94886C22.0277 7.94886 22.951 8.18324 23.7322 8.65199C24.5135 9.12074 25.1172 9.77888 25.5433 10.6264C25.9742 11.474 26.1896 12.4612 26.1896 13.5881C26.1896 14.715 25.9742 15.6998 25.5433 16.5426C25.1172 17.3854 24.5135 18.0412 23.7322 18.5099C22.951 18.9787 22.0277 19.2131 20.9624 19.2131ZM20.9766 17.1534C21.5542 17.1534 22.0372 16.9948 22.4254 16.6776C22.8137 16.3556 23.1025 15.9247 23.2919 15.3849C23.486 14.8452 23.5831 14.2438 23.5831 13.581C23.5831 12.9134 23.486 12.3097 23.2919 11.7699C23.1025 11.2254 22.8137 10.7921 22.4254 10.4702C22.0372 10.1482 21.5542 9.98722 20.9766 9.98722C20.3847 9.98722 19.8923 10.1482 19.4993 10.4702C19.111 10.7921 18.8198 11.2254 18.6257 11.7699C18.4363 12.3097 18.3416 12.9134 18.3416 13.581C18.3416 14.2438 18.4363 14.8452 18.6257 15.3849C18.8198 15.9247 19.111 16.3556 19.4993 16.6776C19.8923 16.9948 20.3847 17.1534 20.9766 17.1534ZM28.3718 19V8.09091H30.8292V9.9446H30.957C31.1843 9.3196 31.5607 8.83191 32.0863 8.48153C32.6119 8.12642 33.2392 7.94886 33.9684 7.94886C34.707 7.94886 35.3297 8.12879 35.8363 8.48864C36.3477 8.84375 36.7075 9.32907 36.9158 9.9446H37.0295C37.271 9.33854 37.6781 8.85559 38.2511 8.49574C38.8287 8.13116 39.5129 7.94886 40.3036 7.94886C41.3074 7.94886 42.1265 8.2661 42.761 8.90057C43.3955 9.53504 43.7127 10.4607 43.7127 11.6776V19H41.1346V12.0753C41.1346 11.3982 40.9547 10.9034 40.5948 10.5909C40.235 10.2737 39.7946 10.1151 39.2738 10.1151C38.6535 10.1151 38.1682 10.3092 37.8178 10.6974C37.4722 11.081 37.2994 11.5805 37.2994 12.196V19H34.7781V11.9688C34.7781 11.4053 34.6076 10.9555 34.2667 10.6193C33.9305 10.2831 33.4902 10.1151 32.9457 10.1151C32.5763 10.1151 32.2402 10.2098 31.9371 10.3991C31.6341 10.5838 31.3926 10.8466 31.2127 11.1875C31.0328 11.5237 30.9428 11.9167 30.9428 12.3665V19H28.3718ZM51.1506 19.2131C50.0568 19.2131 49.1122 18.9858 48.3168 18.5312C47.526 18.072 46.9176 17.4233 46.4915 16.5852C46.0653 15.7424 45.8523 14.7505 45.8523 13.6094C45.8523 12.4872 46.0653 11.5024 46.4915 10.6548C46.9223 9.80256 47.5237 9.13968 48.2955 8.66619C49.0672 8.18797 49.974 7.94886 51.0156 7.94886C51.688 7.94886 52.3224 8.05777 52.919 8.27557C53.5204 8.48864 54.0507 8.82008 54.5099 9.26989C54.974 9.7197 55.3385 10.2926 55.6037 10.9886C55.8688 11.6799 56.0014 12.5038 56.0014 13.4602V14.2486H47.0597V12.5156H53.5369C53.5322 12.0232 53.4257 11.5852 53.2173 11.2017C53.009 10.8134 52.7178 10.508 52.3438 10.2855C51.9744 10.063 51.5436 9.9517 51.0511 9.9517C50.5256 9.9517 50.0639 10.0795 49.6662 10.3352C49.2685 10.5862 48.9583 10.9176 48.7358 11.3295C48.518 11.7367 48.4067 12.1842 48.402 12.6719V14.1847C48.402 14.8191 48.518 15.3636 48.75 15.8182C48.982 16.268 49.3063 16.6136 49.723 16.8551C50.1397 17.0919 50.6274 17.2102 51.1861 17.2102C51.5601 17.2102 51.8987 17.1581 52.2017 17.054C52.5047 16.9451 52.7675 16.7865 52.9901 16.5781C53.2126 16.3698 53.3807 16.1117 53.4943 15.804L55.8949 16.0739C55.7434 16.7083 55.4545 17.2623 55.0284 17.7358C54.607 18.2045 54.0672 18.5691 53.4091 18.8295C52.7509 19.0852 51.9981 19.2131 51.1506 19.2131ZM63.2511 19V4.45455H68.7056C69.823 4.45455 70.7605 4.66288 71.5181 5.07955C72.2804 5.49621 72.8557 6.06913 73.244 6.7983C73.637 7.52273 73.8335 8.34659 73.8335 9.26989C73.8335 10.2027 73.637 11.0312 73.244 11.7557C72.851 12.4801 72.271 13.0507 71.5039 13.4673C70.7369 13.8793 69.7923 14.0852 68.6701 14.0852H65.055V11.919H68.315C68.9684 11.919 69.5034 11.8054 69.9201 11.5781C70.3368 11.3509 70.6445 11.0384 70.8434 10.6406C71.047 10.2429 71.1488 9.78598 71.1488 9.26989C71.1488 8.75379 71.047 8.29924 70.8434 7.90625C70.6445 7.51326 70.3344 7.20786 69.913 6.99006C69.4963 6.76752 68.9589 6.65625 68.3008 6.65625H65.886V19H63.2511ZM78.9524 19.2202C78.2611 19.2202 77.6385 19.0971 77.0845 18.8509C76.5353 18.5999 76.0997 18.2306 75.7777 17.7429C75.4605 17.2552 75.3018 16.6539 75.3018 15.9389C75.3018 15.3234 75.4155 14.8144 75.6428 14.4119C75.87 14.0095 76.1802 13.6875 76.5732 13.446C76.9661 13.2045 77.4089 13.0223 77.9013 12.8991C78.3984 12.7713 78.9122 12.679 79.4425 12.6222C80.0817 12.5559 80.6001 12.4967 80.9979 12.4446C81.3956 12.3878 81.6844 12.3026 81.8643 12.1889C82.049 12.0705 82.1413 11.8883 82.1413 11.642V11.5994C82.1413 11.0644 81.9827 10.6501 81.6655 10.3565C81.3482 10.063 80.8913 9.91619 80.2947 9.91619C79.665 9.91619 79.1655 10.0535 78.7962 10.3281C78.4316 10.6027 78.1854 10.9271 78.0575 11.3011L75.657 10.9602C75.8464 10.2973 76.1589 9.74337 76.5945 9.2983C77.0301 8.84848 77.5627 8.51231 78.1925 8.28977C78.8222 8.0625 79.5182 7.94886 80.2805 7.94886C80.8061 7.94886 81.3293 8.01042 81.8501 8.13352C82.371 8.25663 82.8468 8.46023 83.2777 8.74432C83.7086 9.02367 84.0542 9.40483 84.3146 9.88778C84.5798 10.3707 84.7124 10.9744 84.7124 11.6989V19H82.2408V17.5014H82.1555C81.9993 17.8045 81.7791 18.0885 81.495 18.3537C81.2157 18.6141 80.8629 18.8248 80.4368 18.9858C80.0154 19.142 79.5206 19.2202 78.9524 19.2202ZM79.62 17.331C80.1361 17.331 80.5836 17.2292 80.9624 17.0256C81.3411 16.8172 81.6323 16.5426 81.8359 16.2017C82.0443 15.8608 82.1484 15.4891 82.1484 15.0866V13.8011C82.0679 13.8674 81.9306 13.929 81.7365 13.9858C81.5471 14.0426 81.334 14.0923 81.0973 14.1349C80.8606 14.1776 80.6262 14.2154 80.3942 14.2486C80.1622 14.2817 79.9609 14.3101 79.7905 14.3338C79.407 14.3859 79.0637 14.4711 78.7607 14.5895C78.4576 14.7079 78.2185 14.8736 78.0433 15.0866C77.8681 15.295 77.7805 15.5649 77.7805 15.8963C77.7805 16.3698 77.9534 16.7273 78.299 16.9688C78.6446 17.2102 79.085 17.331 79.62 17.331ZM92.0419 23.3182C91.1186 23.3182 90.3255 23.1927 89.6626 22.9418C88.9998 22.6955 88.4671 22.3641 88.0646 21.9474C87.6622 21.5308 87.3828 21.0691 87.2266 20.5625L89.5419 20.0014C89.6461 20.2145 89.7976 20.4252 89.9964 20.6335C90.1953 20.8466 90.4628 21.0218 90.799 21.1591C91.1399 21.3011 91.5684 21.3722 92.0845 21.3722C92.8137 21.3722 93.4174 21.1946 93.8956 20.8395C94.3738 20.4891 94.6129 19.9115 94.6129 19.1065V17.0398H94.4851C94.3525 17.3049 94.1584 17.5772 93.9027 17.8565C93.6518 18.1359 93.3179 18.3703 92.9013 18.5597C92.4893 18.7491 91.9709 18.8438 91.3459 18.8438C90.5078 18.8438 89.7479 18.6473 89.0661 18.2543C88.389 17.8565 87.8492 17.2647 87.4467 16.4787C87.049 15.688 86.8501 14.6984 86.8501 13.5099C86.8501 12.312 87.049 11.3011 87.4467 10.4773C87.8492 9.64867 88.3913 9.02131 89.0732 8.59517C89.755 8.1643 90.5149 7.94886 91.353 7.94886C91.9922 7.94886 92.5178 8.05777 92.9297 8.27557C93.3464 8.48864 93.6778 8.74669 93.924 9.04972C94.1702 9.34801 94.3572 9.62973 94.4851 9.89489H94.6271V8.09091H97.1626V19.1776C97.1626 20.1103 96.9401 20.8821 96.495 21.4929C96.05 22.1037 95.4415 22.5606 94.6697 22.8636C93.898 23.1667 93.022 23.3182 92.0419 23.3182ZM92.0632 16.8267C92.6077 16.8267 93.0717 16.6941 93.4553 16.429C93.8388 16.1638 94.13 15.7827 94.3288 15.2855C94.5277 14.7884 94.6271 14.1918 94.6271 13.4957C94.6271 12.8092 94.5277 12.2079 94.3288 11.6918C94.1347 11.1757 93.8459 10.7756 93.4624 10.4915C93.0836 10.2027 92.6172 10.0582 92.0632 10.0582C91.4903 10.0582 91.0121 10.2074 90.6286 10.5057C90.245 10.804 89.9562 11.2135 89.7621 11.7344C89.5679 12.2505 89.4709 12.8376 89.4709 13.4957C89.4709 14.1634 89.5679 14.7481 89.7621 15.25C89.9609 15.7472 90.2521 16.1354 90.6357 16.4148C91.0239 16.6894 91.4998 16.8267 92.0632 16.8267ZM104.627 19.2131C103.533 19.2131 102.589 18.9858 101.793 18.5312C101.003 18.072 100.394 17.4233 99.968 16.5852C99.5419 15.7424 99.3288 14.7505 99.3288 13.6094C99.3288 12.4872 99.5419 11.5024 99.968 10.6548C100.399 9.80256 101 9.13968 101.772 8.66619C102.544 8.18797 103.451 7.94886 104.492 7.94886C105.165 7.94886 105.799 8.05777 106.396 8.27557C106.997 8.48864 107.527 8.82008 107.987 9.26989C108.451 9.7197 108.815 10.2926 109.08 10.9886C109.345 11.6799 109.478 12.5038 109.478 13.4602V14.2486H100.536V12.5156H107.013C107.009 12.0232 106.902 11.5852 106.694 11.2017C106.486 10.8134 106.194 10.508 105.82 10.2855C105.451 10.063 105.02 9.9517 104.528 9.9517C104.002 9.9517 103.54 10.0795 103.143 10.3352C102.745 10.5862 102.435 10.9176 102.212 11.3295C101.995 11.7367 101.883 12.1842 101.879 12.6719V14.1847C101.879 14.8191 101.995 15.3636 102.227 15.8182C102.459 16.268 102.783 16.6136 103.2 16.8551C103.616 17.0919 104.104 17.2102 104.663 17.2102C105.037 17.2102 105.375 17.1581 105.678 17.054C105.981 16.9451 106.244 16.7865 106.467 16.5781C106.689 16.3698 106.857 16.1117 106.971 15.804L109.371 16.0739C109.22 16.7083 108.931 17.2623 108.505 17.7358C108.084 18.2045 107.544 18.5691 106.886 18.8295C106.228 19.0852 105.475 19.2131 104.627 19.2131Z" fill="white"/>
<path d="M119.798 17L118 15.0923L124.75 8L131.5 15.0923L129.702 17L124.75 11.7974L119.798 17Z" fill="white"/>
</svg>
