<svg width="160" height="58" viewBox="0 0 160 58" fill="none" xmlns="http://www.w3.org/2000/svg">
<path d="M1.5 17.9432V11.0909H31.0057V17.9432H20.4205V46H12.1023V17.9432H1.5Z" fill="#F87777"/>
<path d="M42.5071 46.4432C40.8366 46.4432 39.3537 46.1648 38.0582 45.608C36.7741 45.0398 35.7571 44.1875 35.0071 43.0511C34.2685 41.9034 33.8991 40.4659 33.8991 38.7386C33.8991 37.2841 34.1548 36.0568 34.6662 35.0568C35.1776 34.0568 35.8821 33.2443 36.7798 32.6193C37.6776 31.9943 38.7116 31.5227 39.8821 31.2045C41.0526 30.875 42.3026 30.6534 43.6321 30.5398C45.1207 30.4034 46.3196 30.2614 47.2287 30.1136C48.1378 29.9545 48.7969 29.733 49.206 29.4489C49.6264 29.1534 49.8366 28.7386 49.8366 28.2045V28.1193C49.8366 27.2443 49.5355 26.5682 48.9332 26.0909C48.331 25.6136 47.5185 25.375 46.4957 25.375C45.3935 25.375 44.5071 25.6136 43.8366 26.0909C43.1662 26.5682 42.7401 27.2273 42.5582 28.0682L34.8707 27.7955C35.098 26.2045 35.6832 24.7841 36.6264 23.5341C37.581 22.2727 38.8878 21.2841 40.5469 20.5682C42.2173 19.8409 44.223 19.4773 46.5639 19.4773C48.2344 19.4773 49.7741 19.6761 51.1832 20.0739C52.5923 20.4602 53.8196 21.0284 54.8651 21.7784C55.9105 22.517 56.7173 23.4261 57.2855 24.5057C57.8651 25.5852 58.1548 26.8182 58.1548 28.2045V46H50.3139V42.3523H50.1094C49.6435 43.2386 49.0469 43.9886 48.3196 44.6023C47.6037 45.2159 46.7571 45.6761 45.7798 45.983C44.8139 46.2898 43.723 46.4432 42.5071 46.4432ZM45.081 40.9886C45.9787 40.9886 46.7855 40.8068 47.5014 40.4432C48.2287 40.0795 48.8082 39.5795 49.2401 38.9432C49.6719 38.2955 49.8878 37.5455 49.8878 36.6932V34.2045C49.6491 34.3295 49.3594 34.4432 49.0185 34.5455C48.6889 34.6477 48.3253 34.7443 47.9276 34.8352C47.5298 34.9261 47.1207 35.0057 46.7003 35.0739C46.2798 35.142 45.8764 35.2045 45.4901 35.2614C44.706 35.3864 44.0355 35.5795 43.4787 35.8409C42.9332 36.1023 42.5128 36.4432 42.2173 36.8636C41.9332 37.2727 41.7912 37.7614 41.7912 38.3295C41.7912 39.1932 42.098 39.8523 42.7116 40.3068C43.3366 40.7614 44.1264 40.9886 45.081 40.9886Z" fill="#E0A167"/>
<path d="M86.1094 27.8125L78.456 28.017C78.3764 27.4716 78.1605 26.9886 77.8082 26.5682C77.456 26.1364 76.9957 25.8011 76.4276 25.5625C75.8707 25.3125 75.223 25.1875 74.4844 25.1875C73.5185 25.1875 72.6946 25.3807 72.0128 25.767C71.3423 26.1534 71.0128 26.6761 71.0241 27.3352C71.0128 27.8466 71.2173 28.2898 71.6378 28.6648C72.0696 29.0398 72.8366 29.3409 73.9389 29.5682L78.9844 30.5227C81.598 31.0227 83.5412 31.8523 84.8139 33.0114C86.098 34.1705 86.7457 35.7045 86.7571 37.6136C86.7457 39.4091 86.2116 40.9716 85.1548 42.3011C84.1094 43.6307 82.6776 44.6648 80.8594 45.4034C79.0412 46.1307 76.9616 46.4943 74.6207 46.4943C70.8821 46.4943 67.9332 45.7273 65.7741 44.1932C63.6264 42.6477 62.3991 40.5795 62.0923 37.9886L70.3253 37.7841C70.5071 38.7386 70.9787 39.4659 71.7401 39.9659C72.5014 40.4659 73.473 40.7159 74.6548 40.7159C75.723 40.7159 76.5923 40.517 77.2628 40.1193C77.9332 39.7216 78.2741 39.1932 78.2855 38.5341C78.2741 37.9432 78.0128 37.4716 77.5014 37.1193C76.9901 36.7557 76.1889 36.4716 75.098 36.267L70.5298 35.3977C67.9048 34.9205 65.9503 34.0398 64.6662 32.7557C63.3821 31.4602 62.7457 29.8125 62.7571 27.8125C62.7457 26.0625 63.2116 24.5682 64.1548 23.3295C65.098 22.0795 66.4389 21.125 68.1776 20.4659C69.9162 19.8068 71.9673 19.4773 74.331 19.4773C77.8764 19.4773 80.6719 20.2216 82.7173 21.7102C84.7628 23.1875 85.8935 25.2216 86.1094 27.8125Z" fill="#F8D96C"/>
<path d="M98.3778 39.1307L98.4119 29.1932H99.571L106.935 19.8182H116.378L105.435 33.25H103.236L98.3778 39.1307ZM90.8608 46V11.0909H99.196V46H90.8608ZM107.122 46L100.27 35.125L105.759 29.2102L116.753 46H107.122Z" fill="#E2EE5A"/>
<path d="M124.457 55.8182C123.457 55.8182 122.514 55.7386 121.628 55.5795C120.741 55.4318 119.98 55.233 119.344 54.983L121.185 48.9318C122.003 49.2045 122.741 49.3636 123.401 49.4091C124.071 49.4545 124.645 49.3466 125.122 49.0852C125.611 48.8352 125.986 48.3864 126.247 47.7386L126.571 46.9545L117.264 19.8182H125.991L130.815 38.5H131.088L135.98 19.8182H144.759L134.889 48.5057C134.412 49.9375 133.736 51.1989 132.861 52.2898C131.997 53.392 130.878 54.2557 129.503 54.8807C128.139 55.5057 126.457 55.8182 124.457 55.8182Z" fill="#BDFF51"/>
<path d="M152.642 46.4943C151.415 46.4943 150.364 46.0625 149.489 45.1989C148.625 44.3352 148.199 43.2898 148.21 42.0625C148.199 40.858 148.625 39.8295 149.489 38.9773C150.364 38.1136 151.415 37.6818 152.642 37.6818C153.801 37.6818 154.824 38.1136 155.71 38.9773C156.608 39.8295 157.063 40.858 157.074 42.0625C157.063 42.8807 156.847 43.625 156.426 44.2955C156.017 44.9659 155.477 45.5 154.807 45.8977C154.148 46.2955 153.426 46.4943 152.642 46.4943Z" fill="white"/>
</svg>
