<svg width="81" height="48" viewBox="0 0 81 48" fill="none" xmlns="http://www.w3.org/2000/svg">
<path d="M24 9.29067C18.8693 9.29067 14.7093 13.4507 14.7093 18.5813C14.7093 23.712 18.8693 27.872 24 27.872C29.1307 27.872 33.2907 23.712 33.2907 18.5813C33.2907 13.4507 29.1307 9.29067 24 9.29067ZM24 23.2213C21.44 23.2213 19.36 21.1413 19.36 18.5813C19.36 16.0213 21.44 13.9413 24 13.9413C26.56 13.9413 28.64 16.0213 28.64 18.5813C28.64 21.1413 26.56 23.2213 24 23.2213ZM24 0C10.7413 0 0 10.7413 0 24C0 37.2587 10.7413 48 24 48C37.2587 48 48 37.2587 48 24C48 10.7413 37.2587 0 24 0ZM24 43.36C19.1893 43.36 14.7947 41.5893 11.4133 38.6773C12.8533 36.448 15.328 34.944 18.144 34.8587C20.16 35.4773 22.0693 35.7867 24 35.7867C25.9307 35.7867 27.84 35.488 29.856 34.8587C32.6827 34.9547 35.1467 36.4587 36.5867 38.6773C33.2053 41.5787 28.8107 43.36 24 43.36ZM39.744 35.2213C37.3867 32.1813 33.7387 30.1973 29.568 30.1973C28.576 30.1973 27.0507 31.1253 23.9893 31.1253C20.9387 31.1253 19.4027 30.1973 18.4107 30.1973C14.2613 30.1973 10.6133 32.1813 8.23467 35.2213C5.97333 32.0533 4.62933 28.1813 4.62933 24C4.62933 13.3227 13.312 4.64 23.9893 4.64C34.6667 4.64 43.36 13.3227 43.36 24C43.36 28.1813 42.0053 32.0533 39.744 35.2213Z" fill="#DEDEDE"/>
<path d="M76.6695 21.0009L80.0009 24.3915L67.5043 37.0033L55.0009 24.3982L58.3305 21.0058L67.5025 30.2524L76.6695 21.0009Z" fill="#DEDEDE"/>
</svg>
