<svg width="24" height="24" viewBox="0 0 24 24" fill="none" xmlns="http://www.w3.org/2000/svg">
<path d="M22.9863 21.6211L16.7285 15.3047C17.9531 13.7695 18.6914 11.8242 18.6914 9.70898C18.6914 4.75781 14.6777 0.744141 9.7207 0.744141C4.76367 0.744141 0.75 4.76367 0.75 9.71484C0.75 14.666 4.76367 18.6797 9.7207 18.6797C11.8652 18.6797 13.8281 17.9297 15.375 16.6758L21.5918 22.9512C21.7793 23.1504 22.0371 23.25 22.2891 23.25C22.5293 23.25 22.7695 23.1621 22.9512 22.9863C23.3379 22.6172 23.3496 22.0078 22.9863 21.6211ZM9.7207 16.752C7.83984 16.752 6.07031 16.0195 4.74023 14.6895C3.41016 13.3594 2.67773 11.5898 2.67773 9.71484C2.67773 7.83398 3.41016 6.06445 4.74023 4.74023C6.07031 3.41016 7.83984 2.67773 9.7207 2.67773C11.6016 2.67773 13.3711 3.41016 14.7012 4.74023C16.0312 6.07031 16.7637 7.83984 16.7637 9.71484C16.7637 11.5957 16.0312 13.3652 14.7012 14.6895C13.3711 16.0195 11.6016 16.752 9.7207 16.752Z" fill="black"/>
</svg>
