<svg width="22" height="25" viewBox="0 0 22 25" fill="none" xmlns="http://www.w3.org/2000/svg">
<path d="M13.086 20.3066H14.2579C14.5801 20.3066 14.8411 20.0455 14.8411 19.7234V9.17574C14.8411 8.85359 14.5801 8.59253 14.2579 8.59253H13.086C12.7638 8.59253 12.5028 8.85359 12.5028 9.17574V19.7178C12.4972 20.0455 12.7583 20.3066 13.086 20.3066ZM21.0898 3.90469H17.0684L15.4077 1.13864C14.9856 0.433237 14.2191 0 13.397 0H8.47589C7.65386 0 6.88736 0.433237 6.46523 1.13864L4.80449 3.90469H0.783159C0.349922 3.90469 0 4.25461 0 4.68785V5.47101C0 5.90424 0.349922 6.25417 0.783159 6.25417H1.56632V22.6561C1.56632 23.9502 2.61609 25 3.91024 25H17.9682C19.2624 25 20.3122 23.9502 20.3122 22.6561V6.24861H21.0953C21.5285 6.24861 21.8785 5.89869 21.8785 5.46545V4.68229C21.8729 4.25461 21.523 3.90469 21.0898 3.90469ZM8.39258 2.48278C8.44812 2.39391 8.54255 2.33837 8.64252 2.33837H13.2304C13.3359 2.33837 13.4303 2.39391 13.4803 2.48278L14.3301 3.90469H7.53721L8.39258 2.48278ZM17.9682 22.6505H3.90469V6.24861H17.9627V22.6505H17.9682ZM7.61497 20.3066H8.78694C9.10909 20.3066 9.37014 20.0455 9.37014 19.7234V9.17574C9.37014 8.85359 9.10909 8.59253 8.78694 8.59253H7.61497C7.29282 8.59253 7.03177 8.85359 7.03177 9.17574V19.7178C7.03177 20.0455 7.29282 20.3066 7.61497 20.3066Z" fill="white"/>
</svg>
